<svg id="svg" version="1.1" xmlns="http://www.w3.org/2000/svg" xmlns:xlink="http://www.w3.org/1999/xlink" width="200" height="60.77725674091442" viewBox="0, 0, 400,129.77725674091442"><g id="svgg"><path id="path0" d="M269.667 15.166 C 264.970 15.286,264.190 15.464,263.106 16.664 C 261.781 18.130,261.727 19.457,261.954 44.768 L 262.083 59.119 264.583 58.475 C 270.693 56.902,272.813 56.719,276.000 57.490 C 278.681 58.139,280.393 58.487,280.943 58.493 L 281.469 58.500 281.457 53.458 C 281.441 47.111,281.883 45.059,283.702 43.023 C 285.499 41.012,290.459 43.444,300.529 51.275 C 302.516 52.819,305.066 54.767,306.196 55.603 C 316.795 63.441,326.002 70.270,336.917 78.392 C 354.713 91.634,353.029 90.853,363.751 90.841 C 371.949 90.832,373.260 90.323,374.075 86.833 C 374.427 85.327,374.455 20.866,374.105 19.250 C 373.323 15.646,371.991 15.103,364.166 15.201 C 358.009 15.278,357.005 15.580,355.756 17.731 C 354.738 19.484,354.742 19.427,354.833 32.417 C 355.004 56.628,354.969 58.196,354.212 60.583 C 353.111 64.058,350.582 64.262,345.500 61.284 C 343.833 60.307,338.840 56.801,333.583 52.916 C 332.942 52.441,331.254 51.202,329.833 50.161 C 327.035 48.112,319.341 42.373,307.250 33.318 C 285.729 17.201,284.780 16.561,281.120 15.678 C 279.805 15.361,275.548 14.962,274.250 15.035 C 273.975 15.050,271.912 15.109,269.667 15.166 M27.667 15.279 C 24.610 15.809,23.679 17.195,23.545 21.417 C 23.390 26.267,23.939 28.578,25.493 29.625 C 26.982 30.628,25.312 30.578,54.917 30.521 C 84.887 30.463,86.353 30.501,92.583 31.510 C 106.025 33.686,115.727 42.625,115.727 52.833 C 115.727 62.834,107.283 71.318,94.748 73.912 C 87.639 75.383,84.666 75.566,68.417 75.532 C 50.245 75.493,48.086 75.318,45.658 73.687 C 43.291 72.097,43.265 71.926,43.240 58.083 C 43.208 40.772,43.487 41.250,33.417 41.250 C 25.758 41.250,24.541 41.682,23.810 44.660 C 23.463 46.073,23.476 86.380,23.824 87.578 C 24.162 88.745,25.438 90.031,26.667 90.443 C 27.773 90.814,90.881 91.024,94.667 90.669 C 120.863 88.215,138.323 70.364,135.750 48.667 C 133.751 31.816,118.592 18.806,97.500 15.841 C 96.813 15.744,95.688 15.575,95.000 15.466 C 93.792 15.274,28.741 15.093,27.667 15.279 M146.833 15.280 C 144.479 15.684,143.261 16.844,142.849 19.078 C 142.592 20.466,142.592 85.463,142.849 86.937 C 143.073 88.224,143.752 89.339,144.659 89.912 C 146.213 90.893,143.758 90.844,188.289 90.791 L 229.083 90.743 231.061 90.370 C 235.452 89.542,238.288 88.623,241.660 86.935 C 253.697 80.909,258.224 69.081,253.180 56.833 C 250.835 51.141,250.828 50.216,253.080 44.333 C 255.975 36.768,256.107 33.232,253.679 28.333 C 250.074 21.062,244.284 17.199,234.500 15.536 C 233.000 15.281,148.270 15.034,146.833 15.280 M217.583 30.673 C 228.128 30.989,230.209 31.336,232.254 33.122 C 234.744 35.296,233.877 38.509,230.409 39.961 C 226.132 41.752,214.483 42.290,197.000 41.504 C 183.050 40.877,174.443 41.565,172.445 43.467 C 170.348 45.464,170.618 53.860,172.839 55.729 C 174.413 57.053,175.406 57.091,200.667 56.773 C 221.189 56.515,226.247 57.090,230.946 60.214 C 237.588 64.630,235.158 71.993,226.333 74.188 C 217.733 76.328,172.086 76.440,166.462 74.336 C 162.107 72.707,161.944 71.501,162.470 44.917 C 162.713 32.671,162.974 32.005,167.900 31.082 C 170.790 30.540,204.038 30.266,217.583 30.673 M18.500 113.000 L 18.500 126.000 201.000 126.000 L 383.500 126.000 383.500 113.000 L 383.500 100.000 201.000 100.000 L 18.500 100.000 18.500 113.000 M270.208 104.222 L 271.167 104.648 271.167 104.241 C 271.167 103.843,271.197 103.833,272.500 103.833 L 273.833 103.833 273.833 106.750 L 273.833 109.667 272.500 109.667 L 271.167 109.667 271.167 108.929 C 271.167 106.557,266.345 105.483,265.345 107.633 C 264.585 109.266,265.347 109.952,269.083 111.003 C 272.909 112.078,274.160 113.159,274.666 115.829 C 275.567 120.579,269.981 123.915,265.635 121.223 L 265.020 120.842 264.969 121.379 L 264.917 121.917 263.583 121.917 L 262.250 121.917 262.250 118.500 L 262.250 115.083 263.625 115.035 L 265.000 114.987 265.005 115.952 C 265.021 119.458,270.546 120.748,271.527 117.475 C 272.028 115.802,271.345 115.163,267.968 114.147 C 264.192 113.011,262.957 112.135,262.393 110.193 C 261.109 105.775,265.742 102.235,270.208 104.222 M35.401 104.344 C 38.749 105.516,39.785 111.022,37.154 113.654 C 36.142 114.665,35.142 114.995,32.424 115.211 L 30.000 115.404 30.000 117.285 L 30.000 119.167 31.083 119.167 L 32.167 119.167 32.167 120.583 L 32.167 122.000 28.417 122.000 L 24.667 122.000 24.667 120.583 L 24.667 119.167 25.667 119.167 L 26.667 119.167 26.667 112.917 L 26.667 106.667 25.667 106.667 L 24.667 106.667 24.667 105.319 L 24.667 103.971 29.708 104.043 C 33.384 104.096,34.926 104.178,35.401 104.344 M53.795 107.542 L 53.750 111.083 52.375 111.132 L 51.000 111.180 51.000 108.923 L 51.000 106.667 49.500 106.667 L 48.000 106.667 48.000 112.917 L 48.000 119.167 49.173 119.167 L 50.347 119.167 50.298 120.542 L 50.250 121.917 46.417 121.917 L 42.583 121.917 42.583 120.583 L 42.583 119.250 43.708 119.201 L 44.833 119.151 44.833 112.909 L 44.833 106.667 43.333 106.667 L 41.833 106.667 41.833 108.923 L 41.833 111.180 40.458 111.132 L 39.083 111.083 39.038 107.542 L 38.993 104.000 46.417 104.000 L 53.840 104.000 53.795 107.542 M71.083 104.175 C 75.913 104.870,78.717 109.607,77.593 115.173 C 76.483 120.668,73.444 122.125,63.417 121.967 L 60.250 121.917 60.202 120.542 L 60.153 119.167 61.327 119.167 L 62.500 119.167 62.500 112.917 L 62.500 106.667 61.333 106.667 L 60.167 106.667 60.167 105.333 L 60.167 104.000 65.042 104.003 C 67.723 104.005,70.442 104.082,71.083 104.175 M92.333 105.250 L 92.333 106.500 91.316 106.500 C 90.412 106.500,90.311 106.533,90.416 106.792 C 90.480 106.952,90.820 107.871,91.170 108.833 C 91.797 110.558,92.008 111.132,93.955 116.417 L 94.937 119.083 95.969 119.133 L 97.000 119.183 97.000 120.591 L 97.000 122.000 93.333 122.000 L 89.667 122.000 89.667 120.591 L 89.667 119.183 90.651 119.133 L 91.635 119.083 91.120 117.455 L 90.606 115.826 87.619 115.871 L 84.632 115.917 84.153 117.333 C 83.519 119.207,83.503 119.141,84.625 119.200 L 85.583 119.250 85.583 120.583 L 85.583 121.917 81.875 121.962 L 78.167 122.006 78.167 120.587 L 78.167 119.167 79.232 119.167 C 80.093 119.167,80.320 119.111,80.411 118.875 C 80.474 118.715,81.460 115.975,82.603 112.787 C 83.745 109.600,84.723 106.881,84.775 106.746 C 84.851 106.546,84.680 106.500,83.851 106.500 L 82.833 106.500 82.833 105.250 L 82.833 104.000 87.583 104.000 L 92.333 104.000 92.333 105.250 M110.667 107.583 L 110.667 111.167 109.333 111.167 L 108.000 111.167 108.000 108.917 L 108.000 106.667 106.500 106.667 L 105.000 106.667 105.000 112.909 L 105.000 119.151 106.125 119.201 L 107.250 119.250 107.250 120.583 L 107.250 121.917 103.417 121.917 L 99.583 121.917 99.535 120.542 L 99.487 119.167 100.662 119.167 L 101.837 119.167 101.794 112.958 L 101.750 106.750 100.297 106.702 L 98.843 106.654 98.797 108.869 L 98.750 111.083 97.375 111.132 L 96.000 111.180 96.000 107.590 L 96.000 104.000 103.333 104.000 L 110.667 104.000 110.667 107.583 M123.833 105.250 L 123.833 106.500 122.833 106.500 C 122.283 106.500,121.833 106.538,121.833 106.584 C 121.833 106.630,122.741 109.124,123.850 112.126 C 124.959 115.127,125.983 117.940,126.125 118.375 L 126.384 119.167 127.449 119.167 L 128.513 119.167 128.465 120.542 L 128.417 121.917 124.750 121.917 L 121.083 121.917 121.083 120.583 L 121.083 119.250 122.042 119.200 C 123.172 119.141,123.128 119.298,122.548 117.374 L 122.083 115.830 119.087 115.874 L 116.092 115.917 115.565 117.500 L 115.039 119.083 116.020 119.133 L 117.000 119.183 117.000 120.591 L 117.000 122.000 113.333 122.000 L 109.667 122.000 109.667 120.583 L 109.667 119.167 110.725 119.167 L 111.783 119.167 114.036 112.875 L 116.289 106.583 115.311 106.534 L 114.333 106.484 114.333 105.242 L 114.333 104.000 119.083 104.000 L 123.833 104.000 123.833 105.250 M144.960 104.399 C 147.720 105.585,148.541 109.649,146.468 111.868 C 146.041 112.325,146.013 112.411,146.249 112.543 C 148.352 113.720,149.143 116.661,147.981 118.986 C 146.761 121.428,144.520 122.080,137.750 121.967 L 134.750 121.917 134.702 120.542 L 134.653 119.167 135.743 119.167 L 136.833 119.167 136.833 112.917 L 136.833 106.667 135.750 106.667 L 134.667 106.667 134.667 105.320 L 134.667 103.973 139.458 104.034 C 143.644 104.087,144.340 104.133,144.960 104.399 M156.333 105.333 L 156.333 106.667 155.333 106.667 L 154.333 106.667 154.334 112.125 C 154.334 118.394,154.346 118.455,155.667 119.137 C 156.620 119.629,158.611 119.591,159.513 119.065 C 160.718 118.361,160.743 118.226,160.808 112.133 L 160.867 106.683 159.808 106.633 L 158.750 106.583 158.701 105.292 L 158.653 104.000 162.410 104.000 L 166.167 104.000 166.167 105.333 L 166.167 106.667 165.097 106.667 L 164.026 106.667 163.972 112.458 L 163.917 118.250 163.441 119.218 C 161.496 123.180,153.467 123.209,151.598 119.260 C 151.132 118.275,151.015 116.732,151.007 111.458 L 151.000 106.667 149.917 106.667 L 148.833 106.667 148.833 105.333 L 148.833 104.000 152.583 104.000 L 156.333 104.000 156.333 105.333 M179.333 105.250 L 179.333 106.500 178.321 106.500 C 177.557 106.500,177.322 106.555,177.363 106.724 C 177.392 106.848,178.429 109.697,179.667 113.057 L 181.917 119.165 183.875 119.166 L 185.833 119.167 185.833 112.917 L 185.833 106.667 184.583 106.667 L 183.333 106.667 183.333 105.333 L 183.333 104.000 186.542 104.001 L 189.750 104.002 190.062 104.543 C 190.234 104.840,191.741 107.521,193.410 110.500 C 195.080 113.479,196.531 116.067,196.635 116.250 C 196.778 116.504,196.824 115.402,196.828 111.625 L 196.833 106.667 195.667 106.667 L 194.500 106.667 194.500 105.333 L 194.500 104.000 198.333 104.000 L 202.167 104.000 202.167 105.333 L 202.167 106.667 200.833 106.667 L 199.500 106.667 199.500 114.423 L 199.500 122.179 197.962 122.131 L 196.424 122.083 195.525 120.500 C 195.031 119.629,193.282 116.520,191.639 113.590 C 189.996 110.660,188.618 108.229,188.576 108.187 C 188.534 108.145,188.500 110.599,188.500 113.639 L 188.500 119.167 189.750 119.167 L 191.000 119.167 191.000 120.585 L 191.000 122.004 183.792 121.960 L 176.583 121.917 176.535 120.542 L 176.487 119.167 177.507 119.167 L 178.526 119.167 178.412 118.647 C 178.350 118.361,178.131 117.630,177.926 117.022 L 177.553 115.917 174.566 115.871 L 171.579 115.826 171.063 117.455 L 170.547 119.083 171.524 119.133 L 172.500 119.183 172.500 120.594 L 172.500 122.006 168.792 121.962 L 165.083 121.917 165.035 120.542 L 164.987 119.167 166.124 119.167 L 167.262 119.167 168.657 115.292 C 169.424 113.160,170.370 110.517,170.760 109.417 C 171.150 108.317,171.549 107.210,171.647 106.958 L 171.825 106.500 170.829 106.500 L 169.833 106.500 169.833 105.250 L 169.833 104.000 174.583 104.000 L 179.333 104.000 179.333 105.250 M215.333 105.250 L 215.333 106.500 214.333 106.500 C 213.097 106.500,212.995 105.885,215.253 112.028 C 216.309 114.900,217.329 117.678,217.520 118.201 L 217.868 119.152 218.893 119.201 L 219.917 119.250 219.917 120.583 L 219.917 121.917 216.250 121.917 L 212.583 121.917 212.535 120.542 L 212.487 119.167 213.493 119.167 C 214.669 119.167,214.635 119.288,214.002 117.402 C 213.728 116.585,213.503 115.898,213.502 115.875 C 213.501 115.852,212.165 115.833,210.534 115.833 L 207.569 115.833 207.095 117.292 C 206.835 118.094,206.586 118.844,206.543 118.958 C 206.485 119.111,206.738 119.167,207.489 119.167 L 208.513 119.167 208.465 120.542 L 208.417 121.917 204.750 121.917 L 201.083 121.917 201.035 120.542 L 200.987 119.167 202.118 119.165 L 203.250 119.163 205.461 112.957 C 208.045 105.705,207.886 106.500,206.750 106.500 L 205.833 106.500 205.833 105.250 L 205.833 104.000 210.583 104.000 L 215.333 104.000 215.333 105.250 M232.676 104.958 C 232.974 105.485,233.366 106.179,233.546 106.500 C 233.727 106.821,234.192 107.646,234.579 108.333 C 234.967 109.021,235.514 109.996,235.793 110.500 C 237.484 113.548,239.045 116.272,239.181 116.411 C 239.280 116.512,239.322 114.750,239.294 111.661 L 239.250 106.750 238.042 106.701 L 236.833 106.652 236.833 105.326 L 236.833 104.000 244.333 104.000 L 251.833 104.000 251.833 105.333 L 251.833 106.667 250.750 106.667 L 249.667 106.667 249.667 111.561 C 249.667 118.910,250.009 119.676,253.204 119.473 C 256.050 119.292,256.166 119.002,256.166 112.125 L 256.167 106.667 255.167 106.667 L 254.167 106.667 254.167 105.333 L 254.167 104.000 257.917 104.000 L 261.667 104.000 261.667 105.333 L 261.667 106.667 260.598 106.667 L 259.530 106.667 259.465 112.292 C 259.394 118.388,259.359 118.640,258.411 120.008 C 256.689 122.492,250.881 122.961,248.292 120.824 C 246.700 119.512,246.500 118.506,246.500 111.803 L 246.500 106.667 244.252 106.667 L 242.003 106.667 241.960 114.375 L 241.917 122.083 240.395 122.131 L 238.873 122.179 238.499 121.548 C 238.293 121.201,236.551 118.104,234.628 114.667 C 232.705 111.229,231.065 108.345,230.983 108.258 C 230.895 108.165,230.833 110.370,230.833 113.633 L 230.833 119.167 232.083 119.167 L 233.333 119.167 233.333 120.586 L 233.333 122.006 229.542 121.961 L 225.750 121.917 225.702 120.542 L 225.653 119.167 226.910 119.167 L 228.167 119.167 228.167 112.917 L 228.167 106.667 226.917 106.667 L 225.667 106.667 225.667 105.333 L 225.667 104.000 228.901 104.000 L 232.135 104.000 232.676 104.958 M289.000 105.250 L 289.000 106.500 287.982 106.500 C 287.237 106.500,286.986 106.556,287.044 106.708 C 287.087 106.823,287.700 108.492,288.405 110.417 C 289.803 114.236,290.656 116.536,291.248 118.083 L 291.631 119.083 293.565 119.130 L 295.500 119.177 295.500 112.922 L 295.500 106.667 294.250 106.667 L 293.000 106.667 293.000 105.330 L 293.000 103.993 296.264 104.038 L 299.528 104.083 300.782 106.333 C 302.551 109.508,306.361 116.236,306.437 116.319 C 306.472 116.358,306.500 114.201,306.500 111.528 L 306.500 106.667 305.333 106.667 L 304.167 106.667 304.167 105.333 L 304.167 104.000 315.250 104.000 L 326.333 104.000 326.333 107.583 L 326.333 111.167 325.005 111.167 L 323.676 111.167 323.630 108.958 L 323.583 106.750 322.125 106.702 L 320.667 106.654 320.667 112.910 L 320.667 119.167 321.750 119.167 L 322.833 119.167 322.833 120.586 L 322.833 122.006 319.042 121.961 L 315.250 121.917 315.202 120.542 L 315.153 119.167 316.243 119.167 L 317.333 119.167 317.333 112.917 L 317.333 106.667 315.922 106.667 L 314.510 106.667 314.463 108.875 L 314.417 111.083 313.042 111.132 L 311.667 111.180 311.667 108.923 L 311.667 106.667 310.502 106.667 L 309.337 106.667 309.293 114.375 L 309.250 122.083 307.833 122.126 C 306.004 122.181,306.557 122.870,302.241 115.163 C 300.163 111.452,298.433 108.385,298.398 108.347 C 298.362 108.309,298.333 110.728,298.333 113.722 L 298.333 119.167 299.500 119.167 L 300.667 119.167 300.667 120.583 L 300.667 122.000 293.500 122.000 L 286.333 122.000 286.333 120.591 L 286.333 119.183 287.310 119.133 L 288.286 119.083 287.779 117.455 L 287.271 115.826 284.272 115.871 L 281.273 115.917 280.743 117.542 L 280.213 119.167 281.190 119.167 L 282.167 119.167 282.167 120.583 L 282.167 122.000 278.500 122.000 L 274.833 122.000 274.833 120.583 L 274.833 119.167 275.900 119.167 C 276.913 119.167,276.976 119.143,277.132 118.708 C 277.649 117.265,280.610 109.041,281.016 107.917 C 281.281 107.183,281.499 106.565,281.499 106.542 C 281.500 106.519,281.050 106.500,280.500 106.500 L 279.500 106.500 279.500 105.250 L 279.500 104.000 284.250 104.000 L 289.000 104.000 289.000 105.250 M339.500 105.250 L 339.500 106.500 338.500 106.500 C 337.264 106.500,337.105 105.694,339.773 112.958 L 342.053 119.167 344.027 119.167 L 346.000 119.167 346.000 112.917 L 346.000 106.667 344.833 106.667 L 343.667 106.667 343.667 105.319 L 343.667 103.972 348.958 104.030 C 354.056 104.087,354.281 104.103,355.103 104.472 C 358.719 106.097,358.745 111.190,355.146 113.024 L 354.375 113.417 355.802 116.292 L 357.229 119.167 359.009 119.167 L 360.788 119.167 361.076 118.375 C 361.700 116.662,363.360 112.044,364.418 109.083 C 364.810 107.983,365.185 106.952,365.250 106.792 C 365.356 106.533,365.255 106.500,364.351 106.500 L 363.333 106.500 363.333 105.250 L 363.333 104.000 368.083 104.000 L 372.833 104.000 372.833 105.250 L 372.833 106.500 371.833 106.500 C 371.283 106.500,370.833 106.531,370.833 106.569 C 370.833 106.607,371.065 107.263,371.348 108.027 C 371.631 108.792,372.110 110.092,372.413 110.917 C 372.716 111.742,373.229 113.129,373.553 114.000 C 373.877 114.871,374.429 116.389,374.780 117.373 L 375.417 119.163 376.465 119.165 L 377.513 119.167 377.465 120.542 L 377.417 121.917 373.792 121.962 L 370.167 122.007 370.167 120.595 L 370.167 119.183 371.132 119.133 L 372.097 119.083 371.595 117.455 L 371.093 115.826 368.103 115.871 L 365.113 115.917 364.568 117.542 L 364.024 119.167 365.012 119.167 L 366.000 119.167 366.000 120.583 L 366.000 122.000 360.609 122.000 L 355.218 122.000 353.235 117.917 L 351.252 113.833 350.292 113.833 L 349.333 113.833 349.333 116.500 L 349.333 119.167 350.423 119.167 L 351.513 119.167 351.465 120.542 L 351.417 121.917 344.083 121.917 L 336.750 121.917 336.702 120.542 L 336.653 119.167 337.660 119.167 C 338.214 119.167,338.667 119.106,338.667 119.032 C 338.667 118.887,338.081 117.037,337.800 116.292 L 337.626 115.833 334.666 115.833 L 331.706 115.833 331.264 117.252 C 331.020 118.032,330.778 118.782,330.726 118.919 C 330.648 119.122,330.817 119.167,331.656 119.167 L 332.680 119.167 332.632 120.542 L 332.583 121.917 328.917 121.917 L 325.250 121.917 325.202 120.542 L 325.153 119.167 326.233 119.167 C 327.490 119.167,327.335 119.337,328.153 117.050 C 328.507 116.060,329.480 113.351,330.315 111.029 C 332.110 106.039,332.049 106.500,330.917 106.500 L 330.000 106.500 330.000 105.250 L 330.000 104.000 334.750 104.000 L 339.500 104.000 339.500 105.250 M30.000 109.598 L 30.000 112.529 31.792 112.472 C 34.623 112.380,35.376 111.796,35.388 109.683 C 35.401 107.379,34.470 106.680,31.375 106.671 L 30.000 106.667 30.000 109.598 M65.833 112.917 L 65.833 119.167 67.292 119.165 C 72.666 119.161,74.639 117.312,74.470 112.439 C 74.324 108.198,72.383 106.667,67.155 106.667 L 65.833 106.667 65.833 112.917 M140.000 108.896 L 140.000 111.167 141.292 111.157 C 143.433 111.142,144.258 110.634,144.448 109.217 C 144.661 107.629,143.678 106.823,141.375 106.699 L 140.000 106.625 140.000 108.896 M349.333 108.851 L 349.333 111.035 351.330 110.976 C 353.795 110.903,354.329 110.560,354.461 108.962 C 354.601 107.278,353.650 106.669,350.875 106.668 L 349.333 106.667 349.333 108.851 M173.617 109.740 C 173.093 111.339,172.619 112.764,172.564 112.907 C 172.477 113.134,172.733 113.167,174.583 113.167 C 176.209 113.167,176.684 113.118,176.625 112.958 C 176.583 112.844,176.120 111.419,175.596 109.792 C 175.073 108.165,174.628 106.833,174.608 106.833 C 174.587 106.833,174.142 108.141,173.617 109.740 M209.534 109.922 C 208.965 111.646,208.528 113.083,208.561 113.117 C 208.594 113.150,209.522 113.156,210.623 113.130 L 212.624 113.083 211.722 110.250 C 211.225 108.692,210.762 107.275,210.693 107.103 C 210.602 106.877,210.276 107.671,209.534 109.922 M333.703 109.914 C 333.130 111.638,332.689 113.078,332.724 113.113 C 332.760 113.149,333.690 113.156,334.791 113.130 L 336.794 113.083 335.770 109.931 L 334.746 106.779 333.703 109.914 M86.621 109.880 C 86.096 111.464,85.667 112.852,85.667 112.963 C 85.667 113.112,86.209 113.167,87.686 113.167 C 89.529 113.167,89.699 113.141,89.625 112.875 C 89.270 111.585,87.744 107.000,87.670 107.000 C 87.618 107.000,87.147 108.296,86.621 109.880 M118.044 110.031 L 117.041 113.083 119.043 113.130 C 120.144 113.156,121.071 113.151,121.103 113.119 C 121.183 113.039,119.333 107.284,119.174 107.115 C 119.104 107.040,118.595 108.353,118.044 110.031 M283.220 110.083 L 282.195 113.167 284.277 113.167 C 285.960 113.167,286.347 113.123,286.304 112.937 C 286.132 112.206,284.402 107.001,284.331 107.001 C 284.283 107.000,283.783 108.388,283.220 110.083 M367.055 110.079 L 366.029 113.167 368.098 113.167 C 369.236 113.167,370.167 113.132,370.167 113.090 C 370.167 113.048,369.792 111.860,369.333 110.449 C 368.875 109.038,368.500 107.812,368.500 107.724 C 368.500 107.636,368.406 107.435,368.290 107.277 C 368.111 107.032,367.934 107.433,367.055 110.079 M140.111 113.944 C 140.050 114.006,140.000 115.206,140.000 116.611 L 140.000 119.167 141.343 119.167 C 143.897 119.167,145.038 118.554,145.262 117.064 C 145.547 115.162,144.680 114.235,142.389 113.994 C 140.613 113.807,140.256 113.800,140.111 113.944 " stroke="none" fill="#f9fbf7" fill-rule="evenodd"></path><path id="path1" d="M0.000 64.833 L 0.000 129.667 200.000 129.667 L 400.000 129.667 400.000 64.833 L 400.000 0.000 200.000 0.000 L 0.000 0.000 0.000 64.833 M94.917 15.380 C 98.700 15.887,99.424 16.010,102.083 16.602 C 125.440 21.801,138.988 38.799,135.578 58.624 C 132.614 75.851,117.155 88.223,95.500 90.698 C 92.091 91.087,28.219 91.012,26.973 90.617 C 25.292 90.084,24.186 89.021,23.642 87.417 C 23.307 86.427,23.309 46.187,23.644 44.833 C 24.430 41.659,25.663 41.182,33.233 41.124 C 39.478 41.075,40.934 41.421,42.198 43.250 C 43.249 44.771,43.246 44.742,43.269 57.500 C 43.302 76.622,41.509 75.330,68.083 75.386 C 84.696 75.421,87.423 75.274,93.822 73.999 C 106.609 71.451,114.806 63.883,115.755 53.750 C 116.533 45.445,108.096 35.719,97.482 32.683 C 90.561 30.703,89.318 30.643,56.148 30.664 C 31.306 30.679,28.259 30.653,27.232 30.416 C 24.442 29.772,23.657 28.348,23.415 23.500 C 23.131 17.804,24.233 15.711,27.796 15.177 C 29.723 14.889,92.667 15.079,94.917 15.380 M234.000 15.377 C 242.706 16.749,247.533 19.349,251.708 24.917 C 255.874 30.474,256.499 35.667,253.833 42.583 C 251.812 47.826,251.608 48.574,251.604 50.750 L 251.600 52.750 253.066 56.333 C 255.282 61.753,255.806 65.426,255.014 70.000 C 253.110 81.006,244.086 88.433,229.953 90.626 C 227.013 91.083,147.413 91.074,145.973 90.617 C 143.891 89.957,142.956 88.697,142.664 86.158 C 142.432 84.141,142.444 21.685,142.677 19.830 C 143.052 16.836,144.201 15.589,146.963 15.178 C 148.966 14.880,232.049 15.070,234.000 15.377 M280.083 15.328 C 285.067 16.525,284.437 16.102,311.917 36.694 C 344.384 61.022,347.598 63.204,351.026 63.239 C 354.764 63.277,355.098 61.026,354.762 38.083 C 354.415 14.369,354.102 15.083,364.833 15.083 C 372.016 15.083,373.147 15.535,374.125 18.792 C 374.480 19.972,374.675 83.183,374.332 85.805 C 373.741 90.328,372.503 90.917,363.583 90.917 C 354.532 90.917,353.029 90.471,347.000 85.996 C 345.396 84.806,342.771 82.859,341.167 81.670 C 336.966 78.557,333.472 75.959,325.249 69.833 C 321.250 66.854,317.313 63.929,316.500 63.333 C 309.957 58.536,303.888 54.001,301.083 51.816 C 292.480 45.113,288.052 42.500,285.295 42.500 C 282.633 42.500,281.500 46.023,281.500 54.298 L 281.500 58.687 280.708 58.575 C 280.273 58.514,279.429 58.358,278.833 58.229 C 278.237 58.100,276.887 57.809,275.833 57.582 C 272.514 56.867,270.777 57.003,265.274 58.407 C 263.636 58.825,262.193 59.167,262.065 59.167 C 261.727 59.167,261.722 19.850,262.059 18.583 C 262.619 16.482,263.740 15.541,266.119 15.174 C 267.540 14.955,279.059 15.082,280.083 15.328 M180.583 30.678 C 165.063 30.853,163.904 31.181,162.923 35.674 C 162.610 37.112,162.253 55.770,162.383 64.000 C 162.549 74.547,163.321 75.046,180.167 75.502 C 200.739 76.059,220.968 75.430,226.495 74.061 C 233.771 72.258,236.873 66.359,232.853 61.968 C 228.662 57.390,221.611 56.334,198.583 56.837 C 173.012 57.394,172.883 57.379,171.459 53.568 C 170.903 52.081,170.903 46.822,171.459 45.054 C 172.630 41.331,177.662 40.712,200.333 41.498 C 218.913 42.142,226.333 41.709,230.653 39.729 C 234.231 38.089,234.633 34.705,231.492 32.674 C 229.044 31.093,227.058 30.911,209.500 30.669 C 197.600 30.505,195.872 30.506,180.583 30.678 M274.461 66.242 C 284.326 68.317,287.866 80.418,280.678 87.500 C 273.156 94.911,260.631 90.528,259.326 80.028 C 258.279 71.601,266.095 64.482,274.461 66.242 M383.667 112.917 L 383.667 126.000 201.000 126.000 L 18.333 126.000 18.333 112.917 L 18.333 99.833 201.000 99.833 L 383.667 99.833 383.667 112.917 M265.617 104.064 C 263.459 104.866,262.332 106.497,262.335 108.813 C 262.339 111.524,263.839 112.897,268.083 114.077 C 271.184 114.939,271.792 115.471,271.628 117.178 C 271.276 120.841,264.833 119.700,264.833 115.975 L 264.833 115.167 263.583 115.167 L 262.333 115.167 262.333 118.500 L 262.333 121.833 263.583 121.833 L 264.833 121.833 264.833 121.333 C 264.833 120.717,264.890 120.716,266.012 121.321 C 270.022 123.480,274.594 121.041,274.578 116.750 C 274.566 113.609,273.232 112.234,269.083 111.088 C 265.203 110.016,264.326 109.191,265.326 107.551 C 266.637 105.401,271.333 106.479,271.333 108.929 L 271.333 109.667 272.583 109.667 L 273.833 109.667 273.833 106.833 L 273.833 104.000 272.583 104.000 C 271.350 104.000,271.333 104.006,271.333 104.431 C 271.333 104.667,271.277 104.833,271.208 104.798 C 269.333 103.856,267.001 103.550,265.617 104.064 M24.667 105.242 L 24.667 106.484 25.708 106.534 L 26.750 106.583 26.794 112.958 L 26.837 119.333 25.752 119.333 L 24.667 119.333 24.667 120.583 L 24.667 121.833 28.417 121.833 L 32.167 121.833 32.167 120.591 L 32.167 119.349 31.042 119.299 L 29.917 119.250 29.870 117.208 L 29.823 115.167 31.537 115.164 C 36.387 115.156,38.500 113.457,38.500 109.566 C 38.500 105.082,36.567 104.000,28.557 104.000 L 24.667 104.000 24.667 105.242 M39.167 107.500 L 39.167 111.000 40.412 111.000 L 41.657 111.000 41.703 108.792 L 41.750 106.583 42.998 106.534 C 43.684 106.506,44.417 106.527,44.625 106.579 L 45.004 106.674 44.960 112.962 L 44.917 119.250 43.792 119.299 L 42.667 119.349 42.667 120.591 L 42.667 121.833 46.417 121.833 L 50.167 121.833 50.167 120.583 L 50.167 119.333 49.081 119.333 L 47.996 119.333 48.040 112.958 L 48.083 106.583 49.583 106.583 L 51.083 106.583 51.130 108.792 L 51.176 111.000 52.422 111.000 L 53.667 111.000 53.667 107.500 L 53.667 104.000 46.417 104.000 L 39.167 104.000 39.167 107.500 M60.333 105.225 L 60.333 106.485 61.458 106.534 L 62.583 106.583 62.627 112.958 L 62.671 119.333 61.502 119.333 L 60.333 119.333 60.333 120.601 L 60.333 121.869 65.375 121.787 C 70.965 121.696,71.985 121.557,73.795 120.642 C 78.225 118.402,79.144 110.226,75.394 106.415 C 73.458 104.448,72.258 104.160,65.542 104.050 L 60.333 103.965 60.333 105.225 M83.000 105.167 L 83.000 106.333 83.907 106.333 C 85.188 106.333,85.405 105.358,82.086 114.500 C 81.870 115.096,81.397 116.408,81.034 117.417 L 80.376 119.250 79.271 119.299 L 78.167 119.349 78.167 120.591 L 78.167 121.833 81.833 121.833 L 85.500 121.833 85.500 120.583 L 85.500 119.333 84.500 119.333 C 83.314 119.333,83.334 119.422,84.053 117.333 L 84.597 115.750 87.615 115.705 L 90.633 115.659 91.150 117.225 C 91.860 119.377,91.870 119.333,90.667 119.333 L 89.667 119.333 89.667 120.583 L 89.667 121.833 93.333 121.833 L 97.000 121.833 97.000 120.591 L 97.000 119.349 95.969 119.300 L 94.937 119.250 94.397 117.833 C 94.100 117.054,93.471 115.367,92.999 114.083 C 91.713 110.584,91.081 108.871,90.619 107.635 C 90.127 106.317,90.118 106.333,91.361 106.333 L 92.333 106.333 92.333 105.167 L 92.333 104.000 87.667 104.000 L 83.000 104.000 83.000 105.167 M96.167 107.500 L 96.167 111.000 97.412 111.000 L 98.657 111.000 98.703 108.792 L 98.750 106.583 100.250 106.583 L 101.750 106.583 101.794 112.958 L 101.837 119.333 100.752 119.333 L 99.667 119.333 99.667 120.583 L 99.667 121.833 103.417 121.833 L 107.167 121.833 107.167 120.591 L 107.167 119.349 106.042 119.299 L 104.917 119.250 104.917 112.917 L 104.917 106.583 106.500 106.583 L 108.083 106.583 108.130 108.792 L 108.176 111.000 109.422 111.000 L 110.667 111.000 110.667 107.500 L 110.667 104.000 103.417 104.000 L 96.167 104.000 96.167 107.500 M114.500 105.167 L 114.500 106.333 115.417 106.333 C 116.560 106.333,116.561 106.192,115.404 109.367 C 114.400 112.124,114.105 112.941,112.920 116.250 C 112.494 117.442,112.065 118.623,111.969 118.875 C 111.802 119.309,111.736 119.333,110.730 119.333 L 109.667 119.333 109.667 120.583 L 109.667 121.833 113.333 121.833 L 117.000 121.833 117.000 120.583 L 117.000 119.333 116.000 119.333 C 114.815 119.333,114.837 119.431,115.535 117.300 L 116.071 115.667 119.086 115.667 L 122.101 115.667 122.634 117.332 C 123.312 119.451,123.340 119.333,122.167 119.333 L 121.167 119.333 121.167 120.583 L 121.167 121.833 124.750 121.833 L 128.333 121.833 128.333 120.583 L 128.333 119.333 127.365 119.333 L 126.397 119.333 124.119 113.125 C 122.866 109.710,121.820 106.804,121.795 106.667 C 121.760 106.470,121.974 106.406,122.792 106.367 L 123.833 106.317 123.833 105.159 L 123.833 104.000 119.167 104.000 L 114.500 104.000 114.500 105.167 M134.833 105.242 L 134.833 106.484 135.875 106.534 L 136.917 106.583 136.917 112.917 L 136.917 119.250 135.875 119.300 L 134.833 119.349 134.833 120.591 L 134.833 121.833 138.778 121.833 C 145.139 121.833,146.738 121.306,148.024 118.787 C 149.059 116.759,147.894 113.140,145.988 112.463 C 145.812 112.401,145.871 112.281,146.214 112.006 C 147.975 110.593,147.967 107.193,146.198 105.418 C 144.998 104.214,143.835 104.000,138.493 104.000 L 134.833 104.000 134.833 105.242 M149.000 105.242 L 149.000 106.484 150.042 106.534 L 151.083 106.583 151.169 112.417 C 151.261 118.746,151.271 118.815,152.268 120.122 C 154.155 122.595,160.031 122.791,162.453 120.461 C 163.715 119.247,163.740 119.101,163.833 112.500 L 163.917 106.583 164.958 106.534 L 166.000 106.484 166.000 105.242 L 166.000 104.000 162.417 104.000 L 158.833 104.000 158.833 105.242 L 158.833 106.483 159.792 106.533 L 160.750 106.583 160.799 111.667 C 160.858 117.720,160.831 117.992,160.089 118.734 C 158.979 119.843,156.141 119.899,155.000 118.834 C 154.228 118.112,154.158 117.492,154.206 111.807 L 154.250 106.583 155.208 106.533 L 156.167 106.483 156.167 105.242 L 156.167 104.000 152.583 104.000 L 149.000 104.000 149.000 105.242 M169.833 105.167 L 169.833 106.333 170.833 106.333 C 172.086 106.333,172.201 105.683,169.731 112.561 C 168.575 115.782,167.555 118.623,167.465 118.875 C 167.309 119.310,167.247 119.333,166.234 119.333 L 165.167 119.333 165.167 120.583 L 165.167 121.833 168.833 121.833 L 172.500 121.833 172.500 120.583 L 172.500 119.333 171.500 119.333 C 170.299 119.333,170.312 119.390,171.027 117.247 L 171.553 115.667 174.580 115.667 L 177.607 115.667 178.138 117.375 C 178.429 118.315,178.668 119.140,178.667 119.208 C 178.667 119.277,178.217 119.333,177.667 119.333 L 176.667 119.333 176.667 120.583 L 176.667 121.833 183.833 121.833 L 191.000 121.833 191.000 120.583 L 191.000 119.333 189.750 119.333 L 188.500 119.333 188.500 113.667 C 188.500 110.550,188.528 108.000,188.562 108.000 C 188.595 108.000,190.377 111.147,192.520 114.994 L 196.417 121.988 197.957 121.994 L 199.497 122.000 199.540 114.292 L 199.583 106.583 200.792 106.534 L 202.000 106.485 202.000 105.243 L 202.000 104.000 198.250 104.000 L 194.500 104.000 194.500 105.243 L 194.500 106.485 195.708 106.534 L 196.917 106.583 196.961 111.744 C 196.987 114.778,196.944 116.839,196.856 116.744 C 196.774 116.656,196.480 116.171,196.202 115.667 C 195.924 115.162,194.350 112.350,192.704 109.417 L 189.712 104.083 186.523 104.038 L 183.333 103.993 183.333 105.246 L 183.333 106.500 184.583 106.500 L 185.833 106.500 185.833 112.917 L 185.833 119.333 183.858 119.333 L 181.883 119.333 179.535 112.967 C 178.244 109.465,177.225 106.540,177.271 106.467 C 177.316 106.393,177.761 106.333,178.260 106.333 L 179.167 106.333 179.167 105.167 L 179.167 104.000 174.500 104.000 L 169.833 104.000 169.833 105.167 M205.833 105.167 L 205.833 106.333 206.833 106.333 C 208.101 106.333,208.261 105.541,205.416 113.333 C 205.198 113.929,204.629 115.523,204.150 116.875 L 203.281 119.333 202.224 119.333 L 201.167 119.333 201.167 120.583 L 201.167 121.833 204.750 121.833 L 208.333 121.833 208.333 120.583 L 208.333 119.333 207.444 119.333 C 206.266 119.333,206.281 119.394,206.949 117.401 L 207.532 115.659 210.543 115.705 L 213.554 115.750 214.110 117.410 C 214.416 118.323,214.667 119.130,214.667 119.202 C 214.667 119.274,214.217 119.333,213.667 119.333 L 212.667 119.333 212.667 120.583 L 212.667 121.833 216.250 121.833 L 219.833 121.833 219.833 120.583 L 219.833 119.333 218.851 119.333 C 218.071 119.333,217.845 119.273,217.753 119.042 C 217.210 117.669,213.167 106.600,213.167 106.484 C 213.167 106.401,213.617 106.333,214.167 106.333 L 215.167 106.333 215.167 105.167 L 215.167 104.000 210.500 104.000 L 205.833 104.000 205.833 105.167 M225.833 105.243 L 225.833 106.485 227.042 106.534 L 228.250 106.583 228.250 112.917 L 228.250 119.250 227.042 119.299 L 225.833 119.348 225.833 120.591 L 225.833 121.833 229.583 121.833 L 233.333 121.833 233.333 120.583 L 233.333 119.333 232.083 119.333 L 230.833 119.333 230.833 113.633 C 230.833 110.214,230.894 107.997,230.985 108.092 C 231.068 108.179,231.324 108.587,231.553 109.000 C 231.783 109.412,233.506 112.487,235.383 115.833 L 238.797 121.917 240.313 121.965 L 241.830 122.012 241.873 114.298 L 241.917 106.583 244.208 106.544 L 246.500 106.504 246.501 111.044 C 246.503 117.996,246.749 119.311,248.299 120.675 C 250.571 122.675,255.782 122.551,257.885 120.449 C 259.217 119.116,259.239 118.994,259.333 112.417 L 259.417 106.583 260.458 106.534 L 261.500 106.484 261.500 105.242 L 261.500 104.000 257.917 104.000 L 254.333 104.000 254.333 105.242 L 254.333 106.483 255.292 106.533 L 256.250 106.583 256.250 112.083 C 256.250 117.093,256.223 117.638,255.943 118.201 C 255.075 119.946,251.333 120.096,250.093 118.435 C 249.762 117.993,249.750 117.769,249.750 112.280 L 249.750 106.583 250.708 106.533 L 251.667 106.483 251.667 105.242 L 251.667 104.000 244.250 104.000 L 236.833 104.000 236.833 105.250 L 236.833 106.500 238.005 106.500 C 239.470 106.500,239.347 105.984,239.294 111.894 L 239.250 116.867 235.667 110.439 L 232.083 104.011 228.958 104.006 L 225.833 104.000 225.833 105.243 M279.667 105.167 L 279.667 106.333 280.556 106.333 C 281.044 106.333,281.483 106.372,281.531 106.420 C 281.578 106.467,280.589 109.374,279.333 112.878 L 277.049 119.250 275.941 119.299 L 274.833 119.349 274.833 120.591 L 274.833 121.833 278.500 121.833 L 282.167 121.833 282.167 120.583 L 282.167 119.333 281.167 119.333 C 280.617 119.333,280.166 119.277,280.165 119.208 C 280.163 119.140,280.407 118.315,280.706 117.375 L 281.249 115.667 284.281 115.667 L 287.312 115.667 287.823 117.299 C 288.491 119.436,288.516 119.333,287.333 119.333 L 286.333 119.333 286.333 120.583 L 286.333 121.833 293.500 121.833 L 300.667 121.833 300.667 120.583 L 300.667 119.333 299.417 119.333 L 298.167 119.333 298.167 113.633 C 298.167 110.277,298.228 107.998,298.316 108.092 C 298.448 108.232,299.004 109.207,301.590 113.833 C 301.975 114.521,302.479 115.421,302.712 115.833 C 302.945 116.246,303.811 117.783,304.638 119.250 L 306.141 121.917 307.652 121.965 L 309.163 122.012 309.207 114.298 L 309.250 106.583 310.417 106.583 L 311.583 106.583 311.630 108.792 L 311.676 111.000 313.000 111.000 L 314.324 111.000 314.370 108.792 L 314.417 106.583 315.917 106.583 L 317.417 106.583 317.460 112.958 L 317.504 119.333 316.419 119.333 L 315.333 119.333 315.333 120.583 L 315.333 121.833 319.083 121.833 L 322.833 121.833 322.833 120.591 L 322.833 119.349 321.708 119.299 L 320.583 119.250 320.583 112.917 L 320.583 106.583 322.083 106.583 L 323.583 106.583 323.630 108.792 L 323.676 111.000 324.922 111.000 L 326.167 111.000 326.167 107.500 L 326.167 104.000 315.167 104.000 L 304.167 104.000 304.167 105.250 L 304.167 106.500 305.339 106.500 C 306.803 106.500,306.680 105.985,306.628 111.883 L 306.583 116.845 304.417 112.984 C 303.225 110.860,302.014 108.701,301.725 108.186 C 301.437 107.671,300.797 106.537,300.304 105.667 L 299.408 104.083 296.287 104.038 L 293.167 103.993 293.167 105.239 L 293.167 106.485 294.375 106.534 L 295.583 106.583 295.583 112.917 L 295.583 119.250 293.624 119.297 C 291.723 119.343,291.659 119.332,291.493 118.964 C 290.983 117.831,286.889 106.564,286.949 106.458 C 286.988 106.390,287.465 106.333,288.010 106.333 L 289.000 106.333 289.000 105.167 L 289.000 104.000 284.333 104.000 L 279.667 104.000 279.667 105.167 M330.000 105.167 L 330.000 106.333 331.000 106.333 C 332.180 106.333,332.150 106.189,331.405 108.261 C 331.078 109.172,330.598 110.517,330.337 111.250 C 329.910 112.454,329.267 114.241,328.057 117.583 C 327.825 118.225,327.596 118.881,327.548 119.042 C 327.477 119.280,327.266 119.333,326.397 119.333 L 325.333 119.333 325.333 120.583 L 325.333 121.833 328.917 121.833 L 332.500 121.833 332.500 120.583 L 332.500 119.333 331.611 119.333 C 330.433 119.333,330.448 119.394,331.115 117.401 L 331.699 115.659 334.710 115.705 L 337.720 115.750 338.277 117.410 C 338.583 118.323,338.833 119.130,338.833 119.202 C 338.833 119.274,338.383 119.333,337.833 119.333 L 336.833 119.333 336.833 120.583 L 336.833 121.833 344.083 121.833 L 351.333 121.833 351.333 120.583 L 351.333 119.333 350.250 119.333 L 349.167 119.333 349.167 116.500 L 349.167 113.667 350.222 113.667 L 351.277 113.667 353.258 117.750 L 355.240 121.833 360.620 121.833 L 366.000 121.833 366.000 120.583 L 366.000 119.333 365.000 119.333 C 364.450 119.333,364.000 119.277,363.999 119.208 C 363.999 119.140,364.238 118.315,364.529 117.375 L 365.059 115.667 368.102 115.667 L 371.145 115.667 371.656 117.299 C 372.324 119.436,372.349 119.333,371.167 119.333 L 370.167 119.333 370.167 120.583 L 370.167 121.833 373.750 121.833 L 377.333 121.833 377.333 120.592 L 377.333 119.350 376.392 119.300 C 375.313 119.243,375.406 119.353,374.607 117.167 C 374.288 116.296,373.759 114.852,373.431 113.958 C 373.102 113.065,372.578 111.640,372.267 110.792 C 371.955 109.944,371.476 108.650,371.203 107.917 C 370.606 106.317,370.599 106.333,371.843 106.333 L 372.833 106.333 372.833 105.167 L 372.833 104.000 368.167 104.000 L 363.500 104.000 363.500 105.167 L 363.500 106.333 364.389 106.333 C 365.533 106.333,365.533 106.334,365.079 107.551 C 364.868 108.119,364.345 109.558,363.918 110.750 C 362.618 114.373,361.106 118.546,360.912 119.042 C 360.813 119.295,360.556 119.333,358.978 119.333 L 357.159 119.333 355.746 116.394 C 354.085 112.938,354.160 113.322,355.069 112.948 C 357.826 111.814,358.603 107.924,356.531 105.630 C 355.287 104.254,354.044 104.014,348.125 104.006 L 343.833 104.000 343.833 105.242 L 343.833 106.485 344.958 106.534 L 346.083 106.583 346.083 112.917 L 346.083 119.250 344.061 119.297 C 342.252 119.338,342.027 119.312,341.922 119.047 C 341.374 117.663,337.333 106.600,337.333 106.484 C 337.333 106.401,337.783 106.333,338.333 106.333 L 339.333 106.333 339.333 105.167 L 339.333 104.000 334.667 104.000 L 330.000 104.000 330.000 105.167 M33.870 106.853 C 34.895 107.113,35.405 107.951,35.472 109.487 C 35.573 111.765,34.664 112.510,31.631 112.635 L 29.833 112.709 29.833 109.716 C 29.833 108.069,29.889 106.667,29.957 106.599 C 30.109 106.447,33.017 106.636,33.870 106.853 M70.408 106.860 C 73.255 107.339,74.569 109.252,74.569 112.917 C 74.569 117.583,71.981 119.653,66.583 119.304 L 65.750 119.250 65.706 113.084 C 65.682 109.693,65.701 106.819,65.747 106.698 C 65.841 106.453,68.548 106.547,70.408 106.860 M143.264 106.913 C 144.091 107.256,144.500 107.913,144.499 108.897 C 144.498 110.601,143.462 111.333,141.053 111.333 L 140.000 111.333 140.000 109.028 C 140.000 107.760,140.056 106.665,140.125 106.596 C 140.300 106.419,142.643 106.656,143.264 106.913 M353.485 106.886 C 354.905 107.583,354.965 109.860,353.587 110.763 C 353.294 110.955,352.608 111.057,351.172 111.123 L 349.167 111.216 349.167 108.969 C 349.167 107.733,349.223 106.664,349.292 106.592 C 349.472 106.405,353.009 106.653,353.485 106.886 M88.719 109.708 C 89.225 111.289,89.687 112.752,89.747 112.958 L 89.856 113.333 87.678 113.333 C 86.480 113.333,85.497 113.277,85.493 113.208 C 85.477 112.910,87.594 106.707,87.691 106.766 C 87.751 106.802,88.213 108.126,88.719 109.708 M120.266 109.971 C 120.826 111.683,121.252 113.140,121.215 113.208 C 121.090 113.438,117.000 113.358,116.999 113.125 C 116.996 112.739,119.051 106.662,119.151 106.761 C 119.205 106.815,119.707 108.259,120.266 109.971 M175.759 109.966 C 176.321 111.681,176.750 113.140,176.714 113.208 C 176.572 113.474,172.500 113.353,172.500 113.083 C 172.500 112.663,174.534 106.645,174.640 106.751 C 174.694 106.805,175.198 108.252,175.759 109.966 M211.657 109.792 C 212.213 111.510,212.667 113.010,212.667 113.125 C 212.667 113.358,208.577 113.438,208.452 113.208 C 208.415 113.140,208.857 111.658,209.436 109.917 C 210.014 108.175,210.490 106.731,210.494 106.708 C 210.535 106.438,210.804 107.150,211.657 109.792 M285.649 110.531 C 286.117 111.968,286.500 113.187,286.500 113.239 C 286.500 113.291,285.525 113.333,284.333 113.333 C 283.038 113.333,282.167 113.268,282.167 113.171 C 282.167 112.943,284.007 107.320,284.210 106.930 C 284.357 106.646,284.400 106.684,284.587 107.263 C 284.703 107.623,285.181 109.093,285.649 110.531 M335.823 109.802 C 336.379 111.526,336.833 113.026,336.833 113.135 C 336.833 113.338,332.828 113.439,332.630 113.241 C 332.579 113.191,333.016 111.709,333.599 109.950 C 334.183 108.190,334.662 106.731,334.664 106.708 C 334.687 106.401,334.978 107.180,335.823 109.802 M368.470 107.377 C 368.586 107.767,369.042 109.211,369.484 110.585 C 369.926 111.959,370.256 113.140,370.218 113.208 C 370.090 113.434,366.000 113.358,366.000 113.130 C 366.000 112.818,368.064 106.667,368.169 106.667 C 368.219 106.667,368.355 106.986,368.470 107.377 M144.140 114.236 C 144.947 114.654,145.332 115.403,145.333 116.558 C 145.334 118.452,144.496 119.077,141.708 119.266 L 140.000 119.381 140.000 116.584 L 140.000 113.786 141.800 113.871 C 143.016 113.929,143.775 114.047,144.140 114.236 " stroke="none" fill="#040404" fill-rule="evenodd"></path><path id="path2" d="M271.297 15.123 C 271.782 15.157,272.532 15.156,272.964 15.122 C 273.396 15.088,273.000 15.060,272.083 15.061 C 271.167 15.061,270.813 15.089,271.297 15.123 M275.958 15.118 C 276.165 15.157,276.502 15.157,276.708 15.118 C 276.915 15.078,276.746 15.045,276.333 15.045 C 275.921 15.045,275.752 15.078,275.958 15.118 M364.708 15.124 C 365.327 15.156,366.340 15.156,366.958 15.124 C 367.577 15.092,367.071 15.065,365.833 15.065 C 364.596 15.065,364.090 15.092,364.708 15.124 M126.750 29.833 C 127.108 30.200,127.438 30.500,127.484 30.500 C 127.530 30.500,127.275 30.200,126.917 29.833 C 126.559 29.467,126.228 29.167,126.182 29.167 C 126.137 29.167,126.392 29.467,126.750 29.833 M354.723 30.500 C 354.723 31.188,354.752 31.469,354.788 31.125 C 354.824 30.781,354.824 30.219,354.788 29.875 C 354.752 29.531,354.723 29.813,354.723 30.500 M46.221 30.625 C 50.238 30.650,56.763 30.650,60.721 30.625 C 64.679 30.600,61.392 30.580,53.417 30.580 C 45.442 30.580,42.204 30.600,46.221 30.625 M82.460 30.618 C 82.668 30.658,82.968 30.656,83.127 30.615 C 83.286 30.573,83.117 30.540,82.750 30.542 C 82.383 30.544,82.253 30.578,82.460 30.618 M176.798 30.624 C 177.375 30.656,178.275 30.656,178.798 30.623 C 179.322 30.590,178.850 30.563,177.750 30.564 C 176.650 30.564,176.222 30.591,176.798 30.624 M211.875 30.623 C 212.310 30.657,213.023 30.657,213.458 30.623 C 213.894 30.588,213.537 30.560,212.667 30.560 C 211.796 30.560,211.440 30.588,211.875 30.623 M218.875 30.782 C 219.035 30.823,219.298 30.823,219.458 30.782 C 219.619 30.740,219.487 30.705,219.167 30.705 C 218.846 30.705,218.715 30.740,218.875 30.782 M223.292 30.951 C 223.498 30.991,223.835 30.991,224.042 30.951 C 224.248 30.911,224.079 30.879,223.667 30.879 C 223.254 30.879,223.085 30.911,223.292 30.951 M255.387 35.167 C 255.387 35.762,255.417 36.006,255.454 35.708 C 255.491 35.410,255.491 34.923,255.454 34.625 C 255.417 34.327,255.387 34.571,255.387 35.167 M261.912 48.917 C 261.912 54.600,261.933 56.949,261.958 54.137 C 261.984 51.325,261.984 46.675,261.958 43.804 C 261.933 40.932,261.912 43.233,261.912 48.917 M185.208 41.291 C 186.102 41.321,187.565 41.321,188.458 41.291 C 189.352 41.261,188.621 41.236,186.833 41.236 C 185.046 41.236,184.315 41.261,185.208 41.291 M194.960 41.451 C 195.168 41.491,195.468 41.490,195.627 41.448 C 195.786 41.406,195.617 41.374,195.250 41.375 C 194.883 41.377,194.753 41.411,194.960 41.451 M199.795 41.621 C 200.094 41.658,200.544 41.657,200.795 41.619 C 201.045 41.581,200.800 41.551,200.250 41.552 C 199.700 41.553,199.495 41.584,199.795 41.621 M205.794 41.785 C 206.001 41.824,206.301 41.823,206.460 41.781 C 206.620 41.739,206.450 41.707,206.083 41.709 C 205.717 41.711,205.586 41.745,205.794 41.785 M354.887 45.333 C 354.887 45.929,354.917 46.173,354.954 45.875 C 354.991 45.577,354.991 45.090,354.954 44.792 C 354.917 44.494,354.887 44.737,354.887 45.333 M43.221 49.583 C 43.222 50.225,43.252 50.467,43.288 50.121 C 43.324 49.775,43.324 49.250,43.287 48.955 C 43.250 48.659,43.221 48.942,43.221 49.583 M162.385 50.083 C 162.386 50.633,162.417 50.838,162.454 50.539 C 162.491 50.239,162.490 49.789,162.452 49.539 C 162.414 49.288,162.384 49.533,162.385 50.083 M281.372 51.000 C 281.372 51.321,281.406 51.452,281.448 51.292 C 281.490 51.131,281.490 50.869,281.448 50.708 C 281.406 50.548,281.372 50.679,281.372 51.000 M281.381 53.750 C 281.382 54.208,281.415 54.376,281.453 54.123 C 281.491 53.869,281.490 53.494,281.451 53.289 C 281.411 53.084,281.380 53.292,281.381 53.750 M162.224 57.417 C 162.224 58.150,162.254 58.429,162.289 58.037 C 162.324 57.645,162.324 57.045,162.288 56.704 C 162.252 56.363,162.223 56.683,162.224 57.417 M198.542 56.786 C 198.794 56.824,199.206 56.824,199.458 56.786 C 199.710 56.748,199.504 56.717,199.000 56.717 C 198.496 56.717,198.290 56.748,198.542 56.786 M213.375 56.782 C 213.535 56.823,213.798 56.823,213.958 56.782 C 214.119 56.740,213.987 56.705,213.667 56.705 C 213.346 56.705,213.215 56.740,213.375 56.782 M189.875 56.956 C 190.310 56.990,191.023 56.990,191.458 56.956 C 191.894 56.922,191.537 56.893,190.667 56.893 C 189.796 56.893,189.440 56.922,189.875 56.956 M217.460 56.951 C 217.668 56.991,217.968 56.990,218.127 56.948 C 218.286 56.906,218.117 56.874,217.750 56.875 C 217.383 56.877,217.253 56.911,217.460 56.951 M179.542 57.123 C 179.977 57.157,180.690 57.157,181.125 57.123 C 181.560 57.088,181.204 57.060,180.333 57.060 C 179.463 57.060,179.106 57.088,179.542 57.123 M43.227 59.500 C 43.227 60.371,43.255 60.727,43.289 60.292 C 43.324 59.856,43.324 59.144,43.289 58.708 C 43.255 58.273,43.227 58.629,43.227 59.500 M162.205 66.333 C 162.205 66.654,162.240 66.785,162.282 66.625 C 162.323 66.465,162.323 66.202,162.282 66.042 C 162.240 65.881,162.205 66.012,162.205 66.333 M269.972 66.159 C 259.714 68.040,255.766 80.039,263.000 87.348 C 270.916 95.345,284.359 89.843,284.359 78.605 C 284.359 70.924,277.298 64.816,269.972 66.159 M163.833 72.552 C 163.833 72.581,164.077 72.825,164.375 73.094 L 164.917 73.583 164.427 73.042 C 163.971 72.537,163.833 72.423,163.833 72.552 M54.295 75.454 C 54.594 75.491,55.044 75.490,55.295 75.452 C 55.545 75.414,55.300 75.384,54.750 75.385 C 54.200 75.386,53.995 75.417,54.295 75.454 M174.458 75.451 C 174.665 75.491,175.002 75.491,175.208 75.451 C 175.415 75.411,175.246 75.379,174.833 75.379 C 174.421 75.379,174.252 75.411,174.458 75.451 M214.208 75.448 C 214.369 75.490,214.631 75.490,214.792 75.448 C 214.952 75.406,214.821 75.372,214.500 75.372 C 214.179 75.372,214.048 75.406,214.208 75.448 M70.875 75.625 C 72.135 75.653,74.198 75.653,75.458 75.625 C 76.719 75.596,75.688 75.573,73.167 75.573 C 70.646 75.573,69.615 75.596,70.875 75.625 M180.625 75.618 C 180.831 75.657,181.169 75.657,181.375 75.618 C 181.581 75.578,181.412 75.545,181.000 75.545 C 180.588 75.545,180.419 75.578,180.625 75.618 M209.460 75.618 C 209.668 75.658,209.968 75.656,210.127 75.615 C 210.286 75.573,210.117 75.540,209.750 75.542 C 209.383 75.544,209.253 75.578,209.460 75.618 M188.047 75.789 C 188.485 75.824,189.160 75.823,189.547 75.788 C 189.934 75.754,189.575 75.725,188.750 75.726 C 187.925 75.726,187.609 75.755,188.047 75.789 M202.463 75.789 C 202.855 75.824,203.455 75.824,203.796 75.788 C 204.137 75.752,203.817 75.723,203.083 75.724 C 202.350 75.724,202.071 75.754,202.463 75.789 M154.113 90.958 C 156.696 90.984,160.971 90.984,163.613 90.958 C 166.255 90.932,164.142 90.911,158.917 90.911 C 153.692 90.911,151.530 90.932,154.113 90.958 M360.125 90.954 C 360.423 90.991,360.910 90.991,361.208 90.954 C 361.506 90.917,361.262 90.887,360.667 90.887 C 360.071 90.887,359.827 90.917,360.125 90.954 M363.542 90.957 C 364.252 90.988,365.415 90.988,366.125 90.957 C 366.835 90.926,366.254 90.900,364.833 90.900 C 363.412 90.900,362.831 90.926,363.542 90.957 M200.957 99.958 L 383.498 100.000 383.542 113.000 L 383.586 126.000 383.585 112.958 L 383.583 99.917 201.000 99.917 L 18.417 99.916 200.957 99.958 M39.078 107.542 L 39.083 111.083 40.500 111.095 L 41.917 111.106 40.545 111.046 L 39.173 110.987 39.123 107.493 L 39.073 104.000 39.078 107.542 M53.705 107.452 L 53.667 110.987 52.292 111.043 L 50.917 111.099 52.297 111.133 C 53.988 111.174,53.852 111.521,53.792 107.329 L 53.743 103.917 53.705 107.452 M60.225 105.333 C 60.225 106.112,60.254 106.431,60.289 106.042 C 60.324 105.652,60.324 105.015,60.289 104.625 C 60.254 104.235,60.225 104.554,60.225 105.333 M158.724 105.250 C 158.724 105.983,158.754 106.263,158.789 105.871 C 158.824 105.479,158.824 104.879,158.788 104.537 C 158.752 104.196,158.723 104.517,158.724 105.250 M251.725 105.333 C 251.725 106.112,251.754 106.431,251.789 106.042 C 251.824 105.652,251.824 105.015,251.789 104.625 C 251.754 104.235,251.725 104.554,251.725 105.333 M254.225 105.333 C 254.225 106.112,254.254 106.431,254.289 106.042 C 254.324 105.652,254.324 105.015,254.289 104.625 C 254.254 104.235,254.225 104.554,254.225 105.333 M261.558 105.333 C 261.558 106.112,261.587 106.431,261.622 106.042 C 261.657 105.652,261.657 105.015,261.622 104.625 C 261.587 104.235,261.558 104.554,261.558 105.333 M26.742 112.917 C 26.742 116.400,26.764 117.849,26.791 116.136 C 26.818 114.423,26.819 111.573,26.791 109.803 C 26.764 108.032,26.742 109.433,26.742 112.917 M62.576 112.917 C 62.576 116.400,62.598 117.849,62.625 116.136 C 62.652 114.423,62.652 111.573,62.625 109.803 C 62.598 108.032,62.576 109.433,62.576 112.917 M98.703 108.785 L 98.667 110.987 97.292 111.043 L 95.917 111.099 97.297 111.133 C 98.956 111.174,98.859 111.334,98.791 108.657 L 98.739 106.583 98.703 108.785 M154.240 111.500 C 154.240 114.204,154.263 115.310,154.291 113.958 C 154.319 112.606,154.319 110.394,154.291 109.042 C 154.263 107.690,154.240 108.796,154.240 111.500 M196.907 111.667 C 196.907 114.462,196.930 115.606,196.958 114.208 C 196.986 112.810,196.986 110.523,196.958 109.125 C 196.930 107.727,196.907 108.871,196.907 111.667 M256.241 111.667 C 256.241 114.462,256.263 115.606,256.291 114.208 C 256.319 112.810,256.319 110.523,256.291 109.125 C 256.263 107.727,256.241 108.871,256.241 111.667 M259.407 111.750 C 259.407 114.592,259.430 115.778,259.458 114.385 C 259.486 112.993,259.486 110.668,259.458 109.219 C 259.430 107.769,259.408 108.908,259.407 111.750 M306.463 111.599 C 306.438 114.312,306.473 116.567,306.542 116.609 C 306.610 116.652,306.667 114.432,306.667 111.677 C 306.667 108.921,306.631 106.667,306.588 106.667 C 306.545 106.667,306.489 108.886,306.463 111.599 M314.369 108.785 L 314.333 110.987 312.958 111.043 L 311.583 111.099 312.964 111.133 C 314.623 111.174,314.526 111.334,314.458 108.657 L 314.405 106.583 314.369 108.785 M317.409 112.917 C 317.409 116.400,317.431 117.849,317.458 116.136 C 317.485 114.423,317.485 111.573,317.458 109.803 C 317.431 108.032,317.409 109.433,317.409 112.917 M320.576 112.917 C 320.576 116.400,320.598 117.849,320.625 116.136 C 320.652 114.423,320.652 111.573,320.625 109.803 C 320.598 108.032,320.576 109.433,320.576 112.917 M349.232 108.833 C 349.232 110.071,349.258 110.577,349.290 109.958 C 349.322 109.340,349.322 108.327,349.290 107.708 C 349.258 107.090,349.232 107.596,349.232 108.833 M151.074 111.750 C 151.074 114.500,151.097 115.648,151.125 114.302 C 151.153 112.956,151.153 110.706,151.125 109.302 C 151.097 107.898,151.074 109.000,151.074 111.750 M298.241 113.667 C 298.241 116.737,298.264 117.994,298.291 116.458 C 298.319 114.923,298.319 112.410,298.291 110.875 C 298.264 109.340,298.241 110.596,298.241 113.667 M271.212 109.000 C 271.212 109.412,271.245 109.581,271.284 109.375 C 271.324 109.169,271.324 108.831,271.284 108.625 C 271.245 108.419,271.212 108.587,271.212 109.000 M108.625 111.122 C 109.015 111.157,109.652 111.157,110.042 111.122 C 110.431 111.087,110.112 111.058,109.333 111.058 C 108.554 111.058,108.235 111.087,108.625 111.122 M324.292 111.122 C 324.681 111.157,325.319 111.157,325.708 111.122 C 326.098 111.087,325.779 111.058,325.000 111.058 C 324.221 111.058,323.902 111.087,324.292 111.122 M74.545 112.833 C 74.545 113.246,74.578 113.415,74.618 113.208 C 74.657 113.002,74.657 112.665,74.618 112.458 C 74.578 112.252,74.545 112.421,74.545 112.833 M30.458 112.621 C 30.756 112.658,31.244 112.658,31.542 112.621 C 31.840 112.584,31.596 112.553,31.000 112.553 C 30.404 112.553,30.160 112.584,30.458 112.621 M349.240 113.882 C 349.195 114.000,349.181 115.257,349.208 116.674 L 349.259 119.250 349.296 116.550 L 349.333 113.850 350.292 113.790 L 351.250 113.730 350.286 113.698 C 349.629 113.677,349.297 113.735,349.240 113.882 M262.241 115.213 C 262.196 115.331,262.180 116.887,262.205 118.672 L 262.250 121.917 263.500 121.927 L 264.750 121.938 263.535 121.878 L 262.320 121.819 262.368 118.409 C 262.416 115.059,262.405 114.786,262.241 115.213 M30.455 115.287 C 30.750 115.324,31.275 115.324,31.621 115.288 C 31.967 115.252,31.725 115.222,31.083 115.221 C 30.442 115.221,30.159 115.250,30.455 115.287 M86.033 115.791 C 86.831 115.821,88.181 115.821,89.033 115.791 C 89.886 115.761,89.233 115.736,87.583 115.736 C 85.933 115.735,85.236 115.760,86.033 115.791 M116.109 115.792 C 116.066 115.860,116.943 115.897,118.057 115.873 C 121.736 115.794,122.125 115.731,119.135 115.699 C 117.513 115.681,116.151 115.723,116.109 115.792 M172.583 115.780 C 175.011 115.900,177.629 115.906,177.558 115.792 C 177.515 115.723,176.154 115.681,174.532 115.699 C 172.910 115.716,172.033 115.753,172.583 115.780 M210.493 115.790 C 212.548 115.826,213.445 115.901,213.547 116.046 C 213.652 116.193,213.673 116.181,213.624 116.000 C 213.567 115.790,213.079 115.749,210.570 115.744 L 207.583 115.738 210.493 115.790 M281.275 115.792 C 281.233 115.860,282.109 115.897,283.224 115.873 C 286.903 115.794,287.292 115.731,284.302 115.699 C 282.680 115.681,281.318 115.723,281.275 115.792 M333.200 115.791 C 333.997 115.821,335.347 115.821,336.200 115.791 C 337.052 115.761,336.400 115.736,334.750 115.736 C 333.100 115.735,332.402 115.760,333.200 115.791 M365.109 115.792 C 365.066 115.860,365.943 115.897,367.057 115.873 C 370.736 115.794,371.125 115.731,368.135 115.699 C 366.513 115.681,365.151 115.723,365.109 115.792 M163.879 116.667 C 163.879 117.079,163.911 117.248,163.951 117.042 C 163.991 116.835,163.991 116.498,163.951 116.292 C 163.911 116.085,163.879 116.254,163.879 116.667 M60.240 120.583 L 60.250 121.917 64.042 121.921 L 67.834 121.926 64.090 121.877 L 60.347 121.827 60.288 120.539 L 60.230 119.250 60.240 120.583 M165.073 120.583 L 165.083 121.917 168.750 121.921 L 172.417 121.926 168.798 121.877 L 165.180 121.827 165.122 120.538 L 165.063 119.250 165.073 120.583 M176.573 120.583 L 176.583 121.917 183.750 121.919 L 190.917 121.922 183.798 121.876 L 176.680 121.830 176.622 120.540 L 176.563 119.250 176.573 120.583 M42.572 120.624 L 42.583 121.917 46.375 121.921 L 50.167 121.926 46.424 121.877 L 42.681 121.827 42.621 120.580 L 42.561 119.332 42.572 120.624 M85.533 120.538 L 85.500 121.827 81.792 121.875 L 78.083 121.923 81.797 121.962 C 86.029 122.005,85.713 122.134,85.624 120.400 L 85.565 119.250 85.533 120.538 M107.199 120.539 L 107.167 121.827 103.375 121.875 L 99.583 121.923 103.380 121.962 C 107.706 122.005,107.380 122.136,107.291 120.400 L 107.232 119.250 107.199 120.539 M121.072 120.624 L 121.083 121.917 124.667 121.922 L 128.250 121.926 124.715 121.877 L 121.181 121.827 121.121 120.580 L 121.061 119.332 121.072 120.624 M219.866 120.538 L 219.833 121.827 216.208 121.875 L 212.583 121.924 216.214 121.962 C 220.352 122.005,220.046 122.133,219.957 120.400 L 219.899 119.250 219.866 120.538 M26.551 121.958 C 27.633 121.987,29.358 121.987,30.384 121.958 C 31.410 121.928,30.525 121.905,28.417 121.905 C 26.308 121.905,25.469 121.929,26.551 121.958 M91.458 121.958 C 92.490 121.987,94.177 121.987,95.208 121.958 C 96.240 121.929,95.396 121.905,93.333 121.905 C 91.271 121.905,90.427 121.929,91.458 121.958 M111.458 121.958 C 112.490 121.987,114.177 121.987,115.208 121.958 C 116.240 121.929,115.396 121.905,113.333 121.905 C 111.271 121.905,110.427 121.929,111.458 121.958 M136.542 121.958 C 137.527 121.987,139.140 121.987,140.125 121.958 C 141.110 121.928,140.304 121.904,138.333 121.904 C 136.362 121.904,135.556 121.928,136.542 121.958 M202.866 121.958 C 203.846 121.987,205.496 121.987,206.532 121.958 C 207.569 121.929,206.767 121.904,204.750 121.904 C 202.733 121.904,201.885 121.928,202.866 121.958 M227.718 121.958 C 228.800 121.987,230.525 121.987,231.551 121.958 C 232.577 121.928,231.692 121.905,229.583 121.905 C 227.475 121.905,226.635 121.929,227.718 121.958 M276.625 121.958 C 277.656 121.987,279.344 121.987,280.375 121.958 C 281.406 121.929,280.563 121.905,278.500 121.905 C 276.438 121.905,275.594 121.929,276.625 121.958 M289.875 121.958 C 291.869 121.985,295.131 121.985,297.125 121.958 C 299.119 121.932,297.487 121.910,293.500 121.910 C 289.512 121.910,287.881 121.932,289.875 121.958 M317.218 121.958 C 318.300 121.987,320.025 121.987,321.051 121.958 C 322.077 121.928,321.192 121.905,319.083 121.905 C 316.975 121.905,316.135 121.929,317.218 121.958 M327.032 121.958 C 328.013 121.987,329.663 121.987,330.699 121.958 C 331.735 121.929,330.933 121.904,328.917 121.904 C 326.900 121.904,326.052 121.928,327.032 121.958 M340.470 121.958 C 342.515 121.985,345.815 121.985,347.803 121.958 C 349.791 121.932,348.117 121.910,344.083 121.910 C 340.050 121.910,338.424 121.932,340.470 121.958 M357.886 121.958 C 359.427 121.986,361.902 121.986,363.386 121.958 C 364.869 121.930,363.608 121.908,360.583 121.908 C 357.558 121.908,356.344 121.931,357.886 121.958 M371.866 121.958 C 372.846 121.987,374.496 121.987,375.532 121.958 C 376.569 121.929,375.767 121.904,373.750 121.904 C 371.733 121.904,370.885 121.928,371.866 121.958 M197.208 122.123 C 197.644 122.157,198.356 122.157,198.792 122.123 C 199.227 122.088,198.871 122.060,198.000 122.060 C 197.129 122.060,196.773 122.088,197.208 122.123 M239.542 122.123 C 239.977 122.157,240.690 122.157,241.125 122.123 C 241.560 122.088,241.204 122.060,240.333 122.060 C 239.463 122.060,239.106 122.088,239.542 122.123 M307.047 122.123 C 307.485 122.157,308.160 122.157,308.547 122.122 C 308.934 122.087,308.575 122.059,307.750 122.059 C 306.925 122.060,306.609 122.088,307.047 122.123 " stroke="none" fill="#848484" fill-rule="evenodd"></path><path id="path3" d="M29.044 15.120 C 29.297 15.158,29.672 15.157,29.877 15.117 C 30.082 15.078,29.875 15.046,29.417 15.048 C 28.958 15.049,28.791 15.081,29.044 15.120 M88.875 15.121 C 89.219 15.157,89.781 15.157,90.125 15.121 C 90.469 15.085,90.188 15.056,89.500 15.056 C 88.813 15.056,88.531 15.085,88.875 15.121 M148.125 15.118 C 148.331 15.157,148.669 15.157,148.875 15.118 C 149.081 15.078,148.912 15.045,148.500 15.045 C 148.087 15.045,147.919 15.078,148.125 15.118 M228.375 15.121 C 228.719 15.157,229.281 15.157,229.625 15.121 C 229.969 15.085,229.688 15.056,229.000 15.056 C 228.313 15.056,228.031 15.085,228.375 15.121 M267.377 15.120 C 267.631 15.158,268.006 15.157,268.211 15.117 C 268.416 15.078,268.208 15.046,267.750 15.048 C 267.292 15.049,267.124 15.081,267.377 15.120 M360.958 15.118 C 361.165 15.157,361.502 15.157,361.708 15.118 C 361.915 15.078,361.746 15.045,361.333 15.045 C 360.921 15.045,360.752 15.078,360.958 15.118 M23.394 22.083 C 23.395 23.000,23.423 23.354,23.456 22.869 C 23.490 22.385,23.490 21.635,23.456 21.203 C 23.421 20.770,23.394 21.167,23.394 22.083 M142.582 53.000 C 142.582 70.829,142.601 78.123,142.625 69.208 C 142.649 60.294,142.649 45.706,142.625 36.792 C 142.601 27.877,142.582 35.171,142.582 53.000 M374.415 53.083 C 374.415 70.775,374.434 77.988,374.458 69.112 C 374.482 60.236,374.482 45.761,374.458 36.945 C 374.434 28.129,374.415 35.392,374.415 53.083 M249.250 22.167 C 249.608 22.533,249.938 22.833,249.984 22.833 C 250.030 22.833,249.775 22.533,249.417 22.167 C 249.059 21.800,248.728 21.500,248.682 21.500 C 248.637 21.500,248.892 21.800,249.250 22.167 M354.559 24.750 C 354.559 25.575,354.587 25.934,354.622 25.547 C 354.657 25.160,354.657 24.485,354.623 24.047 C 354.588 23.609,354.560 23.925,354.559 24.750 M70.050 30.624 C 70.856 30.655,72.131 30.655,72.883 30.624 C 73.635 30.593,72.975 30.568,71.417 30.568 C 69.858 30.568,69.243 30.594,70.050 30.624 M79.125 30.623 C 79.606 30.657,80.394 30.657,80.875 30.623 C 81.356 30.589,80.962 30.562,80.000 30.562 C 79.037 30.562,78.644 30.589,79.125 30.623 M183.208 30.625 C 184.560 30.653,186.773 30.653,188.125 30.625 C 189.477 30.597,188.371 30.574,185.667 30.574 C 182.963 30.574,181.856 30.597,183.208 30.625 M203.958 30.625 C 205.081 30.653,206.919 30.653,208.042 30.625 C 209.165 30.596,208.246 30.572,206.000 30.572 C 203.754 30.572,202.835 30.596,203.958 30.625 M217.542 30.782 C 217.702 30.823,217.965 30.823,218.125 30.782 C 218.285 30.740,218.154 30.705,217.833 30.705 C 217.512 30.705,217.381 30.740,217.542 30.782 M221.875 30.948 C 222.035 30.990,222.298 30.990,222.458 30.948 C 222.619 30.906,222.487 30.872,222.167 30.872 C 221.846 30.872,221.715 30.906,221.875 30.948 M164.240 32.708 L 163.750 33.250 164.292 32.760 C 164.590 32.491,164.833 32.248,164.833 32.219 C 164.833 32.090,164.696 32.203,164.240 32.708 M354.735 35.083 C 354.735 36.642,354.760 37.302,354.791 36.550 C 354.821 35.798,354.821 34.523,354.791 33.717 C 354.760 32.910,354.735 33.525,354.735 35.083 M162.542 38.917 C 162.544 39.283,162.578 39.414,162.618 39.206 C 162.658 38.999,162.656 38.699,162.615 38.540 C 162.573 38.380,162.540 38.550,162.542 38.917 M33.875 41.123 C 34.402 41.156,35.265 41.156,35.792 41.123 C 36.319 41.090,35.887 41.063,34.833 41.063 C 33.779 41.063,33.348 41.090,33.875 41.123 M182.294 41.285 C 182.501 41.324,182.801 41.323,182.960 41.281 C 183.120 41.239,182.950 41.207,182.583 41.209 C 182.217 41.211,182.086 41.245,182.294 41.285 M191.128 41.287 C 191.428 41.325,191.878 41.324,192.128 41.286 C 192.378 41.248,192.133 41.217,191.583 41.218 C 191.033 41.219,190.828 41.250,191.128 41.287 M196.375 41.448 C 196.535 41.490,196.798 41.490,196.958 41.448 C 197.119 41.406,196.987 41.372,196.667 41.372 C 196.346 41.372,196.215 41.406,196.375 41.448 M202.042 41.619 C 202.294 41.658,202.706 41.658,202.958 41.619 C 203.210 41.581,203.004 41.550,202.500 41.550 C 201.996 41.550,201.790 41.581,202.042 41.619 M207.292 41.784 C 207.498 41.824,207.835 41.824,208.042 41.784 C 208.248 41.745,208.079 41.712,207.667 41.712 C 207.254 41.712,207.085 41.745,207.292 41.784 M23.414 66.333 C 23.414 77.104,23.434 81.510,23.458 76.125 C 23.483 70.740,23.483 61.927,23.458 56.542 C 23.434 51.156,23.414 55.563,23.414 66.333 M43.209 47.583 C 43.211 47.950,43.245 48.080,43.285 47.873 C 43.324 47.666,43.323 47.366,43.281 47.206 C 43.239 47.047,43.207 47.217,43.209 47.583 M354.890 48.250 C 354.891 48.983,354.920 49.263,354.956 48.871 C 354.991 48.479,354.990 47.879,354.954 47.537 C 354.919 47.196,354.890 47.517,354.890 48.250 M162.381 52.250 C 162.382 52.708,162.415 52.876,162.453 52.623 C 162.491 52.369,162.490 51.994,162.451 51.789 C 162.411 51.584,162.380 51.792,162.381 52.250 M136.053 52.667 C 136.053 53.262,136.084 53.506,136.121 53.208 C 136.158 52.910,136.158 52.423,136.121 52.125 C 136.084 51.827,136.053 52.071,136.053 52.667 M354.879 54.000 C 354.879 54.413,354.911 54.581,354.951 54.375 C 354.991 54.169,354.991 53.831,354.951 53.625 C 354.911 53.419,354.879 53.587,354.879 54.000 M200.708 56.786 C 200.960 56.824,201.373 56.824,201.625 56.786 C 201.877 56.748,201.671 56.717,201.167 56.717 C 200.662 56.717,200.456 56.748,200.708 56.786 M211.960 56.785 C 212.168 56.824,212.468 56.823,212.627 56.781 C 212.786 56.739,212.617 56.707,212.250 56.709 C 211.883 56.711,211.753 56.745,211.960 56.785 M193.121 56.954 C 193.417 56.990,193.942 56.991,194.288 56.955 C 194.634 56.919,194.392 56.889,193.750 56.888 C 193.108 56.887,192.825 56.917,193.121 56.954 M216.208 56.948 C 216.369 56.990,216.631 56.990,216.792 56.948 C 216.952 56.906,216.821 56.872,216.500 56.872 C 216.179 56.872,216.048 56.906,216.208 56.948 M177.460 57.118 C 177.668 57.158,177.968 57.156,178.127 57.115 C 178.286 57.073,178.117 57.040,177.750 57.042 C 177.383 57.044,177.253 57.078,177.460 57.118 M183.463 57.122 C 183.855 57.157,184.455 57.157,184.796 57.121 C 185.137 57.085,184.817 57.057,184.083 57.057 C 183.350 57.058,183.071 57.087,183.463 57.122 M271.875 57.119 C 272.127 57.158,272.540 57.158,272.792 57.119 C 273.044 57.081,272.837 57.050,272.333 57.050 C 271.829 57.050,271.623 57.081,271.875 57.119 M162.236 62.417 C 162.236 64.158,162.261 64.848,162.291 63.950 C 162.321 63.051,162.321 61.626,162.291 60.783 C 162.261 59.940,162.236 60.675,162.236 62.417 M43.220 62.500 C 43.220 63.096,43.250 63.340,43.287 63.042 C 43.324 62.744,43.324 62.256,43.287 61.958 C 43.250 61.660,43.220 61.904,43.220 62.500 M255.205 64.333 C 255.205 64.654,255.240 64.785,255.282 64.625 C 255.323 64.465,255.323 64.202,255.282 64.042 C 255.240 63.881,255.205 64.012,255.205 64.333 M255.209 66.750 C 255.211 67.117,255.245 67.247,255.285 67.040 C 255.324 66.832,255.323 66.532,255.281 66.373 C 255.239 66.214,255.207 66.383,255.209 66.750 M43.205 67.500 C 43.205 67.821,43.240 67.952,43.282 67.792 C 43.323 67.631,43.323 67.369,43.282 67.208 C 43.240 67.048,43.205 67.179,43.205 67.500 M59.051 75.458 C 60.041 75.487,61.616 75.487,62.551 75.458 C 63.485 75.428,62.675 75.404,60.750 75.404 C 58.825 75.404,58.060 75.428,59.051 75.458 M80.711 75.453 C 80.964 75.491,81.339 75.490,81.544 75.451 C 81.749 75.411,81.542 75.380,81.083 75.381 C 80.625 75.382,80.457 75.415,80.711 75.453 M176.292 75.454 C 176.590 75.491,177.077 75.491,177.375 75.454 C 177.673 75.417,177.429 75.387,176.833 75.387 C 176.237 75.387,175.994 75.417,176.292 75.454 M212.542 75.453 C 212.794 75.491,213.206 75.491,213.458 75.453 C 213.710 75.415,213.504 75.383,213.000 75.383 C 212.496 75.383,212.290 75.415,212.542 75.453 M182.542 75.619 C 182.794 75.658,183.206 75.658,183.458 75.619 C 183.710 75.581,183.504 75.550,183.000 75.550 C 182.496 75.550,182.290 75.581,182.542 75.619 M207.792 75.618 C 207.998 75.657,208.335 75.657,208.542 75.618 C 208.748 75.578,208.579 75.545,208.167 75.545 C 207.754 75.545,207.585 75.578,207.792 75.618 M193.802 75.791 C 195.114 75.820,197.214 75.819,198.468 75.791 C 199.723 75.763,198.650 75.740,196.083 75.740 C 193.517 75.740,192.490 75.763,193.802 75.791 M259.214 78.583 C 259.216 79.042,259.248 79.209,259.286 78.956 C 259.325 78.703,259.324 78.328,259.284 78.123 C 259.244 77.918,259.213 78.125,259.214 78.583 M28.960 90.951 C 29.168 90.991,29.468 90.990,29.627 90.948 C 29.786 90.906,29.617 90.874,29.250 90.875 C 28.883 90.877,28.753 90.911,28.960 90.951 M91.295 90.954 C 91.594 90.991,92.044 90.990,92.295 90.952 C 92.545 90.914,92.300 90.884,91.750 90.885 C 91.200 90.886,90.995 90.917,91.295 90.954 M147.960 90.951 C 148.168 90.991,148.468 90.990,148.627 90.948 C 148.786 90.906,148.617 90.874,148.250 90.875 C 147.883 90.877,147.753 90.911,147.960 90.951 M225.708 90.953 C 225.960 90.991,226.373 90.991,226.625 90.953 C 226.877 90.915,226.671 90.883,226.167 90.883 C 225.662 90.883,225.456 90.915,225.708 90.953 M358.542 90.948 C 358.702 90.990,358.965 90.990,359.125 90.948 C 359.285 90.906,359.154 90.872,358.833 90.872 C 358.512 90.872,358.381 90.906,358.542 90.948 M368.208 90.948 C 368.369 90.990,368.631 90.990,368.792 90.948 C 368.952 90.906,368.821 90.872,368.500 90.872 C 368.179 90.872,368.048 90.906,368.208 90.948 M18.413 112.917 C 18.413 120.158,18.433 123.097,18.458 119.446 C 18.483 115.795,18.483 109.870,18.458 106.279 C 18.433 102.688,18.413 105.675,18.413 112.917 M267.294 103.785 C 267.501 103.824,267.801 103.823,267.960 103.781 C 268.120 103.739,267.950 103.707,267.583 103.709 C 267.217 103.711,267.086 103.745,267.294 103.785 M271.963 103.956 C 272.355 103.991,272.955 103.990,273.296 103.954 C 273.637 103.919,273.317 103.890,272.583 103.890 C 271.850 103.891,271.571 103.920,271.963 103.956 M82.904 105.167 L 82.917 106.417 83.943 106.500 C 84.507 106.546,84.934 106.527,84.891 106.458 C 84.848 106.390,84.409 106.333,83.914 106.333 L 83.015 106.333 82.953 105.125 L 82.891 103.917 82.904 105.167 M114.404 105.167 L 114.417 106.417 115.376 106.430 L 116.335 106.444 115.425 106.381 L 114.514 106.317 114.453 105.117 L 114.391 103.917 114.404 105.167 M134.739 105.291 L 134.750 106.583 135.792 106.633 L 136.833 106.683 136.833 112.917 L 136.833 119.151 135.792 119.200 L 134.750 119.250 134.738 120.583 L 134.726 121.917 134.787 120.633 L 134.847 119.349 135.882 119.299 L 136.917 119.250 136.917 112.917 L 136.917 106.583 135.882 106.534 L 134.847 106.484 134.787 105.242 L 134.727 103.999 134.739 105.291 M156.167 105.242 L 156.167 106.483 155.208 106.544 L 154.250 106.604 155.292 106.635 L 156.333 106.667 156.333 105.333 C 156.333 104.600,156.296 104.000,156.250 104.000 C 156.204 104.000,156.167 104.559,156.167 105.242 M166.000 105.242 L 166.000 106.484 164.958 106.543 L 163.917 106.602 165.042 106.635 L 166.167 106.667 166.167 105.333 C 166.167 104.600,166.129 104.000,166.083 104.000 C 166.037 104.000,166.000 104.559,166.000 105.242 M179.199 105.117 L 179.167 106.317 178.208 106.377 L 177.250 106.437 178.214 106.468 C 179.348 106.506,179.374 106.469,179.291 104.982 L 179.231 103.917 179.199 105.117 M202.033 105.201 L 202.000 106.485 200.792 106.543 L 199.583 106.600 200.797 106.634 C 202.217 106.672,202.207 106.685,202.124 105.067 L 202.065 103.917 202.033 105.201 M225.739 105.291 L 225.750 106.583 226.958 106.632 L 228.167 106.681 228.167 112.917 L 228.167 119.152 226.958 119.201 L 225.750 119.250 225.738 120.583 L 225.726 121.917 225.787 120.632 L 225.847 119.348 227.049 119.299 L 228.250 119.250 228.250 112.917 L 228.250 106.583 227.049 106.535 L 225.847 106.486 225.787 105.242 L 225.727 103.999 225.739 105.291 M293.072 105.291 L 293.083 106.583 294.292 106.632 L 295.500 106.681 295.500 112.919 L 295.500 119.156 293.583 119.211 L 291.666 119.267 293.625 119.258 L 295.583 119.250 295.583 112.917 L 295.583 106.583 294.382 106.535 L 293.180 106.486 293.121 105.242 L 293.061 103.999 293.072 105.291 M326.237 107.500 C 326.237 109.471,326.262 110.277,326.291 109.292 C 326.321 108.306,326.321 106.694,326.291 105.708 C 326.262 104.723,326.237 105.529,326.237 107.500 M343.700 105.292 L 343.667 106.667 344.833 106.667 L 346.000 106.667 346.000 112.912 L 346.000 119.156 343.958 119.212 L 341.917 119.267 344.000 119.258 L 346.083 119.250 346.083 112.917 L 346.083 106.583 344.965 106.534 L 343.847 106.485 343.790 105.201 L 343.734 103.917 343.700 105.292 M363.404 105.167 L 363.417 106.417 364.443 106.500 C 365.007 106.546,365.434 106.527,365.391 106.458 C 365.348 106.390,364.909 106.333,364.414 106.333 L 363.515 106.333 363.453 105.125 L 363.391 103.917 363.404 105.167 M90.276 106.458 C 90.233 106.527,90.548 106.561,90.974 106.535 C 92.297 106.452,92.462 106.380,91.385 106.356 C 90.817 106.344,90.318 106.390,90.276 106.458 M122.292 106.454 C 122.590 106.491,123.077 106.491,123.375 106.454 C 123.673 106.417,123.429 106.387,122.833 106.387 C 122.237 106.387,121.994 106.417,122.292 106.454 M170.292 106.454 C 170.590 106.491,171.077 106.491,171.375 106.454 C 171.673 106.417,171.429 106.387,170.833 106.387 C 170.237 106.387,169.994 106.417,170.292 106.454 M206.292 106.454 C 206.590 106.491,207.077 106.491,207.375 106.454 C 207.673 106.417,207.429 106.387,206.833 106.387 C 206.237 106.387,205.994 106.417,206.292 106.454 M213.625 106.454 C 213.923 106.491,214.410 106.491,214.708 106.454 C 215.006 106.417,214.762 106.387,214.167 106.387 C 213.571 106.387,213.327 106.417,213.625 106.454 M279.833 106.428 C 280.393 106.553,281.630 106.575,281.558 106.458 C 281.515 106.390,281.054 106.342,280.532 106.353 C 280.010 106.363,279.696 106.397,279.833 106.428 M286.942 106.458 C 286.900 106.527,287.214 106.561,287.641 106.535 C 288.963 106.452,289.129 106.380,288.052 106.356 C 287.484 106.344,286.985 106.390,286.942 106.458 M330.458 106.454 C 330.756 106.491,331.244 106.491,331.542 106.454 C 331.840 106.417,331.596 106.387,331.000 106.387 C 330.404 106.387,330.160 106.417,330.458 106.454 M337.792 106.454 C 338.090 106.491,338.577 106.491,338.875 106.454 C 339.173 106.417,338.929 106.387,338.333 106.387 C 337.737 106.387,337.494 106.417,337.792 106.454 M370.776 106.458 C 370.733 106.527,371.048 106.561,371.474 106.535 C 372.797 106.452,372.962 106.380,371.885 106.356 C 371.317 106.344,370.818 106.390,370.776 106.458 M25.125 106.621 C 25.423 106.658,25.910 106.658,26.208 106.621 C 26.506 106.584,26.262 106.553,25.667 106.553 C 25.071 106.553,24.827 106.584,25.125 106.621 M30.377 106.620 C 30.631 106.658,31.006 106.657,31.211 106.617 C 31.416 106.578,31.208 106.546,30.750 106.548 C 30.292 106.549,30.124 106.581,30.377 106.620 M41.739 106.718 C 41.693 106.837,41.680 107.868,41.709 109.009 L 41.761 111.083 41.797 108.881 L 41.833 106.680 43.292 106.624 L 44.750 106.569 43.286 106.534 C 42.211 106.509,41.801 106.558,41.739 106.718 M48.583 106.605 C 49.777 106.729,51.130 106.740,51.058 106.625 C 51.015 106.556,50.329 106.512,49.532 106.527 C 48.735 106.541,48.308 106.577,48.583 106.605 M60.788 106.620 C 61.084 106.657,61.609 106.658,61.955 106.622 C 62.300 106.586,62.058 106.555,61.417 106.555 C 60.775 106.554,60.492 106.583,60.788 106.620 M66.211 106.620 C 66.464 106.658,66.839 106.657,67.044 106.617 C 67.249 106.578,67.042 106.546,66.583 106.548 C 66.125 106.549,65.957 106.581,66.211 106.620 M99.547 106.623 C 99.985 106.657,100.660 106.657,101.047 106.622 C 101.434 106.587,101.075 106.559,100.250 106.559 C 99.425 106.560,99.109 106.588,99.547 106.623 M104.912 106.703 C 104.866 106.821,104.849 109.693,104.873 113.084 L 104.917 119.250 106.042 119.262 L 107.168 119.275 106.084 119.213 L 105.000 119.151 105.000 112.909 L 105.000 106.667 106.495 106.667 L 107.990 106.667 108.044 108.792 L 108.098 110.917 108.091 108.750 L 108.083 106.583 106.539 106.535 C 105.395 106.500,104.973 106.543,104.912 106.703 M140.458 106.618 C 140.665 106.657,141.002 106.657,141.208 106.618 C 141.415 106.578,141.246 106.545,140.833 106.545 C 140.421 106.545,140.252 106.578,140.458 106.618 M149.458 106.621 C 149.756 106.658,150.244 106.658,150.542 106.621 C 150.840 106.584,150.596 106.553,150.000 106.553 C 149.404 106.553,149.160 106.584,149.458 106.621 M159.295 106.621 C 159.594 106.658,160.044 106.657,160.295 106.619 C 160.545 106.581,160.300 106.551,159.750 106.552 C 159.200 106.553,158.995 106.584,159.295 106.621 M183.963 106.622 C 184.355 106.657,184.955 106.657,185.296 106.621 C 185.637 106.585,185.317 106.557,184.583 106.557 C 183.850 106.558,183.571 106.587,183.963 106.622 M195.042 106.621 C 195.385 106.657,195.948 106.657,196.292 106.621 C 196.635 106.585,196.354 106.556,195.667 106.556 C 194.979 106.556,194.698 106.585,195.042 106.621 M237.375 106.621 C 237.719 106.657,238.281 106.657,238.625 106.621 C 238.969 106.585,238.688 106.556,238.000 106.556 C 237.313 106.556,237.031 106.585,237.375 106.621 M242.542 106.621 C 242.885 106.657,243.448 106.657,243.792 106.621 C 244.135 106.585,243.854 106.556,243.167 106.556 C 242.479 106.556,242.198 106.585,242.542 106.621 M244.958 106.621 C 245.256 106.658,245.744 106.658,246.042 106.621 C 246.340 106.584,246.096 106.553,245.500 106.553 C 244.904 106.553,244.660 106.584,244.958 106.621 M250.295 106.621 C 250.594 106.658,251.044 106.657,251.295 106.619 C 251.545 106.581,251.300 106.551,250.750 106.552 C 250.200 106.553,249.995 106.584,250.295 106.621 M254.795 106.621 C 255.094 106.658,255.544 106.657,255.795 106.619 C 256.045 106.581,255.800 106.551,255.250 106.552 C 254.700 106.553,254.495 106.584,254.795 106.621 M259.958 106.621 C 260.256 106.658,260.744 106.658,261.042 106.621 C 261.340 106.584,261.096 106.553,260.500 106.553 C 259.904 106.553,259.660 106.584,259.958 106.621 M304.708 106.621 C 305.052 106.657,305.615 106.657,305.958 106.621 C 306.302 106.585,306.021 106.556,305.333 106.556 C 304.646 106.556,304.365 106.585,304.708 106.621 M309.276 106.625 C 309.233 106.694,309.585 106.728,310.057 106.702 C 311.478 106.622,311.651 106.547,310.468 106.523 C 309.855 106.510,309.318 106.556,309.276 106.625 M315.213 106.623 C 315.652 106.657,316.327 106.657,316.713 106.622 C 317.100 106.587,316.742 106.559,315.917 106.559 C 315.092 106.560,314.775 106.588,315.213 106.623 M321.380 106.623 C 321.818 106.657,322.493 106.657,322.880 106.622 C 323.267 106.587,322.908 106.559,322.083 106.559 C 321.258 106.560,320.942 106.588,321.380 106.623 M349.788 106.620 C 350.084 106.657,350.609 106.658,350.955 106.622 C 351.300 106.586,351.058 106.555,350.417 106.555 C 349.775 106.554,349.492 106.583,349.788 106.620 M44.873 112.867 L 44.833 119.151 43.708 119.210 L 42.583 119.268 43.714 119.301 C 45.138 119.342,45.012 120.004,44.958 112.749 L 44.912 106.583 44.873 112.867 M147.548 108.750 C 147.549 109.208,147.581 109.376,147.620 109.123 C 147.658 108.869,147.657 108.494,147.617 108.289 C 147.578 108.084,147.546 108.292,147.548 108.750 M357.705 108.833 C 357.705 109.154,357.740 109.285,357.782 109.125 C 357.823 108.965,357.823 108.702,357.782 108.542 C 357.740 108.381,357.705 108.513,357.705 108.833 M38.548 109.583 C 38.549 110.042,38.581 110.209,38.620 109.956 C 38.658 109.703,38.657 109.328,38.617 109.123 C 38.578 108.918,38.546 109.125,38.548 109.583 M351.375 111.115 C 351.535 111.157,351.798 111.157,351.958 111.115 C 352.119 111.073,351.988 111.039,351.667 111.039 C 351.346 111.039,351.215 111.073,351.375 111.115 M77.717 112.667 C 77.717 113.171,77.748 113.377,77.786 113.125 C 77.824 112.873,77.824 112.460,77.786 112.208 C 77.748 111.956,77.717 112.162,77.717 112.667 M286.333 112.995 C 286.333 113.088,285.434 113.179,284.208 113.209 L 282.083 113.261 284.292 113.297 C 286.160 113.328,286.500 113.295,286.500 113.083 C 286.500 112.946,286.462 112.833,286.417 112.833 C 286.371 112.833,286.333 112.906,286.333 112.995 M119.083 113.167 L 116.917 113.265 119.032 113.299 C 120.300 113.320,121.188 113.267,121.250 113.167 C 121.307 113.075,121.330 113.015,121.302 113.034 C 121.273 113.053,120.275 113.112,119.083 113.167 M174.583 113.167 L 172.417 113.265 174.532 113.299 C 175.800 113.320,176.688 113.267,176.750 113.167 C 176.807 113.075,176.830 113.015,176.802 113.034 C 176.773 113.053,175.775 113.112,174.583 113.167 M208.480 113.214 C 208.552 113.285,209.542 113.323,210.680 113.296 L 212.750 113.249 210.549 113.166 C 209.339 113.121,208.408 113.142,208.480 113.214 M332.646 113.214 C 332.718 113.285,333.709 113.323,334.847 113.296 L 336.917 113.249 334.716 113.166 C 333.506 113.121,332.574 113.142,332.646 113.214 M368.083 113.167 L 365.917 113.265 368.032 113.299 C 369.300 113.320,370.188 113.267,370.250 113.167 C 370.307 113.075,370.330 113.015,370.302 113.034 C 370.273 113.053,369.275 113.112,368.083 113.167 M86.542 113.290 C 87.160 113.322,88.173 113.322,88.792 113.290 C 89.410 113.258,88.904 113.232,87.667 113.232 C 86.429 113.232,85.923 113.258,86.542 113.290 M264.883 116.000 C 264.883 116.504,264.915 116.710,264.953 116.458 C 264.991 116.206,264.991 115.794,264.953 115.542 C 264.915 115.290,264.883 115.496,264.883 116.000 M79.250 119.167 L 78.083 119.274 79.198 119.304 C 79.812 119.320,80.360 119.258,80.417 119.167 C 80.473 119.075,80.496 119.013,80.468 119.029 C 80.440 119.046,79.892 119.107,79.250 119.167 M206.442 119.208 C 206.485 119.277,206.925 119.333,207.419 119.333 L 208.319 119.333 208.379 120.584 L 208.439 121.834 208.428 120.542 L 208.417 119.250 207.391 119.167 C 206.827 119.121,206.400 119.140,206.442 119.208 M275.917 119.167 L 274.750 119.274 275.865 119.304 C 276.479 119.320,277.027 119.258,277.083 119.167 C 277.140 119.075,277.163 119.013,277.135 119.029 C 277.107 119.046,276.558 119.107,275.917 119.167 M330.609 119.208 C 330.652 119.277,331.091 119.333,331.586 119.333 L 332.486 119.333 332.546 120.584 L 332.606 121.834 332.595 120.542 L 332.583 119.250 331.557 119.167 C 330.993 119.121,330.566 119.140,330.609 119.208 M357.147 119.214 C 357.219 119.286,358.097 119.323,359.098 119.297 L 360.917 119.248 358.966 119.166 C 357.893 119.120,357.075 119.142,357.147 119.214 M25.121 119.287 C 25.417 119.324,25.942 119.324,26.288 119.288 C 26.634 119.252,26.392 119.222,25.750 119.221 C 25.108 119.221,24.825 119.250,25.121 119.287 M30.455 119.287 C 30.750 119.324,31.275 119.324,31.621 119.288 C 31.967 119.252,31.725 119.222,31.083 119.221 C 30.442 119.221,30.159 119.250,30.455 119.287 M48.455 119.287 C 48.750 119.324,49.275 119.324,49.621 119.288 C 49.967 119.252,49.725 119.222,49.083 119.221 C 48.442 119.221,48.159 119.250,48.455 119.287 M60.875 119.288 C 61.219 119.324,61.781 119.324,62.125 119.288 C 62.469 119.252,62.188 119.223,61.500 119.223 C 60.813 119.223,60.531 119.252,60.875 119.288 M66.463 119.289 C 66.855 119.324,67.455 119.324,67.796 119.288 C 68.137 119.252,67.817 119.223,67.083 119.224 C 66.350 119.224,66.071 119.254,66.463 119.289 M83.958 119.287 C 84.256 119.324,84.744 119.324,85.042 119.287 C 85.340 119.250,85.096 119.220,84.500 119.220 C 83.904 119.220,83.660 119.250,83.958 119.287 M90.125 119.287 C 90.423 119.324,90.910 119.324,91.208 119.287 C 91.506 119.250,91.263 119.220,90.667 119.220 C 90.071 119.220,89.827 119.250,90.125 119.287 M95.458 119.287 C 95.756 119.324,96.244 119.324,96.542 119.287 C 96.840 119.250,96.596 119.220,96.000 119.220 C 95.404 119.220,95.160 119.250,95.458 119.287 M100.121 119.287 C 100.417 119.324,100.942 119.324,101.288 119.288 C 101.634 119.252,101.392 119.222,100.750 119.221 C 100.108 119.221,99.825 119.250,100.121 119.287 M110.121 119.287 C 110.417 119.324,110.942 119.324,111.288 119.288 C 111.634 119.252,111.392 119.222,110.750 119.221 C 110.108 119.221,109.825 119.250,110.121 119.287 M115.458 119.287 C 115.756 119.324,116.244 119.324,116.542 119.287 C 116.840 119.250,116.596 119.220,116.000 119.220 C 115.404 119.220,115.160 119.250,115.458 119.287 M121.625 119.287 C 121.923 119.324,122.410 119.324,122.708 119.287 C 123.006 119.250,122.763 119.220,122.167 119.220 C 121.571 119.220,121.327 119.250,121.625 119.287 M126.792 119.287 C 127.090 119.324,127.577 119.324,127.875 119.287 C 128.173 119.250,127.929 119.220,127.333 119.220 C 126.737 119.220,126.494 119.250,126.792 119.287 M140.458 119.287 C 140.756 119.324,141.244 119.324,141.542 119.287 C 141.840 119.250,141.596 119.220,141.000 119.220 C 140.404 119.220,140.160 119.250,140.458 119.287 M165.621 119.287 C 165.917 119.324,166.442 119.324,166.788 119.288 C 167.134 119.252,166.892 119.222,166.250 119.221 C 165.608 119.221,165.325 119.250,165.621 119.287 M170.958 119.287 C 171.256 119.324,171.744 119.324,172.042 119.287 C 172.340 119.250,172.096 119.220,171.500 119.220 C 170.904 119.220,170.660 119.250,170.958 119.287 M177.125 119.287 C 177.423 119.324,177.910 119.324,178.208 119.287 C 178.506 119.250,178.262 119.220,177.667 119.220 C 177.071 119.220,176.827 119.250,177.125 119.287 M182.792 119.290 C 183.365 119.323,184.302 119.323,184.875 119.290 C 185.448 119.258,184.979 119.231,183.833 119.231 C 182.688 119.231,182.219 119.258,182.792 119.290 M189.129 119.289 C 189.521 119.324,190.121 119.324,190.463 119.288 C 190.804 119.252,190.483 119.223,189.750 119.224 C 189.017 119.224,188.737 119.254,189.129 119.289 M201.070 119.392 C 201.022 119.515,201.010 120.134,201.043 120.767 L 201.101 121.917 201.134 120.633 L 201.167 119.349 202.292 119.290 L 203.417 119.232 202.286 119.199 C 201.468 119.176,201.132 119.229,201.070 119.392 M212.570 119.392 C 212.522 119.515,212.510 120.134,212.543 120.767 L 212.601 121.917 212.634 120.633 L 212.667 119.349 213.708 119.290 L 214.750 119.231 213.703 119.199 C 212.955 119.176,212.632 119.231,212.570 119.392 M218.292 119.287 C 218.590 119.324,219.077 119.324,219.375 119.287 C 219.673 119.250,219.429 119.220,218.833 119.220 C 218.237 119.220,217.994 119.250,218.292 119.287 M231.463 119.289 C 231.855 119.324,232.455 119.324,232.796 119.288 C 233.137 119.252,232.817 119.223,232.083 119.224 C 231.350 119.224,231.071 119.254,231.463 119.289 M280.625 119.287 C 280.923 119.324,281.410 119.324,281.708 119.287 C 282.006 119.250,281.762 119.220,281.167 119.220 C 280.571 119.220,280.327 119.250,280.625 119.287 M286.792 119.287 C 287.090 119.324,287.577 119.324,287.875 119.287 C 288.173 119.250,287.929 119.220,287.333 119.220 C 286.737 119.220,286.494 119.250,286.792 119.287 M298.796 119.289 C 299.188 119.324,299.788 119.324,300.129 119.288 C 300.471 119.252,300.150 119.223,299.417 119.224 C 298.683 119.224,298.404 119.254,298.796 119.289 M315.237 119.392 C 315.189 119.515,315.177 120.134,315.209 120.767 L 315.268 121.917 315.301 120.633 L 315.333 119.349 316.458 119.290 L 317.583 119.232 316.453 119.199 C 315.635 119.176,315.299 119.229,315.237 119.392 M321.125 119.287 C 321.423 119.324,321.910 119.324,322.208 119.287 C 322.506 119.250,322.262 119.220,321.667 119.220 C 321.071 119.220,320.827 119.250,321.125 119.287 M325.237 119.392 C 325.189 119.515,325.177 120.134,325.209 120.767 L 325.268 121.917 325.301 120.633 L 325.333 119.349 326.458 119.290 L 327.583 119.232 326.453 119.199 C 325.635 119.176,325.299 119.229,325.237 119.392 M336.737 119.392 C 336.689 119.515,336.677 120.134,336.709 120.767 L 336.768 121.917 336.801 120.633 L 336.833 119.349 337.875 119.290 L 338.917 119.231 337.870 119.199 C 337.121 119.176,336.798 119.231,336.737 119.392 M350.285 119.288 L 351.320 119.348 351.379 120.591 L 351.439 121.834 351.428 120.542 L 351.417 119.250 350.333 119.239 L 349.250 119.227 350.285 119.288 M364.458 119.287 C 364.756 119.324,365.244 119.324,365.542 119.287 C 365.840 119.250,365.596 119.220,365.000 119.220 C 364.404 119.220,364.160 119.250,364.458 119.287 M370.625 119.287 C 370.923 119.324,371.410 119.324,371.708 119.287 C 372.006 119.250,371.762 119.220,371.167 119.220 C 370.571 119.220,370.327 119.250,370.625 119.287 M376.409 119.286 L 377.320 119.350 377.379 120.592 L 377.439 121.834 377.428 120.542 L 377.417 119.250 376.457 119.236 L 375.498 119.223 376.409 119.286 M157.127 119.618 C 157.334 119.658,157.634 119.656,157.794 119.615 C 157.953 119.573,157.783 119.540,157.417 119.542 C 157.050 119.544,156.920 119.578,157.127 119.618 M252.627 119.618 C 252.834 119.658,253.134 119.656,253.294 119.615 C 253.453 119.573,253.283 119.540,252.917 119.542 C 252.550 119.544,252.420 119.578,252.627 119.618 M264.872 121.333 C 264.872 121.654,264.906 121.785,264.948 121.625 C 264.990 121.465,264.990 121.202,264.948 121.042 C 264.906 120.881,264.872 121.013,264.872 121.333 " stroke="none" fill="#5f5f5f" fill-rule="evenodd"></path><path id="path4" d="M44.722 15.125 C 52.773 15.149,65.898 15.149,73.888 15.125 C 81.879 15.101,75.292 15.081,59.250 15.081 C 43.208 15.081,36.671 15.101,44.722 15.125 M168.792 15.125 C 179.631 15.149,197.369 15.149,208.208 15.125 C 219.048 15.101,210.179 15.082,188.500 15.082 C 166.821 15.082,157.952 15.101,168.792 15.125 M268.958 15.121 C 269.256 15.158,269.744 15.158,270.042 15.121 C 270.340 15.084,270.096 15.053,269.500 15.053 C 268.904 15.053,268.660 15.084,268.958 15.121 M362.375 15.119 C 362.627 15.158,363.040 15.158,363.292 15.119 C 363.544 15.081,363.337 15.050,362.833 15.050 C 362.329 15.050,362.123 15.081,362.375 15.119 M179.960 30.618 C 180.168 30.658,180.468 30.656,180.627 30.615 C 180.786 30.573,180.617 30.540,180.250 30.542 C 179.883 30.544,179.753 30.578,179.960 30.618 M210.294 30.618 C 210.501 30.658,210.801 30.656,210.960 30.615 C 211.120 30.573,210.950 30.540,210.583 30.542 C 210.217 30.544,210.086 30.578,210.294 30.618 M281.381 52.250 C 281.382 52.708,281.415 52.876,281.453 52.623 C 281.491 52.369,281.490 51.994,281.451 51.789 C 281.411 51.584,281.380 51.792,281.381 52.250 M182.042 57.115 C 182.202 57.157,182.465 57.157,182.625 57.115 C 182.785 57.073,182.654 57.039,182.333 57.039 C 182.012 57.039,181.881 57.073,182.042 57.115 M255.212 65.500 C 255.212 65.912,255.245 66.081,255.284 65.875 C 255.324 65.669,255.324 65.331,255.284 65.125 C 255.245 64.919,255.212 65.087,255.212 65.500 M56.042 75.453 C 56.294 75.491,56.706 75.491,56.958 75.453 C 57.210 75.415,57.004 75.383,56.500 75.383 C 55.996 75.383,55.790 75.415,56.042 75.453 M190.458 75.784 C 190.665 75.824,191.002 75.824,191.208 75.784 C 191.415 75.745,191.246 75.712,190.833 75.712 C 190.421 75.712,190.252 75.745,190.458 75.784 M200.960 75.785 C 201.168 75.824,201.468 75.823,201.627 75.781 C 201.786 75.739,201.617 75.707,201.250 75.709 C 200.883 75.711,200.753 75.745,200.960 75.785 M45.042 90.958 C 53.452 90.982,67.215 90.982,75.625 90.958 C 84.035 90.934,77.154 90.915,60.333 90.915 C 43.512 90.915,36.631 90.934,45.042 90.958 M182.542 90.958 C 190.402 90.982,203.265 90.982,211.125 90.958 C 218.985 90.934,212.554 90.915,196.833 90.915 C 181.112 90.915,174.681 90.934,182.542 90.958 M96.071 107.500 C 96.071 109.471,96.095 110.277,96.124 109.292 C 96.154 108.306,96.154 106.694,96.124 105.708 C 96.095 104.723,96.071 105.529,96.071 107.500 M148.890 105.250 C 148.891 105.983,148.920 106.263,148.956 105.871 C 148.991 105.479,148.990 104.879,148.954 104.537 C 148.919 104.196,148.890 104.517,148.890 105.250 M215.223 105.167 C 215.223 105.854,215.252 106.135,215.288 105.792 C 215.324 105.448,215.324 104.885,215.288 104.542 C 215.252 104.198,215.223 104.479,215.223 105.167 M279.556 105.167 C 279.556 105.854,279.585 106.135,279.621 105.792 C 279.657 105.448,279.657 104.885,279.621 104.542 C 279.585 104.198,279.556 104.479,279.556 105.167 M339.389 105.167 C 339.389 105.854,339.419 106.135,339.455 105.792 C 339.491 105.448,339.491 104.885,339.455 104.542 C 339.419 104.198,339.389 104.479,339.389 105.167 M29.902 109.583 C 29.902 111.233,29.927 111.886,29.958 111.033 C 29.988 110.181,29.988 108.831,29.957 108.033 C 29.927 107.236,29.902 107.933,29.902 109.583 M65.742 112.917 C 65.742 116.400,65.764 117.849,65.791 116.136 C 65.818 114.423,65.819 111.573,65.791 109.803 C 65.764 108.032,65.742 109.433,65.742 112.917 M163.907 111.333 C 163.907 113.946,163.930 115.015,163.958 113.708 C 163.986 112.402,163.986 110.265,163.958 108.958 C 163.930 107.652,163.907 108.721,163.907 111.333 M241.910 114.333 C 241.910 118.596,241.932 120.340,241.958 118.208 C 241.985 116.077,241.985 112.590,241.958 110.458 C 241.932 108.327,241.910 110.071,241.910 114.333 M51.065 108.917 C 51.065 110.108,51.092 110.574,51.124 109.951 C 51.156 109.329,51.156 108.354,51.123 107.785 C 51.091 107.216,51.064 107.725,51.065 108.917 M309.243 114.417 C 309.244 118.633,309.265 120.334,309.292 118.197 C 309.318 116.059,309.318 112.609,309.291 110.530 C 309.265 108.451,309.243 110.200,309.243 114.417 M349.795 111.121 C 350.094 111.158,350.544 111.157,350.795 111.119 C 351.045 111.081,350.800 111.051,350.250 111.052 C 349.700 111.053,349.495 111.084,349.795 111.121 M140.542 111.286 C 140.794 111.324,141.206 111.324,141.458 111.286 C 141.710 111.248,141.504 111.217,141.000 111.217 C 140.496 111.217,140.290 111.248,140.542 111.286 M263.042 115.121 C 263.385 115.157,263.948 115.157,264.292 115.121 C 264.635 115.085,264.354 115.056,263.667 115.056 C 262.979 115.056,262.698 115.085,263.042 115.121 M29.897 117.250 C 29.897 118.350,29.924 118.778,29.957 118.202 C 29.990 117.625,29.989 116.725,29.956 116.202 C 29.923 115.678,29.897 116.150,29.897 117.250 M50.224 120.583 C 50.224 121.317,50.254 121.596,50.289 121.204 C 50.324 120.812,50.324 120.212,50.288 119.871 C 50.252 119.529,50.223 119.850,50.224 120.583 M99.557 120.583 C 99.558 121.317,99.587 121.596,99.622 121.204 C 99.657 120.812,99.657 120.212,99.621 119.871 C 99.585 119.529,99.557 119.850,99.557 120.583 M128.390 120.583 C 128.391 121.317,128.420 121.596,128.456 121.204 C 128.491 120.812,128.490 120.212,128.454 119.871 C 128.419 119.529,128.390 119.850,128.390 120.583 " stroke="none" fill="#7c7c7c" fill-rule="evenodd"></path></g></svg>