<svg id="svg" version="1.1" xmlns="http://www.w3.org/2000/svg" xmlns:xlink="http://www.w3.org/1999/xlink" width="125" height="45" viewBox="0, 0, 400,129.77725674091442"><g id="svgg"><path id="path0" d="M269.667 15.166 C 264.970 15.286,264.190 15.464,263.106 16.664 C 261.781 18.130,261.727 19.457,261.954 44.768 L 262.083 59.119 264.583 58.475 C 270.693 56.902,272.813 56.719,276.000 57.490 C 278.681 58.139,280.393 58.487,280.943 58.493 L 281.469 58.500 281.457 53.458 C 281.441 47.111,281.883 45.059,283.702 43.023 C 285.499 41.012,290.459 43.444,300.529 51.275 C 302.516 52.819,305.066 54.767,306.196 55.603 C 316.795 63.441,326.002 70.270,336.917 78.392 C 354.713 91.634,353.029 90.853,363.751 90.841 C 371.949 90.832,373.260 90.323,374.075 86.833 C 374.427 85.327,374.455 20.866,374.105 19.250 C 373.323 15.646,371.991 15.103,364.166 15.201 C 358.009 15.278,357.005 15.580,355.756 17.731 C 354.738 19.484,354.742 19.427,354.833 32.417 C 355.004 56.628,354.969 58.196,354.212 60.583 C 353.111 64.058,350.582 64.262,345.500 61.284 C 343.833 60.307,338.840 56.801,333.583 52.916 C 332.942 52.441,331.254 51.202,329.833 50.161 C 327.035 48.112,319.341 42.373,307.250 33.318 C 285.729 17.201,284.780 16.561,281.120 15.678 C 279.805 15.361,275.548 14.962,274.250 15.035 C 273.975 15.050,271.912 15.109,269.667 15.166 M27.667 15.279 C 24.610 15.809,23.679 17.195,23.545 21.417 C 23.390 26.267,23.939 28.578,25.493 29.625 C 26.982 30.628,25.312 30.578,54.917 30.521 C 84.887 30.463,86.353 30.501,92.583 31.510 C 106.025 33.686,115.727 42.625,115.727 52.833 C 115.727 62.834,107.283 71.318,94.748 73.912 C 87.639 75.383,84.666 75.566,68.417 75.532 C 50.245 75.493,48.086 75.318,45.658 73.687 C 43.291 72.097,43.265 71.926,43.240 58.083 C 43.208 40.772,43.487 41.250,33.417 41.250 C 25.758 41.250,24.541 41.682,23.810 44.660 C 23.463 46.073,23.476 86.380,23.824 87.578 C 24.162 88.745,25.438 90.031,26.667 90.443 C 27.773 90.814,90.881 91.024,94.667 90.669 C 120.863 88.215,138.323 70.364,135.750 48.667 C 133.751 31.816,118.592 18.806,97.500 15.841 C 96.813 15.744,95.688 15.575,95.000 15.466 C 93.792 15.274,28.741 15.093,27.667 15.279 M146.833 15.280 C 144.479 15.684,143.261 16.844,142.849 19.078 C 142.592 20.466,142.592 85.463,142.849 86.937 C 143.073 88.224,143.752 89.339,144.659 89.912 C 146.213 90.893,143.758 90.844,188.289 90.791 L 229.083 90.743 231.061 90.370 C 235.452 89.542,238.288 88.623,241.660 86.935 C 253.697 80.909,258.224 69.081,253.180 56.833 C 250.835 51.141,250.828 50.216,253.080 44.333 C 255.975 36.768,256.107 33.232,253.679 28.333 C 250.074 21.062,244.284 17.199,234.500 15.536 C 233.000 15.281,148.270 15.034,146.833 15.280 M217.583 30.673 C 228.128 30.989,230.209 31.336,232.254 33.122 C 234.744 35.296,233.877 38.509,230.409 39.961 C 226.132 41.752,214.483 42.290,197.000 41.504 C 183.050 40.877,174.443 41.565,172.445 43.467 C 170.348 45.464,170.618 53.860,172.839 55.729 C 174.413 57.053,175.406 57.091,200.667 56.773 C 221.189 56.515,226.247 57.090,230.946 60.214 C 237.588 64.630,235.158 71.993,226.333 74.188 C 217.733 76.328,172.086 76.440,166.462 74.336 C 162.107 72.707,161.944 71.501,162.470 44.917 C 162.713 32.671,162.974 32.005,167.900 31.082 C 170.790 30.540,204.038 30.266,217.583 30.673 M18.500 113.000 L 18.500 126.000 201.000 126.000 L 383.500 126.000 383.500 113.000 L 383.500 100.000 201.000 100.000 L 18.500 100.000 18.500 113.000 M270.208 104.222 L 271.167 104.648 271.167 104.241 C 271.167 103.843,271.197 103.833,272.500 103.833 L 273.833 103.833 273.833 106.750 L 273.833 109.667 272.500 109.667 L 271.167 109.667 271.167 108.929 C 271.167 106.557,266.345 105.483,265.345 107.633 C 264.585 109.266,265.347 109.952,269.083 111.003 C 272.909 112.078,274.160 113.159,274.666 115.829 C 275.567 120.579,269.981 123.915,265.635 121.223 L 265.020 120.842 264.969 121.379 L 264.917 121.917 263.583 121.917 L 262.250 121.917 262.250 118.500 L 262.250 115.083 263.625 115.035 L 265.000 114.987 265.005 115.952 C 265.021 119.458,270.546 120.748,271.527 117.475 C 272.028 115.802,271.345 115.163,267.968 114.147 C 264.192 113.011,262.957 112.135,262.393 110.193 C 261.109 105.775,265.742 102.235,270.208 104.222 M35.401 104.344 C 38.749 105.516,39.785 111.022,37.154 113.654 C 36.142 114.665,35.142 114.995,32.424 115.211 L 30.000 115.404 30.000 117.285 L 30.000 119.167 31.083 119.167 L 32.167 119.167 32.167 120.583 L 32.167 122.000 28.417 122.000 L 24.667 122.000 24.667 120.583 L 24.667 119.167 25.667 119.167 L 26.667 119.167 26.667 112.917 L 26.667 106.667 25.667 106.667 L 24.667 106.667 24.667 105.319 L 24.667 103.971 29.708 104.043 C 33.384 104.096,34.926 104.178,35.401 104.344 M53.795 107.542 L 53.750 111.083 52.375 111.132 L 51.000 111.180 51.000 108.923 L 51.000 106.667 49.500 106.667 L 48.000 106.667 48.000 112.917 L 48.000 119.167 49.173 119.167 L 50.347 119.167 50.298 120.542 L 50.250 121.917 46.417 121.917 L 42.583 121.917 42.583 120.583 L 42.583 119.250 43.708 119.201 L 44.833 119.151 44.833 112.909 L 44.833 106.667 43.333 106.667 L 41.833 106.667 41.833 108.923 L 41.833 111.180 40.458 111.132 L 39.083 111.083 39.038 107.542 L 38.993 104.000 46.417 104.000 L 53.840 104.000 53.795 107.542 M71.083 104.175 C 75.913 104.870,78.717 109.607,77.593 115.173 C 76.483 120.668,73.444 122.125,63.417 121.967 L 60.250 121.917 60.202 120.542 L 60.153 119.167 61.327 119.167 L 62.500 119.167 62.500 112.917 L 62.500 106.667 61.333 106.667 L 60.167 106.667 60.167 105.333 L 60.167 104.000 65.042 104.003 C 67.723 104.005,70.442 104.082,71.083 104.175 M92.333 105.250 L 92.333 106.500 91.316 106.500 C 90.412 106.500,90.311 106.533,90.416 106.792 C 90.480 106.952,90.820 107.871,91.170 108.833 C 91.797 110.558,92.008 111.132,93.955 116.417 L 94.937 119.083 95.969 119.133 L 97.000 119.183 97.000 120.591 L 97.000 122.000 93.333 122.000 L 89.667 122.000 89.667 120.591 L 89.667 119.183 90.651 119.133 L 91.635 119.083 91.120 117.455 L 90.606 115.826 87.619 115.871 L 84.632 115.917 84.153 117.333 C 83.519 119.207,83.503 119.141,84.625 119.200 L 85.583 119.250 85.583 120.583 L 85.583 121.917 81.875 121.962 L 78.167 122.006 78.167 120.587 L 78.167 119.167 79.232 119.167 C 80.093 119.167,80.320 119.111,80.411 118.875 C 80.474 118.715,81.460 115.975,82.603 112.787 C 83.745 109.600,84.723 106.881,84.775 106.746 C 84.851 106.546,84.680 106.500,83.851 106.500 L 82.833 106.500 82.833 105.250 L 82.833 104.000 87.583 104.000 L 92.333 104.000 92.333 105.250 M110.667 107.583 L 110.667 111.167 109.333 111.167 L 108.000 111.167 108.000 108.917 L 108.000 106.667 106.500 106.667 L 105.000 106.667 105.000 112.909 L 105.000 119.151 106.125 119.201 L 107.250 119.250 107.250 120.583 L 107.250 121.917 103.417 121.917 L 99.583 121.917 99.535 120.542 L 99.487 119.167 100.662 119.167 L 101.837 119.167 101.794 112.958 L 101.750 106.750 100.297 106.702 L 98.843 106.654 98.797 108.869 L 98.750 111.083 97.375 111.132 L 96.000 111.180 96.000 107.590 L 96.000 104.000 103.333 104.000 L 110.667 104.000 110.667 107.583 M123.833 105.250 L 123.833 106.500 122.833 106.500 C 122.283 106.500,121.833 106.538,121.833 106.584 C 121.833 106.630,122.741 109.124,123.850 112.126 C 124.959 115.127,125.983 117.940,126.125 118.375 L 126.384 119.167 127.449 119.167 L 128.513 119.167 128.465 120.542 L 128.417 121.917 124.750 121.917 L 121.083 121.917 121.083 120.583 L 121.083 119.250 122.042 119.200 C 123.172 119.141,123.128 119.298,122.548 117.374 L 122.083 115.830 119.087 115.874 L 116.092 115.917 115.565 117.500 L 115.039 119.083 116.020 119.133 L 117.000 119.183 117.000 120.591 L 117.000 122.000 113.333 122.000 L 109.667 122.000 109.667 120.583 L 109.667 119.167 110.725 119.167 L 111.783 119.167 114.036 112.875 L 116.289 106.583 115.311 106.534 L 114.333 106.484 114.333 105.242 L 114.333 104.000 119.083 104.000 L 123.833 104.000 123.833 105.250 M144.960 104.399 C 147.720 105.585,148.541 109.649,146.468 111.868 C 146.041 112.325,146.013 112.411,146.249 112.543 C 148.352 113.720,149.143 116.661,147.981 118.986 C 146.761 121.428,144.520 122.080,137.750 121.967 L 134.750 121.917 134.702 120.542 L 134.653 119.167 135.743 119.167 L 136.833 119.167 136.833 112.917 L 136.833 106.667 135.750 106.667 L 134.667 106.667 134.667 105.320 L 134.667 103.973 139.458 104.034 C 143.644 104.087,144.340 104.133,144.960 104.399 M156.333 105.333 L 156.333 106.667 155.333 106.667 L 154.333 106.667 154.334 112.125 C 154.334 118.394,154.346 118.455,155.667 119.137 C 156.620 119.629,158.611 119.591,159.513 119.065 C 160.718 118.361,160.743 118.226,160.808 112.133 L 160.867 106.683 159.808 106.633 L 158.750 106.583 158.701 105.292 L 158.653 104.000 162.410 104.000 L 166.167 104.000 166.167 105.333 L 166.167 106.667 165.097 106.667 L 164.026 106.667 163.972 112.458 L 163.917 118.250 163.441 119.218 C 161.496 123.180,153.467 123.209,151.598 119.260 C 151.132 118.275,151.015 116.732,151.007 111.458 L 151.000 106.667 149.917 106.667 L 148.833 106.667 148.833 105.333 L 148.833 104.000 152.583 104.000 L 156.333 104.000 156.333 105.333 M179.333 105.250 L 179.333 106.500 178.321 106.500 C 177.557 106.500,177.322 106.555,177.363 106.724 C 177.392 106.848,178.429 109.697,179.667 113.057 L 181.917 119.165 183.875 119.166 L 185.833 119.167 185.833 112.917 L 185.833 106.667 184.583 106.667 L 183.333 106.667 183.333 105.333 L 183.333 104.000 186.542 104.001 L 189.750 104.002 190.062 104.543 C 190.234 104.840,191.741 107.521,193.410 110.500 C 195.080 113.479,196.531 116.067,196.635 116.250 C 196.778 116.504,196.824 115.402,196.828 111.625 L 196.833 106.667 195.667 106.667 L 194.500 106.667 194.500 105.333 L 194.500 104.000 198.333 104.000 L 202.167 104.000 202.167 105.333 L 202.167 106.667 200.833 106.667 L 199.500 106.667 199.500 114.423 L 199.500 122.179 197.962 122.131 L 196.424 122.083 195.525 120.500 C 195.031 119.629,193.282 116.520,191.639 113.590 C 189.996 110.660,188.618 108.229,188.576 108.187 C 188.534 108.145,188.500 110.599,188.500 113.639 L 188.500 119.167 189.750 119.167 L 191.000 119.167 191.000 120.585 L 191.000 122.004 183.792 121.960 L 176.583 121.917 176.535 120.542 L 176.487 119.167 177.507 119.167 L 178.526 119.167 178.412 118.647 C 178.350 118.361,178.131 117.630,177.926 117.022 L 177.553 115.917 174.566 115.871 L 171.579 115.826 171.063 117.455 L 170.547 119.083 171.524 119.133 L 172.500 119.183 172.500 120.594 L 172.500 122.006 168.792 121.962 L 165.083 121.917 165.035 120.542 L 164.987 119.167 166.124 119.167 L 167.262 119.167 168.657 115.292 C 169.424 113.160,170.370 110.517,170.760 109.417 C 171.150 108.317,171.549 107.210,171.647 106.958 L 171.825 106.500 170.829 106.500 L 169.833 106.500 169.833 105.250 L 169.833 104.000 174.583 104.000 L 179.333 104.000 179.333 105.250 M215.333 105.250 L 215.333 106.500 214.333 106.500 C 213.097 106.500,212.995 105.885,215.253 112.028 C 216.309 114.900,217.329 117.678,217.520 118.201 L 217.868 119.152 218.893 119.201 L 219.917 119.250 219.917 120.583 L 219.917 121.917 216.250 121.917 L 212.583 121.917 212.535 120.542 L 212.487 119.167 213.493 119.167 C 214.669 119.167,214.635 119.288,214.002 117.402 C 213.728 116.585,213.503 115.898,213.502 115.875 C 213.501 115.852,212.165 115.833,210.534 115.833 L 207.569 115.833 207.095 117.292 C 206.835 118.094,206.586 118.844,206.543 118.958 C 206.485 119.111,206.738 119.167,207.489 119.167 L 208.513 119.167 208.465 120.542 L 208.417 121.917 204.750 121.917 L 201.083 121.917 201.035 120.542 L 200.987 119.167 202.118 119.165 L 203.250 119.163 205.461 112.957 C 208.045 105.705,207.886 106.500,206.750 106.500 L 205.833 106.500 205.833 105.250 L 205.833 104.000 210.583 104.000 L 215.333 104.000 215.333 105.250 M232.676 104.958 C 232.974 105.485,233.366 106.179,233.546 106.500 C 233.727 106.821,234.192 107.646,234.579 108.333 C 234.967 109.021,235.514 109.996,235.793 110.500 C 237.484 113.548,239.045 116.272,239.181 116.411 C 239.280 116.512,239.322 114.750,239.294 111.661 L 239.250 106.750 238.042 106.701 L 236.833 106.652 236.833 105.326 L 236.833 104.000 244.333 104.000 L 251.833 104.000 251.833 105.333 L 251.833 106.667 250.750 106.667 L 249.667 106.667 249.667 111.561 C 249.667 118.910,250.009 119.676,253.204 119.473 C 256.050 119.292,256.166 119.002,256.166 112.125 L 256.167 106.667 255.167 106.667 L 254.167 106.667 254.167 105.333 L 254.167 104.000 257.917 104.000 L 261.667 104.000 261.667 105.333 L 261.667 106.667 260.598 106.667 L 259.530 106.667 259.465 112.292 C 259.394 118.388,259.359 118.640,258.411 120.008 C 256.689 122.492,250.881 122.961,248.292 120.824 C 246.700 119.512,246.500 118.506,246.500 111.803 L 246.500 106.667 244.252 106.667 L 242.003 106.667 241.960 114.375 L 241.917 122.083 240.395 122.131 L 238.873 122.179 238.499 121.548 C 238.293 121.201,236.551 118.104,234.628 114.667 C 232.705 111.229,231.065 108.345,230.983 108.258 C 230.895 108.165,230.833 110.370,230.833 113.633 L 230.833 119.167 232.083 119.167 L 233.333 119.167 233.333 120.586 L 233.333 122.006 229.542 121.961 L 225.750 121.917 225.702 120.542 L 225.653 119.167 226.910 119.167 L 228.167 119.167 228.167 112.917 L 228.167 106.667 226.917 106.667 L 225.667 106.667 225.667 105.333 L 225.667 104.000 228.901 104.000 L 232.135 104.000 232.676 104.958 M289.000 105.250 L 289.000 106.500 287.982 106.500 C 287.237 106.500,286.986 106.556,287.044 106.708 C 287.087 106.823,287.700 108.492,288.405 110.417 C 289.803 114.236,290.656 116.536,291.248 118.083 L 291.631 119.083 293.565 119.130 L 295.500 119.177 295.500 112.922 L 295.500 106.667 294.250 106.667 L 293.000 106.667 293.000 105.330 L 293.000 103.993 296.264 104.038 L 299.528 104.083 300.782 106.333 C 302.551 109.508,306.361 116.236,306.437 116.319 C 306.472 116.358,306.500 114.201,306.500 111.528 L 306.500 106.667 305.333 106.667 L 304.167 106.667 304.167 105.333 L 304.167 104.000 315.250 104.000 L 326.333 104.000 326.333 107.583 L 326.333 111.167 325.005 111.167 L 323.676 111.167 323.630 108.958 L 323.583 106.750 322.125 106.702 L 320.667 106.654 320.667 112.910 L 320.667 119.167 321.750 119.167 L 322.833 119.167 322.833 120.586 L 322.833 122.006 319.042 121.961 L 315.250 121.917 315.202 120.542 L 315.153 119.167 316.243 119.167 L 317.333 119.167 317.333 112.917 L 317.333 106.667 315.922 106.667 L 314.510 106.667 314.463 108.875 L 314.417 111.083 313.042 111.132 L 311.667 111.180 311.667 108.923 L 311.667 106.667 310.502 106.667 L 309.337 106.667 309.293 114.375 L 309.250 122.083 307.833 122.126 C 306.004 122.181,306.557 122.870,302.241 115.163 C 300.163 111.452,298.433 108.385,298.398 108.347 C 298.362 108.309,298.333 110.728,298.333 113.722 L 298.333 119.167 299.500 119.167 L 300.667 119.167 300.667 120.583 L 300.667 122.000 293.500 122.000 L 286.333 122.000 286.333 120.591 L 286.333 119.183 287.310 119.133 L 288.286 119.083 287.779 117.455 L 287.271 115.826 284.272 115.871 L 281.273 115.917 280.743 117.542 L 280.213 119.167 281.190 119.167 L 282.167 119.167 282.167 120.583 L 282.167 122.000 278.500 122.000 L 274.833 122.000 274.833 120.583 L 274.833 119.167 275.900 119.167 C 276.913 119.167,276.976 119.143,277.132 118.708 C 277.649 117.265,280.610 109.041,281.016 107.917 C 281.281 107.183,281.499 106.565,281.499 106.542 C 281.500 106.519,281.050 106.500,280.500 106.500 L 279.500 106.500 279.500 105.250 L 279.500 104.000 284.250 104.000 L 289.000 104.000 289.000 105.250 M339.500 105.250 L 339.500 106.500 338.500 106.500 C 337.264 106.500,337.105 105.694,339.773 112.958 L 342.053 119.167 344.027 119.167 L 346.000 119.167 346.000 112.917 L 346.000 106.667 344.833 106.667 L 343.667 106.667 343.667 105.319 L 343.667 103.972 348.958 104.030 C 354.056 104.087,354.281 104.103,355.103 104.472 C 358.719 106.097,358.745 111.190,355.146 113.024 L 354.375 113.417 355.802 116.292 L 357.229 119.167 359.009 119.167 L 360.788 119.167 361.076 118.375 C 361.700 116.662,363.360 112.044,364.418 109.083 C 364.810 107.983,365.185 106.952,365.250 106.792 C 365.356 106.533,365.255 106.500,364.351 106.500 L 363.333 106.500 363.333 105.250 L 363.333 104.000 368.083 104.000 L 372.833 104.000 372.833 105.250 L 372.833 106.500 371.833 106.500 C 371.283 106.500,370.833 106.531,370.833 106.569 C 370.833 106.607,371.065 107.263,371.348 108.027 C 371.631 108.792,372.110 110.092,372.413 110.917 C 372.716 111.742,373.229 113.129,373.553 114.000 C 373.877 114.871,374.429 116.389,374.780 117.373 L 375.417 119.163 376.465 119.165 L 377.513 119.167 377.465 120.542 L 377.417 121.917 373.792 121.962 L 370.167 122.007 370.167 120.595 L 370.167 119.183 371.132 119.133 L 372.097 119.083 371.595 117.455 L 371.093 115.826 368.103 115.871 L 365.113 115.917 364.568 117.542 L 364.024 119.167 365.012 119.167 L 366.000 119.167 366.000 120.583 L 366.000 122.000 360.609 122.000 L 355.218 122.000 353.235 117.917 L 351.252 113.833 350.292 113.833 L 349.333 113.833 349.333 116.500 L 349.333 119.167 350.423 119.167 L 351.513 119.167 351.465 120.542 L 351.417 121.917 344.083 121.917 L 336.750 121.917 336.702 120.542 L 336.653 119.167 337.660 119.167 C 338.214 119.167,338.667 119.106,338.667 119.032 C 338.667 118.887,338.081 117.037,337.800 116.292 L 337.626 115.833 334.666 115.833 L 331.706 115.833 331.264 117.252 C 331.020 118.032,330.778 118.782,330.726 118.919 C 330.648 119.122,330.817 119.167,331.656 119.167 L 332.680 119.167 332.632 120.542 L 332.583 121.917 328.917 121.917 L 325.250 121.917 325.202 120.542 L 325.153 119.167 326.233 119.167 C 327.490 119.167,327.335 119.337,328.153 117.050 C 328.507 116.060,329.480 113.351,330.315 111.029 C 332.110 106.039,332.049 106.500,330.917 106.500 L 330.000 106.500 330.000 105.250 L 330.000 104.000 334.750 104.000 L 339.500 104.000 339.500 105.250 M30.000 109.598 L 30.000 112.529 31.792 112.472 C 34.623 112.380,35.376 111.796,35.388 109.683 C 35.401 107.379,34.470 106.680,31.375 106.671 L 30.000 106.667 30.000 109.598 M65.833 112.917 L 65.833 119.167 67.292 119.165 C 72.666 119.161,74.639 117.312,74.470 112.439 C 74.324 108.198,72.383 106.667,67.155 106.667 L 65.833 106.667 65.833 112.917 M140.000 108.896 L 140.000 111.167 141.292 111.157 C 143.433 111.142,144.258 110.634,144.448 109.217 C 144.661 107.629,143.678 106.823,141.375 106.699 L 140.000 106.625 140.000 108.896 M349.333 108.851 L 349.333 111.035 351.330 110.976 C 353.795 110.903,354.329 110.560,354.461 108.962 C 354.601 107.278,353.650 106.669,350.875 106.668 L 349.333 106.667 349.333 108.851 M173.617 109.740 C 173.093 111.339,172.619 112.764,172.564 112.907 C 172.477 113.134,172.733 113.167,174.583 113.167 C 176.209 113.167,176.684 113.118,176.625 112.958 C 176.583 112.844,176.120 111.419,175.596 109.792 C 175.073 108.165,174.628 106.833,174.608 106.833 C 174.587 106.833,174.142 108.141,173.617 109.740 M209.534 109.922 C 208.965 111.646,208.528 113.083,208.561 113.117 C 208.594 113.150,209.522 113.156,210.623 113.130 L 212.624 113.083 211.722 110.250 C 211.225 108.692,210.762 107.275,210.693 107.103 C 210.602 106.877,210.276 107.671,209.534 109.922 M333.703 109.914 C 333.130 111.638,332.689 113.078,332.724 113.113 C 332.760 113.149,333.690 113.156,334.791 113.130 L 336.794 113.083 335.770 109.931 L 334.746 106.779 333.703 109.914 M86.621 109.880 C 86.096 111.464,85.667 112.852,85.667 112.963 C 85.667 113.112,86.209 113.167,87.686 113.167 C 89.529 113.167,89.699 113.141,89.625 112.875 C 89.270 111.585,87.744 107.000,87.670 107.000 C 87.618 107.000,87.147 108.296,86.621 109.880 M118.044 110.031 L 117.041 113.083 119.043 113.130 C 120.144 113.156,121.071 113.151,121.103 113.119 C 121.183 113.039,119.333 107.284,119.174 107.115 C 119.104 107.040,118.595 108.353,118.044 110.031 M283.220 110.083 L 282.195 113.167 284.277 113.167 C 285.960 113.167,286.347 113.123,286.304 112.937 C 286.132 112.206,284.402 107.001,284.331 107.001 C 284.283 107.000,283.783 108.388,283.220 110.083 M367.055 110.079 L 366.029 113.167 368.098 113.167 C 369.236 113.167,370.167 113.132,370.167 113.090 C 370.167 113.048,369.792 111.860,369.333 110.449 C 368.875 109.038,368.500 107.812,368.500 107.724 C 368.500 107.636,368.406 107.435,368.290 107.277 C 368.111 107.032,367.934 107.433,367.055 110.079 M140.111 113.944 C 140.050 114.006,140.000 115.206,140.000 116.611 L 140.000 119.167 141.343 119.167 C 143.897 119.167,145.038 118.554,145.262 117.064 C 145.547 115.162,144.680 114.235,142.389 113.994 C 140.613 113.807,140.256 113.800,140.111 113.944 " stroke="none" fill="#f9fbf7" fill-rule="evenodd"></path><path id="path1" d="M0.000 64.833 L 0.000 129.667 200.000 129.667 L 400.000 129.667 400.000 64.833 L 400.000 0.000 200.000 0.000 L 0.000 0.000 0.000 64.833 M94.583 15.299 C 95.317 15.408,96.517 15.579,97.250 15.680 C 98.380 15.836,99.428 16.030,102.333 16.621 C 113.590 18.908,124.575 25.719,130.350 33.992 C 135.096 40.791,137.191 50.404,135.663 58.372 C 135.570 58.855,135.415 59.663,135.317 60.167 C 132.524 74.628,118.452 86.679,100.500 89.985 C 94.868 91.022,96.004 90.993,60.667 90.994 C 26.211 90.995,27.517 91.026,25.858 90.179 C 24.959 89.720,24.092 88.690,23.729 87.648 C 23.254 86.283,23.242 45.969,23.716 44.473 C 24.607 41.662,25.808 41.190,32.417 41.050 C 39.418 40.903,41.417 41.461,42.557 43.879 C 43.313 45.485,43.379 46.620,43.406 58.667 C 43.446 76.504,41.693 75.317,68.083 75.381 C 83.133 75.418,83.912 75.393,89.083 74.727 C 102.026 73.061,109.390 68.837,113.741 60.583 C 120.071 48.577,109.863 34.353,93.000 31.683 C 86.566 30.664,86.684 30.667,55.924 30.661 C 26.699 30.654,27.112 30.664,25.719 29.944 C 23.963 29.036,23.195 26.220,23.376 21.356 C 23.535 17.110,24.555 15.681,27.833 15.113 C 28.894 14.929,93.294 15.109,94.583 15.299 M234.167 15.376 C 241.937 16.606,246.566 18.854,250.414 23.265 C 255.462 29.053,256.665 34.755,254.258 41.483 C 254.041 42.088,253.662 43.108,253.415 43.750 C 251.049 49.891,250.996 51.202,252.923 55.886 C 255.159 61.323,255.416 62.476,255.284 66.495 C 254.848 79.752,244.958 88.870,228.969 90.755 C 225.855 91.122,148.096 91.116,146.536 90.748 C 144.460 90.259,143.460 89.420,142.893 87.692 C 142.412 86.229,142.410 19.769,142.890 18.333 C 143.469 16.603,144.455 15.731,146.342 15.282 C 148.041 14.878,231.583 14.967,234.167 15.376 M279.603 15.254 C 282.036 15.671,284.060 16.411,286.059 17.613 C 287.653 18.572,294.285 23.461,312.996 37.469 C 318.178 41.348,322.604 44.662,322.833 44.833 C 323.300 45.183,326.590 47.616,329.000 49.394 C 329.871 50.037,331.408 51.172,332.417 51.917 C 336.184 54.701,343.264 59.751,344.530 60.558 C 349.009 63.413,352.041 63.985,353.301 62.211 C 354.689 60.258,354.998 56.758,354.809 45.167 C 354.409 20.597,354.499 18.794,356.226 16.882 C 357.641 15.316,359.066 15.005,364.833 15.005 C 372.362 15.005,373.832 15.789,374.349 20.081 C 374.695 22.944,374.459 86.277,374.099 87.379 C 373.097 90.446,371.529 90.994,363.750 90.997 C 353.930 91.000,353.337 90.780,343.583 83.505 C 341.200 81.728,337.975 79.326,336.417 78.167 C 334.858 77.009,332.121 74.974,330.333 73.645 C 323.886 68.851,318.410 64.787,314.083 61.584 C 313.075 60.837,311.050 59.338,309.583 58.253 C 306.817 56.205,301.624 52.289,300.518 51.417 C 291.195 44.064,285.824 41.348,283.919 43.020 C 282.159 44.566,281.597 47.087,281.573 53.542 C 281.563 56.269,281.507 58.548,281.449 58.607 C 281.309 58.747,279.085 58.393,277.500 57.979 C 273.022 56.811,271.023 56.891,265.083 58.477 C 264.075 58.746,262.944 59.016,262.569 59.076 L 261.888 59.187 261.782 40.052 C 261.653 16.763,261.640 16.894,264.083 15.742 C 265.721 14.971,276.054 14.645,279.603 15.254 M171.000 30.851 C 162.435 31.457,162.616 30.960,162.407 54.417 C 162.216 75.823,161.470 74.973,180.917 75.502 C 201.270 76.056,221.065 75.398,226.583 73.986 C 234.854 71.868,237.304 64.875,231.274 60.598 C 227.914 58.216,224.826 57.432,217.167 57.016 C 210.614 56.659,207.199 56.644,195.529 56.918 C 175.227 57.394,173.665 57.273,172.189 55.110 C 170.400 52.489,170.516 44.918,172.371 43.316 C 174.524 41.456,182.070 40.804,195.417 41.325 C 218.543 42.227,227.262 41.761,231.250 39.412 C 233.840 37.886,234.350 35.428,232.472 33.531 C 230.704 31.746,229.220 31.337,223.167 30.972 C 219.362 30.743,174.021 30.637,171.000 30.851 M275.000 66.366 C 283.873 68.503,287.493 79.488,281.669 86.600 C 275.924 93.615,264.483 92.348,260.584 84.265 C 255.819 74.386,264.345 63.799,275.000 66.366 M383.667 112.917 L 383.667 126.000 201.000 126.000 L 18.333 126.000 18.333 112.917 L 18.333 99.833 201.000 99.833 L 383.667 99.833 383.667 112.917 M265.889 103.983 C 261.863 105.021,261.003 110.687,264.559 112.738 C 265.228 113.124,266.170 113.466,269.185 114.415 C 271.568 115.166,272.314 116.447,271.368 118.163 C 269.922 120.783,264.833 119.108,264.833 116.011 L 264.833 115.167 263.583 115.167 L 262.333 115.167 262.333 118.500 L 262.333 121.833 263.583 121.833 L 264.833 121.833 264.833 121.361 C 264.833 120.697,264.975 120.626,265.526 121.019 C 268.385 123.054,272.841 121.952,274.204 118.871 C 275.617 115.676,273.890 112.551,270.083 111.417 C 265.948 110.185,265.773 110.114,265.376 109.517 C 263.883 107.271,267.238 105.374,269.946 106.933 C 270.945 107.507,271.333 108.069,271.333 108.939 L 271.333 109.667 272.583 109.667 L 273.833 109.667 273.833 106.833 L 273.833 104.000 272.583 104.000 C 271.361 104.000,271.333 104.009,271.333 104.417 C 271.333 104.927,271.383 104.928,270.315 104.392 C 269.367 103.916,266.998 103.697,265.889 103.983 M24.667 105.250 L 24.667 106.500 25.750 106.500 L 26.833 106.500 26.833 112.917 L 26.833 119.333 25.750 119.333 L 24.667 119.333 24.667 120.583 L 24.667 121.833 28.417 121.833 L 32.167 121.833 32.167 120.583 L 32.167 119.333 31.000 119.333 L 29.833 119.333 29.833 117.272 L 29.833 115.211 31.958 115.126 C 36.692 114.938,38.415 113.459,38.415 109.583 C 38.415 104.979,36.658 104.002,28.375 104.000 L 24.667 104.000 24.667 105.250 M39.167 107.500 L 39.167 111.000 40.412 111.000 L 41.657 111.000 41.703 108.792 L 41.750 106.583 43.333 106.583 L 44.917 106.583 44.917 112.917 L 44.917 119.250 43.792 119.299 L 42.667 119.349 42.667 120.591 L 42.667 121.833 46.417 121.833 L 50.167 121.833 50.167 120.591 L 50.167 119.349 49.042 119.299 L 47.917 119.250 47.917 112.917 L 47.917 106.583 49.542 106.536 L 51.167 106.488 51.167 108.744 L 51.167 111.000 52.417 111.000 L 53.667 111.000 53.667 107.500 L 53.667 104.000 46.417 104.000 L 39.167 104.000 39.167 107.500 M60.333 105.231 L 60.333 106.500 61.500 106.500 L 62.667 106.500 62.667 112.917 L 62.667 119.333 61.500 119.333 L 60.333 119.333 60.333 120.583 L 60.333 121.833 64.375 121.833 C 72.155 121.832,74.826 121.002,76.442 118.083 C 78.307 114.716,77.992 109.271,75.792 106.833 C 73.690 104.506,72.473 104.179,65.458 104.053 L 60.333 103.962 60.333 105.231 M83.000 105.167 L 83.000 106.333 84.000 106.333 C 84.550 106.333,85.000 106.353,85.000 106.378 C 85.000 106.503,81.880 115.232,80.846 118.000 L 80.379 119.250 79.273 119.299 L 78.167 119.349 78.167 120.591 L 78.167 121.833 81.833 121.833 L 85.500 121.833 85.500 120.583 L 85.500 119.333 84.500 119.333 C 83.304 119.333,83.314 119.379,84.059 117.250 L 84.583 115.750 87.638 115.750 L 90.693 115.750 91.178 117.250 C 91.861 119.363,91.868 119.333,90.667 119.333 L 89.667 119.333 89.667 120.583 L 89.667 121.833 93.250 121.833 L 96.833 121.833 96.833 120.583 L 96.833 119.333 95.874 119.333 L 94.915 119.333 94.559 118.375 C 93.420 115.311,92.925 113.965,91.999 111.417 C 91.433 109.858,90.789 108.121,90.568 107.555 C 90.347 106.989,90.167 106.483,90.167 106.430 C 90.167 106.377,90.617 106.333,91.167 106.333 L 92.167 106.333 92.167 105.167 L 92.167 104.000 87.583 104.000 L 83.000 104.000 83.000 105.167 M96.167 107.500 L 96.167 111.000 97.417 111.000 L 98.667 111.000 98.667 108.750 L 98.667 106.500 100.250 106.500 L 101.833 106.500 101.833 112.917 L 101.833 119.333 100.750 119.333 L 99.667 119.333 99.667 120.583 L 99.667 121.833 103.417 121.833 L 107.167 121.833 107.167 120.583 L 107.167 119.333 105.998 119.333 L 104.829 119.333 104.873 112.958 L 104.917 106.583 106.500 106.583 L 108.083 106.583 108.130 108.792 L 108.176 111.000 109.422 111.000 L 110.667 111.000 110.667 107.500 L 110.667 104.000 103.417 104.000 L 96.167 104.000 96.167 107.500 M114.500 105.167 L 114.500 106.333 115.389 106.333 C 116.589 106.333,116.589 106.149,115.379 109.464 C 114.787 111.088,114.240 112.604,114.165 112.833 C 113.850 113.788,112.347 117.970,112.083 118.625 L 111.797 119.333 110.732 119.333 L 109.667 119.333 109.667 120.583 L 109.667 121.833 113.333 121.833 L 117.000 121.833 117.000 120.583 L 117.000 119.333 116.000 119.333 C 114.795 119.333,114.803 119.371,115.525 117.227 L 116.050 115.667 119.098 115.667 L 122.145 115.667 122.656 117.299 C 123.324 119.436,123.349 119.333,122.167 119.333 L 121.167 119.333 121.167 120.583 L 121.167 121.833 124.750 121.833 L 128.333 121.833 128.333 120.583 L 128.333 119.333 127.355 119.333 L 126.378 119.333 125.840 117.875 C 125.544 117.073,125.046 115.723,124.732 114.876 C 124.419 114.028,123.908 112.641,123.595 111.792 C 123.283 110.944,122.765 109.537,122.443 108.667 C 121.496 106.106,121.467 106.333,122.739 106.333 L 123.833 106.333 123.833 105.167 L 123.833 104.000 119.167 104.000 L 114.500 104.000 114.500 105.167 M134.833 105.242 L 134.833 106.484 135.875 106.534 L 136.917 106.583 136.917 112.917 L 136.917 119.250 135.875 119.300 L 134.833 119.349 134.833 120.591 L 134.833 121.833 138.735 121.833 C 142.954 121.833,144.571 121.642,145.860 120.989 C 149.161 119.318,149.280 114.464,146.067 112.562 C 145.768 112.385,145.781 112.344,146.307 111.838 C 147.938 110.266,147.926 107.245,146.282 105.527 C 145.073 104.263,143.715 104.000,138.405 104.000 L 134.833 104.000 134.833 105.242 M149.000 105.250 L 149.000 106.500 150.069 106.500 L 151.138 106.500 151.196 112.375 L 151.254 118.250 151.744 119.222 C 153.759 123.218,161.567 123.016,163.505 118.917 C 163.691 118.522,163.754 117.161,163.800 112.458 L 163.859 106.500 164.930 106.500 L 166.000 106.500 166.000 105.250 L 166.000 104.000 162.417 104.000 L 158.833 104.000 158.833 105.250 L 158.833 106.500 159.833 106.500 L 160.833 106.500 160.833 112.005 C 160.833 118.019,160.793 118.317,159.888 118.961 C 158.708 119.801,156.321 119.822,155.170 119.002 C 154.203 118.314,154.167 118.063,154.167 112.016 L 154.167 106.500 155.167 106.500 L 156.167 106.500 156.167 105.250 L 156.167 104.000 152.583 104.000 L 149.000 104.000 149.000 105.250 M170.000 105.167 L 170.000 106.333 170.917 106.333 C 172.017 106.333,172.014 106.322,171.320 108.197 C 171.037 108.959,170.693 109.921,170.554 110.333 C 170.305 111.072,169.346 113.735,168.212 116.833 C 167.893 117.704,167.579 118.604,167.513 118.833 C 167.403 119.217,167.306 119.254,166.280 119.299 L 165.167 119.349 165.167 120.591 L 165.167 121.833 168.750 121.833 L 172.333 121.833 172.333 120.583 L 172.333 119.333 171.444 119.333 C 170.273 119.333,170.293 119.410,170.953 117.411 L 171.529 115.667 174.581 115.667 L 177.634 115.667 178.150 117.307 C 178.822 119.440,178.847 119.333,177.667 119.333 L 176.667 119.333 176.667 120.583 L 176.667 121.833 183.833 121.833 L 191.000 121.833 191.000 120.590 L 191.000 119.347 189.708 119.299 L 188.417 119.250 188.373 113.504 C 188.323 106.993,188.242 107.236,189.628 109.750 C 190.084 110.575,190.625 111.550,190.832 111.917 C 191.038 112.283,191.525 113.146,191.913 113.833 C 192.301 114.521,192.847 115.496,193.126 116.000 C 193.406 116.504,194.269 118.042,195.045 119.417 L 196.455 121.917 197.978 121.965 L 199.500 122.013 199.500 114.256 L 199.500 106.500 200.750 106.500 L 202.000 106.500 202.000 105.250 L 202.000 104.000 198.250 104.000 L 194.500 104.000 194.500 105.250 L 194.500 106.500 195.750 106.500 L 197.000 106.500 197.000 111.687 C 197.000 116.279,196.971 116.850,196.750 116.667 C 196.612 116.553,196.500 116.404,196.500 116.337 C 196.500 116.270,196.139 115.585,195.697 114.816 C 195.255 114.046,194.626 112.929,194.299 112.333 C 193.973 111.737,193.490 110.871,193.228 110.407 C 192.965 109.943,192.050 108.312,191.195 106.782 L 189.640 104.000 186.487 104.000 L 183.333 104.000 183.333 105.243 L 183.333 106.486 184.625 106.535 L 185.917 106.583 185.917 112.917 L 185.917 119.250 183.897 119.297 L 181.878 119.343 181.700 118.880 C 181.214 117.615,179.898 114.054,178.757 110.917 C 178.057 108.992,177.413 107.244,177.326 107.034 C 177.059 106.392,177.130 106.333,178.167 106.333 L 179.167 106.333 179.167 105.167 L 179.167 104.000 174.583 104.000 L 170.000 104.000 170.000 105.167 M205.833 105.167 L 205.833 106.333 206.833 106.333 C 207.995 106.333,207.990 106.321,207.431 107.830 C 207.210 108.428,206.493 110.417,205.838 112.250 C 204.647 115.583,204.118 117.054,203.576 118.542 L 203.288 119.333 202.227 119.333 L 201.167 119.333 201.167 120.583 L 201.167 121.833 204.750 121.833 L 208.333 121.833 208.333 120.583 L 208.333 119.333 207.333 119.333 C 206.783 119.333,206.333 119.290,206.333 119.236 C 206.333 119.126,207.097 116.823,207.365 116.125 L 207.540 115.667 210.574 115.667 L 213.607 115.667 214.138 117.375 C 214.429 118.315,214.668 119.140,214.667 119.208 C 214.667 119.277,214.217 119.333,213.667 119.333 L 212.667 119.333 212.667 120.583 L 212.667 121.833 216.250 121.833 L 219.833 121.833 219.833 120.591 L 219.833 119.349 218.808 119.300 C 217.802 119.251,217.778 119.239,217.573 118.667 C 217.287 117.865,216.310 115.210,215.673 113.500 C 215.382 112.721,214.928 111.483,214.662 110.750 C 214.397 110.017,213.952 108.817,213.674 108.083 C 212.995 106.295,212.984 106.333,214.167 106.333 L 215.167 106.333 215.167 105.167 L 215.167 104.000 210.500 104.000 L 205.833 104.000 205.833 105.167 M225.833 105.239 L 225.833 106.485 227.042 106.534 L 228.250 106.583 228.294 112.958 L 228.337 119.333 227.085 119.333 L 225.833 119.333 225.833 120.583 L 225.833 121.833 229.583 121.833 L 233.333 121.833 233.333 120.583 L 233.333 119.333 232.083 119.333 L 230.833 119.333 230.834 113.542 L 230.834 107.750 231.417 108.717 C 231.738 109.248,232.000 109.714,232.000 109.751 C 232.000 109.788,232.214 110.182,232.476 110.626 C 232.738 111.071,233.160 111.805,233.413 112.259 C 233.666 112.712,234.339 113.908,234.909 114.917 C 235.479 115.925,236.171 117.162,236.447 117.667 C 236.723 118.171,237.380 119.352,237.907 120.292 L 238.864 122.000 240.349 122.000 L 241.833 122.000 241.833 114.245 L 241.833 106.491 244.208 106.537 L 246.583 106.583 246.667 112.417 C 246.757 118.749,246.765 118.807,247.768 120.122 C 249.626 122.558,255.576 122.724,257.895 120.405 C 259.225 119.075,259.244 118.968,259.301 112.375 L 259.353 106.500 260.426 106.500 L 261.500 106.500 261.500 105.250 L 261.500 104.000 257.917 104.000 L 254.333 104.000 254.333 105.250 L 254.333 106.500 255.333 106.500 L 256.333 106.500 256.333 111.760 C 256.333 117.642,256.252 118.292,255.436 118.911 C 254.212 119.841,251.621 119.834,250.509 118.899 C 249.650 118.176,249.592 117.738,249.588 111.917 L 249.583 106.583 250.625 106.534 L 251.667 106.484 251.667 105.242 L 251.667 104.000 244.333 104.000 L 237.000 104.000 237.000 105.250 L 237.000 106.500 238.167 106.500 L 239.333 106.500 239.333 111.704 C 239.333 117.558,239.450 117.283,238.043 114.750 C 237.585 113.925,237.019 112.912,236.785 112.500 C 236.551 112.087,235.390 110.025,234.204 107.917 L 232.048 104.083 228.941 104.038 L 225.833 103.993 225.833 105.239 M279.667 105.167 L 279.667 106.333 280.684 106.333 C 281.586 106.333,281.689 106.367,281.588 106.625 C 281.525 106.785,281.359 107.254,281.221 107.667 C 280.991 108.349,280.687 109.194,278.884 114.167 C 278.568 115.037,278.056 116.483,277.746 117.378 C 277.024 119.463,277.141 119.333,275.990 119.333 L 275.000 119.333 275.000 120.583 L 275.000 121.833 278.583 121.833 L 282.167 121.833 282.167 120.583 L 282.167 119.333 281.167 119.333 C 279.981 119.333,280.004 119.431,280.702 117.300 L 281.238 115.667 284.265 115.667 L 287.293 115.667 287.458 116.125 C 288.636 119.395,288.639 119.333,287.306 119.333 L 286.333 119.333 286.333 120.583 L 286.333 121.833 293.500 121.833 L 300.667 121.833 300.667 120.583 L 300.667 119.333 299.417 119.333 L 298.167 119.333 298.167 113.631 C 298.167 108.859,298.203 107.968,298.390 108.173 C 298.512 108.307,299.365 109.767,300.284 111.417 C 301.203 113.067,302.125 114.717,302.333 115.083 C 302.541 115.450,303.066 116.388,303.500 117.167 C 303.934 117.946,304.460 118.883,304.668 119.250 C 304.876 119.617,305.306 120.385,305.622 120.958 L 306.197 122.000 307.682 122.000 L 309.167 122.000 309.167 114.243 L 309.167 106.486 310.458 106.535 L 311.750 106.583 311.797 108.792 L 311.843 111.000 313.088 111.000 L 314.333 111.000 314.333 108.750 L 314.333 106.500 315.917 106.500 L 317.500 106.500 317.500 112.917 L 317.500 119.333 316.417 119.333 L 315.333 119.333 315.333 120.583 L 315.333 121.833 319.000 121.833 L 322.667 121.833 322.667 120.583 L 322.667 119.333 321.583 119.333 L 320.500 119.333 320.500 112.917 L 320.500 106.500 322.083 106.500 L 323.667 106.500 323.667 108.750 L 323.667 111.000 324.917 111.000 L 326.167 111.000 326.167 107.500 L 326.167 104.000 315.250 104.000 L 304.333 104.000 304.333 105.250 L 304.333 106.500 305.500 106.500 L 306.667 106.500 306.667 111.700 C 306.667 114.606,306.604 116.830,306.524 116.742 C 306.445 116.655,305.480 114.971,304.380 113.000 C 301.786 108.356,301.887 108.537,300.739 106.500 C 300.197 105.537,299.675 104.600,299.580 104.417 C 299.418 104.104,299.214 104.081,296.287 104.038 L 293.167 103.993 293.167 105.239 L 293.167 106.485 294.375 106.534 L 295.583 106.583 295.583 112.917 L 295.583 119.250 293.573 119.297 L 291.563 119.343 290.269 115.797 C 288.993 112.298,288.157 110.040,287.415 108.083 C 286.697 106.190,286.657 106.333,287.905 106.333 L 289.000 106.333 289.000 105.167 L 289.000 104.000 284.333 104.000 L 279.667 104.000 279.667 105.167 M330.000 105.167 L 330.000 106.333 331.000 106.333 C 332.165 106.333,332.158 106.316,331.583 107.871 C 331.354 108.492,330.986 109.506,330.765 110.125 C 330.544 110.744,330.013 112.225,329.585 113.417 C 329.157 114.608,328.633 116.071,328.419 116.667 C 328.206 117.263,327.901 118.106,327.743 118.542 L 327.455 119.333 326.394 119.333 L 325.333 119.333 325.333 120.583 L 325.333 121.833 328.917 121.833 L 332.500 121.833 332.500 120.583 L 332.500 119.333 331.500 119.333 C 330.950 119.333,330.500 119.283,330.500 119.221 C 330.500 119.096,331.248 116.846,331.529 116.125 L 331.707 115.667 334.729 115.667 L 337.751 115.667 338.294 117.375 C 338.593 118.315,338.837 119.140,338.835 119.208 C 338.834 119.277,338.383 119.333,337.833 119.333 L 336.833 119.333 336.833 120.583 L 336.833 121.833 344.083 121.833 L 351.333 121.833 351.333 120.583 L 351.333 119.333 350.250 119.333 L 349.167 119.333 349.167 116.500 L 349.167 113.667 350.230 113.667 L 351.293 113.667 352.829 116.792 C 353.674 118.510,354.558 120.348,354.794 120.875 L 355.223 121.833 360.611 121.833 L 366.000 121.833 366.000 120.583 L 366.000 119.333 365.000 119.333 C 363.819 119.333,363.845 119.440,364.516 117.307 L 365.033 115.667 368.079 115.667 L 371.125 115.667 371.706 117.412 C 372.377 119.426,372.404 119.333,371.139 119.333 L 370.167 119.333 370.167 120.583 L 370.167 121.833 373.750 121.833 L 377.333 121.833 377.333 120.583 L 377.333 119.333 376.356 119.333 L 375.379 119.333 375.094 118.542 C 374.937 118.106,374.707 117.487,374.583 117.167 C 374.459 116.846,374.089 115.852,373.762 114.958 C 373.434 114.065,372.910 112.640,372.596 111.792 C 371.547 108.955,370.667 106.502,370.667 106.417 C 370.667 106.371,371.154 106.333,371.750 106.333 L 372.833 106.333 372.833 105.167 L 372.833 104.000 368.167 104.000 L 363.500 104.000 363.500 105.167 L 363.500 106.333 364.518 106.333 C 365.421 106.333,365.522 106.366,365.417 106.625 C 365.352 106.785,365.238 107.104,365.165 107.333 C 365.091 107.563,364.717 108.612,364.333 109.667 C 363.950 110.721,363.423 112.183,363.162 112.917 C 362.901 113.650,362.378 115.112,361.998 116.167 C 361.619 117.221,361.220 118.346,361.112 118.667 L 360.916 119.250 359.035 119.297 L 357.153 119.344 355.743 116.446 C 354.083 113.034,354.131 113.317,355.134 112.864 C 358.447 111.367,358.579 106.380,355.348 104.762 C 354.194 104.184,352.400 104.000,347.910 104.000 L 343.833 104.000 343.833 105.242 L 343.833 106.485 344.958 106.534 L 346.083 106.583 346.127 112.958 L 346.171 119.333 344.112 119.333 L 342.054 119.333 341.851 118.889 C 341.739 118.644,341.084 116.900,340.395 115.014 C 338.703 110.387,338.032 108.571,337.652 107.603 C 337.170 106.371,337.190 106.333,338.333 106.333 L 339.333 106.333 339.333 105.167 L 339.333 104.000 334.667 104.000 L 330.000 104.000 330.000 105.167 M34.128 106.947 C 35.103 107.425,35.500 108.169,35.500 109.519 C 35.500 111.854,34.642 112.545,31.625 112.640 L 29.833 112.696 29.833 109.573 L 29.833 106.450 31.672 106.547 C 32.949 106.614,33.699 106.736,34.128 106.947 M69.250 106.672 C 73.141 107.110,74.586 108.781,74.580 112.833 C 74.572 117.583,72.529 119.333,66.993 119.333 L 65.667 119.333 65.667 112.917 L 65.667 106.500 66.708 106.501 C 67.281 106.502,68.425 106.579,69.250 106.672 M142.545 106.688 C 144.149 107.010,144.909 108.149,144.509 109.633 C 144.185 110.837,143.201 111.331,141.125 111.332 L 140.000 111.333 140.000 108.917 L 140.000 106.500 140.806 106.500 C 141.249 106.500,142.031 106.584,142.545 106.688 M353.417 106.825 C 354.970 107.412,355.025 110.089,353.500 110.852 C 353.268 110.968,352.213 111.092,351.125 111.131 L 349.167 111.202 349.167 108.828 L 349.167 106.454 351.042 106.545 C 352.073 106.595,353.142 106.721,353.417 106.825 M88.799 109.875 C 89.371 111.640,89.838 113.140,89.836 113.208 C 89.831 113.432,85.500 113.358,85.500 113.134 C 85.500 112.813,87.555 106.667,87.662 106.667 C 87.716 106.667,88.227 108.110,88.799 109.875 M119.493 107.458 C 119.621 107.894,120.087 109.362,120.529 110.720 C 120.972 112.079,121.333 113.222,121.333 113.262 C 121.333 113.301,120.313 113.333,119.066 113.333 C 117.108 113.333,116.811 113.299,116.895 113.081 C 116.948 112.942,117.452 111.442,118.014 109.747 C 119.141 106.354,119.160 106.324,119.493 107.458 M175.711 109.750 C 176.213 111.308,176.677 112.752,176.740 112.958 L 176.856 113.333 174.706 113.333 C 173.523 113.333,172.514 113.292,172.463 113.241 C 172.413 113.191,172.849 111.709,173.433 109.950 C 174.016 108.190,174.495 106.716,174.497 106.675 C 174.513 106.285,174.948 107.387,175.711 109.750 M211.510 109.276 C 211.883 110.453,212.295 111.699,212.427 112.045 C 212.922 113.344,212.939 113.333,210.500 113.333 C 209.308 113.333,208.333 113.276,208.333 113.205 C 208.333 113.107,209.496 109.586,210.437 106.833 C 210.568 106.451,210.739 106.841,211.510 109.276 M285.460 109.886 C 286.032 111.657,286.500 113.157,286.500 113.220 C 286.500 113.282,285.525 113.333,284.333 113.333 C 282.712 113.333,282.166 113.281,282.165 113.125 C 282.163 112.794,284.207 106.667,284.319 106.667 C 284.375 106.667,284.889 108.115,285.460 109.886 M335.654 109.167 C 336.041 110.404,336.493 111.807,336.659 112.283 C 336.826 112.760,336.920 113.191,336.870 113.241 C 336.738 113.373,332.500 113.355,332.500 113.223 C 332.500 113.134,334.258 107.778,334.593 106.847 C 334.741 106.435,334.931 106.851,335.654 109.167 M369.292 109.884 C 369.865 111.652,370.333 113.152,370.333 113.216 C 370.333 113.281,369.358 113.333,368.167 113.333 C 366.289 113.333,366.000 113.298,366.000 113.066 C 366.000 112.712,368.039 106.666,368.158 106.668 C 368.208 106.668,368.719 108.115,369.292 109.884 M144.120 114.226 C 145.607 114.995,145.900 117.348,144.653 118.513 C 144.105 119.025,142.742 119.333,141.028 119.333 L 140.000 119.333 140.000 116.560 L 140.000 113.786 141.800 113.871 C 142.984 113.928,143.778 114.049,144.120 114.226 " stroke="none" fill="#040404" fill-rule="evenodd"></path><path id="path2" d="M271.297 15.123 C 271.782 15.157,272.532 15.156,272.964 15.122 C 273.396 15.088,273.000 15.060,272.083 15.061 C 271.167 15.061,270.813 15.089,271.297 15.123 M275.958 15.118 C 276.165 15.157,276.502 15.157,276.708 15.118 C 276.915 15.078,276.746 15.045,276.333 15.045 C 275.921 15.045,275.752 15.078,275.958 15.118 M364.708 15.124 C 365.327 15.156,366.340 15.156,366.958 15.124 C 367.577 15.092,367.071 15.065,365.833 15.065 C 364.596 15.065,364.090 15.092,364.708 15.124 M126.750 29.833 C 127.108 30.200,127.438 30.500,127.484 30.500 C 127.530 30.500,127.275 30.200,126.917 29.833 C 126.559 29.467,126.228 29.167,126.182 29.167 C 126.137 29.167,126.392 29.467,126.750 29.833 M354.723 30.500 C 354.723 31.188,354.752 31.469,354.788 31.125 C 354.824 30.781,354.824 30.219,354.788 29.875 C 354.752 29.531,354.723 29.813,354.723 30.500 M46.221 30.625 C 50.238 30.650,56.763 30.650,60.721 30.625 C 64.679 30.600,61.392 30.580,53.417 30.580 C 45.442 30.580,42.204 30.600,46.221 30.625 M82.460 30.618 C 82.668 30.658,82.968 30.656,83.127 30.615 C 83.286 30.573,83.117 30.540,82.750 30.542 C 82.383 30.544,82.253 30.578,82.460 30.618 M176.798 30.624 C 177.375 30.656,178.275 30.656,178.798 30.623 C 179.322 30.590,178.850 30.563,177.750 30.564 C 176.650 30.564,176.222 30.591,176.798 30.624 M211.875 30.623 C 212.310 30.657,213.023 30.657,213.458 30.623 C 213.894 30.588,213.537 30.560,212.667 30.560 C 211.796 30.560,211.440 30.588,211.875 30.623 M218.875 30.782 C 219.035 30.823,219.298 30.823,219.458 30.782 C 219.619 30.740,219.487 30.705,219.167 30.705 C 218.846 30.705,218.715 30.740,218.875 30.782 M223.292 30.951 C 223.498 30.991,223.835 30.991,224.042 30.951 C 224.248 30.911,224.079 30.879,223.667 30.879 C 223.254 30.879,223.085 30.911,223.292 30.951 M255.387 35.167 C 255.387 35.762,255.417 36.006,255.454 35.708 C 255.491 35.410,255.491 34.923,255.454 34.625 C 255.417 34.327,255.387 34.571,255.387 35.167 M261.912 48.917 C 261.912 54.600,261.933 56.949,261.958 54.137 C 261.984 51.325,261.984 46.675,261.958 43.804 C 261.933 40.932,261.912 43.233,261.912 48.917 M185.208 41.291 C 186.102 41.321,187.565 41.321,188.458 41.291 C 189.352 41.261,188.621 41.236,186.833 41.236 C 185.046 41.236,184.315 41.261,185.208 41.291 M194.960 41.451 C 195.168 41.491,195.468 41.490,195.627 41.448 C 195.786 41.406,195.617 41.374,195.250 41.375 C 194.883 41.377,194.753 41.411,194.960 41.451 M199.795 41.621 C 200.094 41.658,200.544 41.657,200.795 41.619 C 201.045 41.581,200.800 41.551,200.250 41.552 C 199.700 41.553,199.495 41.584,199.795 41.621 M205.794 41.785 C 206.001 41.824,206.301 41.823,206.460 41.781 C 206.620 41.739,206.450 41.707,206.083 41.709 C 205.717 41.711,205.586 41.745,205.794 41.785 M354.887 45.333 C 354.887 45.929,354.917 46.173,354.954 45.875 C 354.991 45.577,354.991 45.090,354.954 44.792 C 354.917 44.494,354.887 44.737,354.887 45.333 M43.221 49.583 C 43.222 50.225,43.252 50.467,43.288 50.121 C 43.324 49.775,43.324 49.250,43.287 48.955 C 43.250 48.659,43.221 48.942,43.221 49.583 M162.385 50.083 C 162.386 50.633,162.417 50.838,162.454 50.539 C 162.491 50.239,162.490 49.789,162.452 49.539 C 162.414 49.288,162.384 49.533,162.385 50.083 M281.372 51.000 C 281.372 51.321,281.406 51.452,281.448 51.292 C 281.490 51.131,281.490 50.869,281.448 50.708 C 281.406 50.548,281.372 50.679,281.372 51.000 M281.381 53.750 C 281.382 54.208,281.415 54.376,281.453 54.123 C 281.491 53.869,281.490 53.494,281.451 53.289 C 281.411 53.084,281.380 53.292,281.381 53.750 M162.224 57.417 C 162.224 58.150,162.254 58.429,162.289 58.037 C 162.324 57.645,162.324 57.045,162.288 56.704 C 162.252 56.363,162.223 56.683,162.224 57.417 M198.542 56.786 C 198.794 56.824,199.206 56.824,199.458 56.786 C 199.710 56.748,199.504 56.717,199.000 56.717 C 198.496 56.717,198.290 56.748,198.542 56.786 M213.375 56.782 C 213.535 56.823,213.798 56.823,213.958 56.782 C 214.119 56.740,213.987 56.705,213.667 56.705 C 213.346 56.705,213.215 56.740,213.375 56.782 M189.875 56.956 C 190.310 56.990,191.023 56.990,191.458 56.956 C 191.894 56.922,191.537 56.893,190.667 56.893 C 189.796 56.893,189.440 56.922,189.875 56.956 M217.460 56.951 C 217.668 56.991,217.968 56.990,218.127 56.948 C 218.286 56.906,218.117 56.874,217.750 56.875 C 217.383 56.877,217.253 56.911,217.460 56.951 M179.542 57.123 C 179.977 57.157,180.690 57.157,181.125 57.123 C 181.560 57.088,181.204 57.060,180.333 57.060 C 179.463 57.060,179.106 57.088,179.542 57.123 M43.227 59.500 C 43.227 60.371,43.255 60.727,43.289 60.292 C 43.324 59.856,43.324 59.144,43.289 58.708 C 43.255 58.273,43.227 58.629,43.227 59.500 M162.205 66.333 C 162.205 66.654,162.240 66.785,162.282 66.625 C 162.323 66.465,162.323 66.202,162.282 66.042 C 162.240 65.881,162.205 66.012,162.205 66.333 M163.833 72.552 C 163.833 72.581,164.077 72.825,164.375 73.094 L 164.917 73.583 164.427 73.042 C 163.971 72.537,163.833 72.423,163.833 72.552 M54.295 75.454 C 54.594 75.491,55.044 75.490,55.295 75.452 C 55.545 75.414,55.300 75.384,54.750 75.385 C 54.200 75.386,53.995 75.417,54.295 75.454 M174.458 75.451 C 174.665 75.491,175.002 75.491,175.208 75.451 C 175.415 75.411,175.246 75.379,174.833 75.379 C 174.421 75.379,174.252 75.411,174.458 75.451 M214.208 75.448 C 214.369 75.490,214.631 75.490,214.792 75.448 C 214.952 75.406,214.821 75.372,214.500 75.372 C 214.179 75.372,214.048 75.406,214.208 75.448 M70.875 75.625 C 72.135 75.653,74.198 75.653,75.458 75.625 C 76.719 75.596,75.688 75.573,73.167 75.573 C 70.646 75.573,69.615 75.596,70.875 75.625 M180.625 75.618 C 180.831 75.657,181.169 75.657,181.375 75.618 C 181.581 75.578,181.412 75.545,181.000 75.545 C 180.588 75.545,180.419 75.578,180.625 75.618 M209.460 75.618 C 209.668 75.658,209.968 75.656,210.127 75.615 C 210.286 75.573,210.117 75.540,209.750 75.542 C 209.383 75.544,209.253 75.578,209.460 75.618 M188.047 75.789 C 188.485 75.824,189.160 75.823,189.547 75.788 C 189.934 75.754,189.575 75.725,188.750 75.726 C 187.925 75.726,187.609 75.755,188.047 75.789 M202.463 75.789 C 202.855 75.824,203.455 75.824,203.796 75.788 C 204.137 75.752,203.817 75.723,203.083 75.724 C 202.350 75.724,202.071 75.754,202.463 75.789 M154.113 90.958 C 156.696 90.984,160.971 90.984,163.613 90.958 C 166.255 90.932,164.142 90.911,158.917 90.911 C 153.692 90.911,151.530 90.932,154.113 90.958 M360.125 90.954 C 360.423 90.991,360.910 90.991,361.208 90.954 C 361.506 90.917,361.262 90.887,360.667 90.887 C 360.071 90.887,359.827 90.917,360.125 90.954 M363.542 90.957 C 364.252 90.988,365.415 90.988,366.125 90.957 C 366.835 90.926,366.254 90.900,364.833 90.900 C 363.412 90.900,362.831 90.926,363.542 90.957 M200.957 99.958 L 383.498 100.000 383.542 113.000 L 383.586 126.000 383.585 112.958 L 383.583 99.917 201.000 99.917 L 18.417 99.916 200.957 99.958 M39.078 107.542 L 39.083 111.083 40.500 111.095 L 41.917 111.106 40.545 111.046 L 39.173 110.987 39.123 107.493 L 39.073 104.000 39.078 107.542 M53.705 107.452 L 53.667 110.987 52.292 111.043 L 50.917 111.099 52.297 111.133 C 53.988 111.174,53.852 111.521,53.792 107.329 L 53.743 103.917 53.705 107.452 M60.225 105.333 C 60.225 106.112,60.254 106.431,60.289 106.042 C 60.324 105.652,60.324 105.015,60.289 104.625 C 60.254 104.235,60.225 104.554,60.225 105.333 M158.724 105.250 C 158.724 105.983,158.754 106.263,158.789 105.871 C 158.824 105.479,158.824 104.879,158.788 104.537 C 158.752 104.196,158.723 104.517,158.724 105.250 M251.725 105.333 C 251.725 106.112,251.754 106.431,251.789 106.042 C 251.824 105.652,251.824 105.015,251.789 104.625 C 251.754 104.235,251.725 104.554,251.725 105.333 M254.225 105.333 C 254.225 106.112,254.254 106.431,254.289 106.042 C 254.324 105.652,254.324 105.015,254.289 104.625 C 254.254 104.235,254.225 104.554,254.225 105.333 M261.558 105.333 C 261.558 106.112,261.587 106.431,261.622 106.042 C 261.657 105.652,261.657 105.015,261.622 104.625 C 261.587 104.235,261.558 104.554,261.558 105.333 M26.742 112.917 C 26.742 116.400,26.764 117.849,26.791 116.136 C 26.818 114.423,26.819 111.573,26.791 109.803 C 26.764 108.032,26.742 109.433,26.742 112.917 M62.576 112.917 C 62.576 116.400,62.598 117.849,62.625 116.136 C 62.652 114.423,62.652 111.573,62.625 109.803 C 62.598 108.032,62.576 109.433,62.576 112.917 M98.703 108.785 L 98.667 110.987 97.292 111.043 L 95.917 111.099 97.297 111.133 C 98.956 111.174,98.859 111.334,98.791 108.657 L 98.739 106.583 98.703 108.785 M154.240 111.500 C 154.240 114.204,154.263 115.310,154.291 113.958 C 154.319 112.606,154.319 110.394,154.291 109.042 C 154.263 107.690,154.240 108.796,154.240 111.500 M196.907 111.667 C 196.907 114.462,196.930 115.606,196.958 114.208 C 196.986 112.810,196.986 110.523,196.958 109.125 C 196.930 107.727,196.907 108.871,196.907 111.667 M256.241 111.667 C 256.241 114.462,256.263 115.606,256.291 114.208 C 256.319 112.810,256.319 110.523,256.291 109.125 C 256.263 107.727,256.241 108.871,256.241 111.667 M259.407 111.750 C 259.407 114.592,259.430 115.778,259.458 114.385 C 259.486 112.993,259.486 110.668,259.458 109.219 C 259.430 107.769,259.408 108.908,259.407 111.750 M306.463 111.599 C 306.438 114.312,306.473 116.567,306.542 116.609 C 306.610 116.652,306.667 114.432,306.667 111.677 C 306.667 108.921,306.631 106.667,306.588 106.667 C 306.545 106.667,306.489 108.886,306.463 111.599 M314.369 108.785 L 314.333 110.987 312.958 111.043 L 311.583 111.099 312.964 111.133 C 314.623 111.174,314.526 111.334,314.458 108.657 L 314.405 106.583 314.369 108.785 M317.409 112.917 C 317.409 116.400,317.431 117.849,317.458 116.136 C 317.485 114.423,317.485 111.573,317.458 109.803 C 317.431 108.032,317.409 109.433,317.409 112.917 M320.576 112.917 C 320.576 116.400,320.598 117.849,320.625 116.136 C 320.652 114.423,320.652 111.573,320.625 109.803 C 320.598 108.032,320.576 109.433,320.576 112.917 M349.232 108.833 C 349.232 110.071,349.258 110.577,349.290 109.958 C 349.322 109.340,349.322 108.327,349.290 107.708 C 349.258 107.090,349.232 107.596,349.232 108.833 M151.074 111.750 C 151.074 114.500,151.097 115.648,151.125 114.302 C 151.153 112.956,151.153 110.706,151.125 109.302 C 151.097 107.898,151.074 109.000,151.074 111.750 M298.241 113.667 C 298.241 116.737,298.264 117.994,298.291 116.458 C 298.319 114.923,298.319 112.410,298.291 110.875 C 298.264 109.340,298.241 110.596,298.241 113.667 M271.212 109.000 C 271.212 109.412,271.245 109.581,271.284 109.375 C 271.324 109.169,271.324 108.831,271.284 108.625 C 271.245 108.419,271.212 108.587,271.212 109.000 M108.625 111.122 C 109.015 111.157,109.652 111.157,110.042 111.122 C 110.431 111.087,110.112 111.058,109.333 111.058 C 108.554 111.058,108.235 111.087,108.625 111.122 M324.292 111.122 C 324.681 111.157,325.319 111.157,325.708 111.122 C 326.098 111.087,325.779 111.058,325.000 111.058 C 324.221 111.058,323.902 111.087,324.292 111.122 M74.545 112.833 C 74.545 113.246,74.578 113.415,74.618 113.208 C 74.657 113.002,74.657 112.665,74.618 112.458 C 74.578 112.252,74.545 112.421,74.545 112.833 M30.458 112.621 C 30.756 112.658,31.244 112.658,31.542 112.621 C 31.840 112.584,31.596 112.553,31.000 112.553 C 30.404 112.553,30.160 112.584,30.458 112.621 M349.240 113.882 C 349.195 114.000,349.181 115.257,349.208 116.674 L 349.259 119.250 349.296 116.550 L 349.333 113.850 350.292 113.790 L 351.250 113.730 350.286 113.698 C 349.629 113.677,349.297 113.735,349.240 113.882 M262.241 115.213 C 262.196 115.331,262.180 116.887,262.205 118.672 L 262.250 121.917 263.500 121.927 L 264.750 121.938 263.535 121.878 L 262.320 121.819 262.368 118.409 C 262.416 115.059,262.405 114.786,262.241 115.213 M30.455 115.287 C 30.750 115.324,31.275 115.324,31.621 115.288 C 31.967 115.252,31.725 115.222,31.083 115.221 C 30.442 115.221,30.159 115.250,30.455 115.287 M86.033 115.791 C 86.831 115.821,88.181 115.821,89.033 115.791 C 89.886 115.761,89.233 115.736,87.583 115.736 C 85.933 115.735,85.236 115.760,86.033 115.791 M116.109 115.792 C 116.066 115.860,116.943 115.897,118.057 115.873 C 121.736 115.794,122.125 115.731,119.135 115.699 C 117.513 115.681,116.151 115.723,116.109 115.792 M172.583 115.780 C 175.011 115.900,177.629 115.906,177.558 115.792 C 177.515 115.723,176.154 115.681,174.532 115.699 C 172.910 115.716,172.033 115.753,172.583 115.780 M210.493 115.790 C 212.548 115.826,213.445 115.901,213.547 116.046 C 213.652 116.193,213.673 116.181,213.624 116.000 C 213.567 115.790,213.079 115.749,210.570 115.744 L 207.583 115.738 210.493 115.790 M281.275 115.792 C 281.233 115.860,282.109 115.897,283.224 115.873 C 286.903 115.794,287.292 115.731,284.302 115.699 C 282.680 115.681,281.318 115.723,281.275 115.792 M333.200 115.791 C 333.997 115.821,335.347 115.821,336.200 115.791 C 337.052 115.761,336.400 115.736,334.750 115.736 C 333.100 115.735,332.402 115.760,333.200 115.791 M365.109 115.792 C 365.066 115.860,365.943 115.897,367.057 115.873 C 370.736 115.794,371.125 115.731,368.135 115.699 C 366.513 115.681,365.151 115.723,365.109 115.792 M163.879 116.667 C 163.879 117.079,163.911 117.248,163.951 117.042 C 163.991 116.835,163.991 116.498,163.951 116.292 C 163.911 116.085,163.879 116.254,163.879 116.667 M60.240 120.583 L 60.250 121.917 64.042 121.921 L 67.834 121.926 64.090 121.877 L 60.347 121.827 60.288 120.539 L 60.230 119.250 60.240 120.583 M165.073 120.583 L 165.083 121.917 168.750 121.921 L 172.417 121.926 168.798 121.877 L 165.180 121.827 165.122 120.538 L 165.063 119.250 165.073 120.583 M176.573 120.583 L 176.583 121.917 183.750 121.919 L 190.917 121.922 183.798 121.876 L 176.680 121.830 176.622 120.540 L 176.563 119.250 176.573 120.583 M42.572 120.624 L 42.583 121.917 46.375 121.921 L 50.167 121.926 46.424 121.877 L 42.681 121.827 42.621 120.580 L 42.561 119.332 42.572 120.624 M85.533 120.538 L 85.500 121.827 81.792 121.875 L 78.083 121.923 81.797 121.962 C 86.029 122.005,85.713 122.134,85.624 120.400 L 85.565 119.250 85.533 120.538 M107.199 120.539 L 107.167 121.827 103.375 121.875 L 99.583 121.923 103.380 121.962 C 107.706 122.005,107.380 122.136,107.291 120.400 L 107.232 119.250 107.199 120.539 M121.072 120.624 L 121.083 121.917 124.667 121.922 L 128.250 121.926 124.715 121.877 L 121.181 121.827 121.121 120.580 L 121.061 119.332 121.072 120.624 M219.866 120.538 L 219.833 121.827 216.208 121.875 L 212.583 121.924 216.214 121.962 C 220.352 122.005,220.046 122.133,219.957 120.400 L 219.899 119.250 219.866 120.538 M26.551 121.958 C 27.633 121.987,29.358 121.987,30.384 121.958 C 31.410 121.928,30.525 121.905,28.417 121.905 C 26.308 121.905,25.469 121.929,26.551 121.958 M91.458 121.958 C 92.490 121.987,94.177 121.987,95.208 121.958 C 96.240 121.929,95.396 121.905,93.333 121.905 C 91.271 121.905,90.427 121.929,91.458 121.958 M111.458 121.958 C 112.490 121.987,114.177 121.987,115.208 121.958 C 116.240 121.929,115.396 121.905,113.333 121.905 C 111.271 121.905,110.427 121.929,111.458 121.958 M136.542 121.958 C 137.527 121.987,139.140 121.987,140.125 121.958 C 141.110 121.928,140.304 121.904,138.333 121.904 C 136.362 121.904,135.556 121.928,136.542 121.958 M202.866 121.958 C 203.846 121.987,205.496 121.987,206.532 121.958 C 207.569 121.929,206.767 121.904,204.750 121.904 C 202.733 121.904,201.885 121.928,202.866 121.958 M227.718 121.958 C 228.800 121.987,230.525 121.987,231.551 121.958 C 232.577 121.928,231.692 121.905,229.583 121.905 C 227.475 121.905,226.635 121.929,227.718 121.958 M276.625 121.958 C 277.656 121.987,279.344 121.987,280.375 121.958 C 281.406 121.929,280.563 121.905,278.500 121.905 C 276.438 121.905,275.594 121.929,276.625 121.958 M289.875 121.958 C 291.869 121.985,295.131 121.985,297.125 121.958 C 299.119 121.932,297.487 121.910,293.500 121.910 C 289.512 121.910,287.881 121.932,289.875 121.958 M317.218 121.958 C 318.300 121.987,320.025 121.987,321.051 121.958 C 322.077 121.928,321.192 121.905,319.083 121.905 C 316.975 121.905,316.135 121.929,317.218 121.958 M327.032 121.958 C 328.013 121.987,329.663 121.987,330.699 121.958 C 331.735 121.929,330.933 121.904,328.917 121.904 C 326.900 121.904,326.052 121.928,327.032 121.958 M340.470 121.958 C 342.515 121.985,345.815 121.985,347.803 121.958 C 349.791 121.932,348.117 121.910,344.083 121.910 C 340.050 121.910,338.424 121.932,340.470 121.958 M357.886 121.958 C 359.427 121.986,361.902 121.986,363.386 121.958 C 364.869 121.930,363.608 121.908,360.583 121.908 C 357.558 121.908,356.344 121.931,357.886 121.958 M371.866 121.958 C 372.846 121.987,374.496 121.987,375.532 121.958 C 376.569 121.929,375.767 121.904,373.750 121.904 C 371.733 121.904,370.885 121.928,371.866 121.958 M197.208 122.123 C 197.644 122.157,198.356 122.157,198.792 122.123 C 199.227 122.088,198.871 122.060,198.000 122.060 C 197.129 122.060,196.773 122.088,197.208 122.123 M239.542 122.123 C 239.977 122.157,240.690 122.157,241.125 122.123 C 241.560 122.088,241.204 122.060,240.333 122.060 C 239.463 122.060,239.106 122.088,239.542 122.123 M307.047 122.123 C 307.485 122.157,308.160 122.157,308.547 122.122 C 308.934 122.087,308.575 122.059,307.750 122.059 C 306.925 122.060,306.609 122.088,307.047 122.123 " stroke="none" fill="#848484" fill-rule="evenodd"></path><path id="path3" d="M88.627 15.118 C 88.834 15.158,89.134 15.156,89.294 15.115 C 89.453 15.073,89.283 15.040,88.917 15.042 C 88.550 15.044,88.420 15.078,88.627 15.118 M228.127 15.118 C 228.334 15.158,228.634 15.156,228.794 15.115 C 228.953 15.073,228.783 15.040,228.417 15.042 C 228.050 15.044,227.920 15.078,228.127 15.118 M374.414 45.417 C 374.414 58.525,374.434 63.912,374.458 57.388 C 374.482 50.864,374.482 40.139,374.458 33.555 C 374.434 26.970,374.414 32.308,374.414 45.417 M69.208 30.621 C 69.552 30.657,70.115 30.657,70.458 30.621 C 70.802 30.585,70.521 30.556,69.833 30.556 C 69.146 30.556,68.865 30.585,69.208 30.621 M80.625 30.618 C 80.831 30.657,81.169 30.657,81.375 30.618 C 81.581 30.578,81.412 30.545,81.000 30.545 C 80.587 30.545,80.419 30.578,80.625 30.618 M181.792 30.623 C 182.365 30.656,183.302 30.656,183.875 30.623 C 184.448 30.591,183.979 30.564,182.833 30.564 C 181.688 30.564,181.219 30.591,181.792 30.623 M207.880 30.623 C 208.318 30.657,208.993 30.657,209.380 30.622 C 209.767 30.587,209.408 30.559,208.583 30.559 C 207.758 30.560,207.442 30.588,207.880 30.623 M354.714 33.083 C 354.716 33.542,354.748 33.709,354.786 33.456 C 354.825 33.203,354.824 32.828,354.784 32.623 C 354.744 32.418,354.713 32.625,354.714 33.083 M190.960 41.285 C 191.168 41.324,191.468 41.323,191.627 41.281 C 191.786 41.239,191.617 41.207,191.250 41.209 C 190.883 41.211,190.753 41.245,190.960 41.285 M354.872 47.500 C 354.872 47.821,354.906 47.952,354.948 47.792 C 354.990 47.631,354.990 47.369,354.948 47.208 C 354.906 47.048,354.872 47.179,354.872 47.500 M200.542 56.782 C 200.702 56.823,200.965 56.823,201.125 56.782 C 201.285 56.740,201.154 56.705,200.833 56.705 C 200.512 56.705,200.381 56.740,200.542 56.782 M192.960 56.951 C 193.168 56.991,193.468 56.990,193.627 56.948 C 193.786 56.906,193.617 56.874,193.250 56.875 C 192.883 56.877,192.753 56.911,192.960 56.951 M183.211 57.120 C 183.464 57.158,183.839 57.157,184.044 57.117 C 184.249 57.078,184.042 57.046,183.583 57.048 C 183.125 57.049,182.957 57.081,183.211 57.120 M162.218 60.250 C 162.219 60.800,162.250 61.005,162.287 60.705 C 162.325 60.406,162.324 59.956,162.286 59.705 C 162.248 59.455,162.217 59.700,162.218 60.250 M43.205 62.000 C 43.205 62.321,43.240 62.452,43.282 62.292 C 43.323 62.131,43.323 61.869,43.282 61.708 C 43.240 61.548,43.205 61.679,43.205 62.000 M162.209 64.917 C 162.211 65.283,162.245 65.414,162.285 65.206 C 162.324 64.999,162.323 64.699,162.281 64.540 C 162.239 64.380,162.207 64.550,162.209 64.917 M262.906 69.708 L 262.417 70.250 262.958 69.760 C 263.256 69.491,263.500 69.248,263.500 69.219 C 263.500 69.090,263.362 69.203,262.906 69.708 M58.382 75.457 C 59.004 75.489,59.979 75.489,60.549 75.457 C 61.118 75.424,60.608 75.398,59.417 75.398 C 58.225 75.398,57.759 75.425,58.382 75.457 M192.375 75.790 C 192.902 75.823,193.765 75.823,194.292 75.790 C 194.819 75.757,194.387 75.730,193.333 75.730 C 192.279 75.730,191.848 75.757,192.375 75.790 M198.125 75.790 C 198.606 75.823,199.394 75.823,199.875 75.790 C 200.356 75.756,199.963 75.728,199.000 75.728 C 198.037 75.728,197.644 75.756,198.125 75.790 M262.833 87.417 C 263.144 87.737,263.436 88.000,263.482 88.000 C 263.528 88.000,263.311 87.737,263.000 87.417 C 262.689 87.096,262.397 86.833,262.351 86.833 C 262.305 86.833,262.522 87.096,262.833 87.417 M18.413 113.000 C 18.413 120.196,18.433 123.140,18.458 119.542 C 18.483 115.944,18.483 110.056,18.458 106.458 C 18.433 102.860,18.413 105.804,18.413 113.000 M82.889 105.167 C 82.889 105.854,82.919 106.135,82.955 105.792 C 82.991 105.448,82.991 104.885,82.955 104.542 C 82.919 104.198,82.889 104.479,82.889 105.167 M134.724 105.250 C 134.724 105.983,134.754 106.263,134.789 105.871 C 134.824 105.479,134.824 104.879,134.788 104.537 C 134.752 104.196,134.723 104.517,134.724 105.250 M202.057 105.250 C 202.058 105.983,202.087 106.263,202.122 105.871 C 202.157 105.479,202.157 104.879,202.121 104.537 C 202.085 104.196,202.057 104.517,202.057 105.250 M225.724 105.250 C 225.724 105.983,225.754 106.263,225.789 105.871 C 225.824 105.479,225.824 104.879,225.788 104.537 C 225.752 104.196,225.723 104.517,225.724 105.250 M293.057 105.250 C 293.058 105.983,293.087 106.263,293.122 105.871 C 293.157 105.479,293.157 104.879,293.121 104.537 C 293.085 104.196,293.057 104.517,293.057 105.250 M363.389 105.167 C 363.389 105.854,363.419 106.135,363.455 105.792 C 363.491 105.448,363.491 104.885,363.455 104.542 C 363.419 104.198,363.389 104.479,363.389 105.167 M41.732 108.833 C 41.732 110.071,41.758 110.577,41.790 109.958 C 41.822 109.340,41.822 108.327,41.790 107.708 C 41.758 107.090,41.732 107.596,41.732 108.833 M104.909 112.917 C 104.909 116.400,104.931 117.849,104.958 116.136 C 104.985 114.423,104.985 111.573,104.958 109.803 C 104.931 108.032,104.909 109.433,104.909 112.917 M228.242 112.917 C 228.242 116.400,228.264 117.849,228.291 116.136 C 228.318 114.423,228.319 111.573,228.291 109.803 C 228.264 108.032,228.242 109.433,228.242 112.917 M346.040 112.867 L 346.000 119.150 345.042 119.210 L 344.083 119.270 345.047 119.302 C 346.277 119.342,346.178 119.941,346.125 112.749 L 346.079 106.583 346.040 112.867 M208.480 113.214 C 208.552 113.285,209.542 113.323,210.680 113.296 L 212.750 113.249 210.549 113.166 C 209.339 113.121,208.408 113.142,208.480 113.214 M284.250 113.167 L 282.083 113.265 284.198 113.299 C 285.467 113.320,286.355 113.267,286.417 113.167 C 286.473 113.075,286.496 113.015,286.468 113.034 C 286.440 113.053,285.442 113.112,284.250 113.167 M332.646 113.214 C 332.718 113.285,333.709 113.323,334.847 113.296 L 336.917 113.249 334.716 113.166 C 333.506 113.121,332.574 113.142,332.646 113.214 M368.083 113.167 L 365.917 113.265 368.032 113.299 C 369.300 113.320,370.188 113.267,370.250 113.167 C 370.307 113.075,370.330 113.015,370.302 113.034 C 370.273 113.053,369.275 113.112,368.083 113.167 M86.625 113.290 C 87.198 113.323,88.135 113.323,88.708 113.290 C 89.281 113.258,88.813 113.231,87.667 113.231 C 86.521 113.231,86.052 113.258,86.625 113.290 M118.049 113.290 C 118.671 113.323,119.646 113.322,120.215 113.290 C 120.784 113.257,120.275 113.231,119.083 113.231 C 117.892 113.232,117.426 113.258,118.049 113.290 M173.549 113.290 C 174.171 113.323,175.146 113.322,175.715 113.290 C 176.284 113.257,175.775 113.231,174.583 113.231 C 173.392 113.232,172.926 113.258,173.549 113.290 M25.125 119.287 C 25.423 119.324,25.910 119.324,26.208 119.287 C 26.506 119.250,26.262 119.220,25.667 119.220 C 25.071 119.220,24.827 119.250,25.125 119.287 M30.455 119.287 C 30.750 119.324,31.275 119.324,31.621 119.288 C 31.967 119.252,31.725 119.222,31.083 119.221 C 30.442 119.221,30.159 119.250,30.455 119.287 M43.125 119.287 C 43.423 119.324,43.910 119.324,44.208 119.287 C 44.506 119.250,44.262 119.220,43.667 119.220 C 43.071 119.220,42.827 119.250,43.125 119.287 M48.625 119.287 C 48.923 119.324,49.410 119.324,49.708 119.287 C 50.006 119.250,49.762 119.220,49.167 119.220 C 48.571 119.220,48.327 119.250,48.625 119.287 M60.788 119.287 C 61.084 119.324,61.609 119.324,61.955 119.288 C 62.300 119.252,62.058 119.222,61.417 119.221 C 60.775 119.221,60.492 119.250,60.788 119.287 M66.127 119.285 C 66.334 119.324,66.634 119.323,66.794 119.281 C 66.953 119.239,66.783 119.207,66.417 119.209 C 66.050 119.211,65.920 119.245,66.127 119.285 M78.625 119.287 C 78.923 119.324,79.410 119.324,79.708 119.287 C 80.006 119.250,79.762 119.220,79.167 119.220 C 78.571 119.220,78.327 119.250,78.625 119.287 M84.128 119.287 C 84.428 119.325,84.878 119.324,85.128 119.286 C 85.378 119.248,85.133 119.217,84.583 119.218 C 84.033 119.219,83.828 119.250,84.128 119.287 M90.125 119.287 C 90.423 119.324,90.910 119.324,91.208 119.287 C 91.506 119.250,91.263 119.220,90.667 119.220 C 90.071 119.220,89.827 119.250,90.125 119.287 M95.458 119.287 C 95.756 119.324,96.244 119.324,96.542 119.287 C 96.840 119.250,96.596 119.220,96.000 119.220 C 95.404 119.220,95.160 119.250,95.458 119.287 M100.125 119.287 C 100.423 119.324,100.910 119.324,101.208 119.287 C 101.506 119.250,101.263 119.220,100.667 119.220 C 100.071 119.220,99.827 119.250,100.125 119.287 M105.625 119.287 C 105.923 119.324,106.410 119.324,106.708 119.287 C 107.006 119.250,106.763 119.220,106.167 119.220 C 105.571 119.220,105.327 119.250,105.625 119.287 M110.125 119.287 C 110.423 119.324,110.910 119.324,111.208 119.287 C 111.506 119.250,111.263 119.220,110.667 119.220 C 110.071 119.220,109.827 119.250,110.125 119.287 M115.458 119.287 C 115.756 119.324,116.244 119.324,116.542 119.287 C 116.840 119.250,116.596 119.220,116.000 119.220 C 115.404 119.220,115.160 119.250,115.458 119.287 M121.628 119.287 C 121.928 119.325,122.378 119.324,122.628 119.286 C 122.878 119.248,122.633 119.217,122.083 119.218 C 121.533 119.219,121.328 119.250,121.628 119.287 M126.961 119.287 C 127.261 119.325,127.711 119.324,127.961 119.286 C 128.212 119.248,127.967 119.217,127.417 119.218 C 126.867 119.219,126.662 119.250,126.961 119.287 M134.737 119.392 C 134.689 119.515,134.677 120.134,134.709 120.767 L 134.768 121.917 134.801 120.633 L 134.833 119.349 135.875 119.290 L 136.917 119.231 135.870 119.199 C 135.121 119.176,134.798 119.231,134.737 119.392 M165.625 119.287 C 165.923 119.324,166.410 119.324,166.708 119.287 C 167.006 119.250,166.762 119.220,166.167 119.220 C 165.571 119.220,165.327 119.250,165.625 119.287 M171.128 119.287 C 171.428 119.325,171.878 119.324,172.128 119.286 C 172.378 119.248,172.133 119.217,171.583 119.218 C 171.033 119.219,170.828 119.250,171.128 119.287 M177.128 119.287 C 177.428 119.325,177.878 119.324,178.128 119.286 C 178.378 119.248,178.133 119.217,177.583 119.218 C 177.033 119.219,176.828 119.250,177.128 119.287 M182.292 119.284 C 182.498 119.324,182.835 119.324,183.042 119.284 C 183.248 119.245,183.079 119.212,182.667 119.212 C 182.254 119.212,182.085 119.245,182.292 119.284 M184.461 119.287 C 184.761 119.325,185.211 119.324,185.461 119.286 C 185.712 119.248,185.467 119.217,184.917 119.218 C 184.367 119.219,184.162 119.250,184.461 119.287 M189.129 119.289 C 189.521 119.324,190.121 119.324,190.463 119.288 C 190.804 119.252,190.483 119.223,189.750 119.224 C 189.017 119.224,188.737 119.254,189.129 119.289 M201.070 119.392 C 201.022 119.515,201.010 120.134,201.043 120.767 L 201.101 121.917 201.134 120.633 L 201.167 119.349 202.208 119.290 L 203.250 119.231 202.203 119.199 C 201.455 119.176,201.132 119.231,201.070 119.392 M206.961 119.287 C 207.261 119.325,207.711 119.324,207.961 119.286 C 208.212 119.248,207.967 119.217,207.417 119.218 C 206.867 119.219,206.662 119.250,206.961 119.287 M212.570 119.392 C 212.522 119.515,212.510 120.134,212.543 120.767 L 212.601 121.917 212.634 120.633 L 212.667 119.350 213.625 119.290 L 214.583 119.230 213.620 119.198 C 212.942 119.176,212.631 119.233,212.570 119.392 M218.461 119.287 C 218.761 119.325,219.211 119.324,219.461 119.286 C 219.712 119.248,219.467 119.217,218.917 119.218 C 218.367 119.219,218.162 119.250,218.461 119.287 M225.737 119.392 C 225.689 119.515,225.677 120.134,225.709 120.767 L 225.768 121.917 225.801 120.633 L 225.833 119.349 226.958 119.290 L 228.083 119.232 226.953 119.199 C 226.135 119.176,225.799 119.229,225.737 119.392 M231.542 119.288 C 231.885 119.324,232.448 119.324,232.792 119.288 C 233.135 119.252,232.854 119.223,232.167 119.223 C 231.479 119.223,231.198 119.252,231.542 119.288 M275.292 119.287 C 275.590 119.324,276.077 119.324,276.375 119.287 C 276.673 119.250,276.429 119.220,275.833 119.220 C 275.237 119.220,274.994 119.250,275.292 119.287 M280.625 119.287 C 280.923 119.324,281.410 119.324,281.708 119.287 C 282.006 119.250,281.762 119.220,281.167 119.220 C 280.571 119.220,280.327 119.250,280.625 119.287 M286.795 119.287 C 287.094 119.325,287.544 119.324,287.795 119.286 C 288.045 119.248,287.800 119.217,287.250 119.218 C 286.700 119.219,286.495 119.250,286.795 119.287 M291.958 119.284 C 292.165 119.324,292.502 119.324,292.708 119.284 C 292.915 119.245,292.746 119.212,292.333 119.212 C 291.921 119.212,291.752 119.245,291.958 119.284 M294.128 119.287 C 294.428 119.325,294.878 119.324,295.128 119.286 C 295.378 119.248,295.133 119.217,294.583 119.218 C 294.033 119.219,293.828 119.250,294.128 119.287 M298.875 119.288 C 299.219 119.324,299.781 119.324,300.125 119.288 C 300.469 119.252,300.188 119.223,299.500 119.223 C 298.813 119.223,298.531 119.252,298.875 119.288 M315.792 119.287 C 316.090 119.324,316.577 119.324,316.875 119.287 C 317.173 119.250,316.929 119.220,316.333 119.220 C 315.737 119.220,315.494 119.250,315.792 119.287 M321.125 119.287 C 321.423 119.324,321.910 119.324,322.208 119.287 C 322.506 119.250,322.262 119.220,321.667 119.220 C 321.071 119.220,320.827 119.250,321.125 119.287 M325.237 119.392 C 325.189 119.515,325.177 120.134,325.209 120.767 L 325.268 121.917 325.301 120.633 L 325.333 119.349 326.375 119.290 L 327.417 119.231 326.370 119.199 C 325.621 119.176,325.298 119.231,325.237 119.392 M331.576 119.286 L 332.486 119.350 332.546 120.592 L 332.606 121.834 332.595 120.542 L 332.583 119.250 331.624 119.236 L 330.665 119.223 331.576 119.286 M336.737 119.392 C 336.689 119.515,336.677 120.134,336.709 120.767 L 336.768 121.917 336.801 120.633 L 336.833 119.350 337.792 119.290 L 338.750 119.230 337.786 119.198 C 337.108 119.176,336.797 119.233,336.737 119.392 M342.458 119.284 C 342.665 119.324,343.002 119.324,343.208 119.284 C 343.415 119.245,343.246 119.212,342.833 119.212 C 342.421 119.212,342.252 119.245,342.458 119.284 M350.285 119.285 L 351.320 119.349 351.379 120.592 L 351.439 121.834 351.428 120.542 L 351.417 119.250 350.333 119.236 L 349.250 119.222 350.285 119.285 M357.627 119.285 C 357.834 119.324,358.134 119.323,358.294 119.281 C 358.453 119.239,358.283 119.207,357.917 119.209 C 357.550 119.211,357.420 119.245,357.627 119.285 M359.794 119.285 C 360.001 119.324,360.301 119.323,360.460 119.281 C 360.620 119.239,360.450 119.207,360.083 119.209 C 359.717 119.211,359.586 119.245,359.794 119.285 M364.458 119.287 C 364.756 119.324,365.244 119.324,365.542 119.287 C 365.840 119.250,365.596 119.220,365.000 119.220 C 364.404 119.220,364.160 119.250,364.458 119.287 M370.628 119.287 C 370.928 119.325,371.378 119.324,371.628 119.286 C 371.878 119.248,371.633 119.217,371.083 119.218 C 370.533 119.219,370.328 119.250,370.628 119.287 M376.409 119.286 L 377.320 119.350 377.379 120.592 L 377.439 121.834 377.428 120.542 L 377.417 119.250 376.457 119.236 L 375.498 119.223 376.409 119.286 " stroke="none" fill="#5f5f5f" fill-rule="evenodd"></path><path id="path4" d="M44.722 15.125 C 52.773 15.149,65.898 15.149,73.888 15.125 C 81.879 15.101,75.292 15.081,59.250 15.081 C 43.208 15.081,36.671 15.101,44.722 15.125 M168.792 15.125 C 179.631 15.149,197.369 15.149,208.208 15.125 C 219.048 15.101,210.179 15.082,188.500 15.082 C 166.821 15.082,157.952 15.101,168.792 15.125 M268.958 15.121 C 269.256 15.158,269.744 15.158,270.042 15.121 C 270.340 15.084,270.096 15.053,269.500 15.053 C 268.904 15.053,268.660 15.084,268.958 15.121 M362.375 15.119 C 362.627 15.158,363.040 15.158,363.292 15.119 C 363.544 15.081,363.337 15.050,362.833 15.050 C 362.329 15.050,362.123 15.081,362.375 15.119 M179.960 30.618 C 180.168 30.658,180.468 30.656,180.627 30.615 C 180.786 30.573,180.617 30.540,180.250 30.542 C 179.883 30.544,179.753 30.578,179.960 30.618 M210.294 30.618 C 210.501 30.658,210.801 30.656,210.960 30.615 C 211.120 30.573,210.950 30.540,210.583 30.542 C 210.217 30.544,210.086 30.578,210.294 30.618 M281.381 52.250 C 281.382 52.708,281.415 52.876,281.453 52.623 C 281.491 52.369,281.490 51.994,281.451 51.789 C 281.411 51.584,281.380 51.792,281.381 52.250 M182.042 57.115 C 182.202 57.157,182.465 57.157,182.625 57.115 C 182.785 57.073,182.654 57.039,182.333 57.039 C 182.012 57.039,181.881 57.073,182.042 57.115 M255.212 65.500 C 255.212 65.912,255.245 66.081,255.284 65.875 C 255.324 65.669,255.324 65.331,255.284 65.125 C 255.245 64.919,255.212 65.087,255.212 65.500 M56.042 75.453 C 56.294 75.491,56.706 75.491,56.958 75.453 C 57.210 75.415,57.004 75.383,56.500 75.383 C 55.996 75.383,55.790 75.415,56.042 75.453 M190.458 75.784 C 190.665 75.824,191.002 75.824,191.208 75.784 C 191.415 75.745,191.246 75.712,190.833 75.712 C 190.421 75.712,190.252 75.745,190.458 75.784 M200.960 75.785 C 201.168 75.824,201.468 75.823,201.627 75.781 C 201.786 75.739,201.617 75.707,201.250 75.709 C 200.883 75.711,200.753 75.745,200.960 75.785 M45.042 90.958 C 53.452 90.982,67.215 90.982,75.625 90.958 C 84.035 90.934,77.154 90.915,60.333 90.915 C 43.512 90.915,36.631 90.934,45.042 90.958 M182.542 90.958 C 190.402 90.982,203.265 90.982,211.125 90.958 C 218.985 90.934,212.554 90.915,196.833 90.915 C 181.112 90.915,174.681 90.934,182.542 90.958 M96.071 107.500 C 96.071 109.471,96.095 110.277,96.124 109.292 C 96.154 108.306,96.154 106.694,96.124 105.708 C 96.095 104.723,96.071 105.529,96.071 107.500 M148.890 105.250 C 148.891 105.983,148.920 106.263,148.956 105.871 C 148.991 105.479,148.990 104.879,148.954 104.537 C 148.919 104.196,148.890 104.517,148.890 105.250 M215.223 105.167 C 215.223 105.854,215.252 106.135,215.288 105.792 C 215.324 105.448,215.324 104.885,215.288 104.542 C 215.252 104.198,215.223 104.479,215.223 105.167 M279.556 105.167 C 279.556 105.854,279.585 106.135,279.621 105.792 C 279.657 105.448,279.657 104.885,279.621 104.542 C 279.585 104.198,279.556 104.479,279.556 105.167 M339.389 105.167 C 339.389 105.854,339.419 106.135,339.455 105.792 C 339.491 105.448,339.491 104.885,339.455 104.542 C 339.419 104.198,339.389 104.479,339.389 105.167 M29.902 109.583 C 29.902 111.233,29.927 111.886,29.958 111.033 C 29.988 110.181,29.988 108.831,29.957 108.033 C 29.927 107.236,29.902 107.933,29.902 109.583 M65.742 112.917 C 65.742 116.400,65.764 117.849,65.791 116.136 C 65.818 114.423,65.819 111.573,65.791 109.803 C 65.764 108.032,65.742 109.433,65.742 112.917 M163.907 111.333 C 163.907 113.946,163.930 115.015,163.958 113.708 C 163.986 112.402,163.986 110.265,163.958 108.958 C 163.930 107.652,163.907 108.721,163.907 111.333 M241.910 114.333 C 241.910 118.596,241.932 120.340,241.958 118.208 C 241.985 116.077,241.985 112.590,241.958 110.458 C 241.932 108.327,241.910 110.071,241.910 114.333 M51.065 108.917 C 51.065 110.108,51.092 110.574,51.124 109.951 C 51.156 109.329,51.156 108.354,51.123 107.785 C 51.091 107.216,51.064 107.725,51.065 108.917 M309.243 114.417 C 309.244 118.633,309.265 120.334,309.292 118.197 C 309.318 116.059,309.318 112.609,309.291 110.530 C 309.265 108.451,309.243 110.200,309.243 114.417 M349.795 111.121 C 350.094 111.158,350.544 111.157,350.795 111.119 C 351.045 111.081,350.800 111.051,350.250 111.052 C 349.700 111.053,349.495 111.084,349.795 111.121 M140.542 111.286 C 140.794 111.324,141.206 111.324,141.458 111.286 C 141.710 111.248,141.504 111.217,141.000 111.217 C 140.496 111.217,140.290 111.248,140.542 111.286 M263.042 115.121 C 263.385 115.157,263.948 115.157,264.292 115.121 C 264.635 115.085,264.354 115.056,263.667 115.056 C 262.979 115.056,262.698 115.085,263.042 115.121 M29.897 117.250 C 29.897 118.350,29.924 118.778,29.957 118.202 C 29.990 117.625,29.989 116.725,29.956 116.202 C 29.923 115.678,29.897 116.150,29.897 117.250 M50.224 120.583 C 50.224 121.317,50.254 121.596,50.289 121.204 C 50.324 120.812,50.324 120.212,50.288 119.871 C 50.252 119.529,50.223 119.850,50.224 120.583 M99.557 120.583 C 99.558 121.317,99.587 121.596,99.622 121.204 C 99.657 120.812,99.657 120.212,99.621 119.871 C 99.585 119.529,99.557 119.850,99.557 120.583 M128.390 120.583 C 128.391 121.317,128.420 121.596,128.456 121.204 C 128.491 120.812,128.490 120.212,128.454 119.871 C 128.419 119.529,128.390 119.850,128.390 120.583 " stroke="none" fill="#7c7c7c" fill-rule="evenodd"></path><path id="path5" d="M89.794 15.118 C 90.001 15.158,90.301 15.156,90.460 15.115 C 90.620 15.073,90.450 15.040,90.083 15.042 C 89.717 15.044,89.586 15.078,89.794 15.118 M229.208 15.115 C 229.369 15.157,229.631 15.157,229.792 15.115 C 229.952 15.073,229.821 15.039,229.500 15.039 C 229.179 15.039,229.048 15.073,229.208 15.115 M23.392 22.083 C 23.392 22.908,23.420 23.267,23.455 22.880 C 23.490 22.493,23.490 21.818,23.456 21.380 C 23.422 20.942,23.393 21.258,23.392 22.083 M142.582 53.083 C 142.582 70.867,142.601 78.117,142.625 69.195 C 142.649 60.273,142.649 45.723,142.625 36.862 C 142.601 28.000,142.582 35.300,142.582 53.083 M354.539 23.833 C 354.539 24.154,354.573 24.285,354.615 24.125 C 354.657 23.965,354.657 23.702,354.615 23.542 C 354.573 23.381,354.539 23.512,354.539 23.833 M354.542 25.583 C 354.544 25.950,354.578 26.080,354.618 25.873 C 354.658 25.666,354.656 25.366,354.615 25.206 C 354.573 25.047,354.540 25.217,354.542 25.583 M71.713 30.623 C 72.152 30.657,72.827 30.657,73.213 30.622 C 73.600 30.587,73.242 30.559,72.417 30.559 C 71.592 30.560,71.275 30.588,71.713 30.623 M78.961 30.621 C 79.261 30.658,79.711 30.657,79.961 30.619 C 80.212 30.581,79.967 30.551,79.417 30.552 C 78.867 30.553,78.662 30.584,78.961 30.621 M186.049 30.624 C 186.764 30.655,187.889 30.655,188.549 30.624 C 189.210 30.592,188.625 30.566,187.250 30.567 C 185.875 30.567,185.335 30.593,186.049 30.624 M203.625 30.624 C 204.290 30.655,205.377 30.655,206.042 30.624 C 206.706 30.592,206.162 30.566,204.833 30.566 C 203.504 30.566,202.960 30.592,203.625 30.624 M354.729 35.583 C 354.729 36.592,354.757 36.983,354.790 36.452 C 354.823 35.922,354.823 35.097,354.789 34.619 C 354.756 34.141,354.729 34.575,354.729 35.583 M34.048 41.123 C 34.578 41.157,35.403 41.156,35.881 41.123 C 36.359 41.089,35.925 41.062,34.917 41.062 C 33.908 41.063,33.517 41.090,34.048 41.123 M23.414 66.417 C 23.414 77.142,23.434 81.505,23.458 76.112 C 23.483 70.720,23.483 61.945,23.458 56.612 C 23.434 51.280,23.414 55.692,23.414 66.417 M354.879 48.667 C 354.879 49.079,354.911 49.248,354.951 49.042 C 354.991 48.835,354.991 48.498,354.951 48.292 C 354.911 48.085,354.879 48.254,354.879 48.667 M136.053 52.667 C 136.053 53.262,136.084 53.506,136.121 53.208 C 136.158 52.910,136.158 52.423,136.121 52.125 C 136.084 51.827,136.053 52.071,136.053 52.667 M194.042 56.948 C 194.202 56.990,194.465 56.990,194.625 56.948 C 194.785 56.906,194.654 56.872,194.333 56.872 C 194.012 56.872,193.881 56.906,194.042 56.948 M184.542 57.115 C 184.702 57.157,184.965 57.157,185.125 57.115 C 185.285 57.073,185.154 57.039,184.833 57.039 C 184.512 57.039,184.381 57.073,184.542 57.115 M162.228 62.750 C 162.228 63.667,162.256 64.020,162.290 63.536 C 162.324 63.052,162.323 62.302,162.289 61.869 C 162.255 61.437,162.227 61.833,162.228 62.750 M43.205 63.000 C 43.205 63.321,43.240 63.452,43.282 63.292 C 43.323 63.131,43.323 62.869,43.282 62.708 C 43.240 62.548,43.205 62.679,43.205 63.000 M374.410 77.167 C 374.410 81.612,374.432 83.431,374.458 81.208 C 374.484 78.985,374.484 75.348,374.458 73.125 C 374.432 70.902,374.410 72.721,374.410 77.167 M62.129 75.456 C 62.521 75.491,63.121 75.490,63.463 75.454 C 63.804 75.419,63.483 75.390,62.750 75.390 C 62.017 75.391,61.737 75.420,62.129 75.456 M176.960 75.451 C 177.168 75.491,177.468 75.490,177.627 75.448 C 177.786 75.406,177.617 75.374,177.250 75.375 C 176.883 75.377,176.753 75.411,176.960 75.451 M195.621 75.787 C 195.917 75.824,196.442 75.824,196.788 75.788 C 197.134 75.752,196.892 75.722,196.250 75.721 C 195.608 75.721,195.325 75.750,195.621 75.787 M259.209 78.583 C 259.211 78.950,259.245 79.080,259.285 78.873 C 259.324 78.666,259.323 78.366,259.281 78.206 C 259.239 78.047,259.207 78.217,259.209 78.583 M91.875 90.948 C 92.035 90.990,92.298 90.990,92.458 90.948 C 92.619 90.906,92.487 90.872,92.167 90.872 C 91.846 90.872,91.715 90.906,91.875 90.948 M271.963 103.956 C 272.355 103.991,272.955 103.990,273.296 103.954 C 273.637 103.919,273.317 103.890,272.583 103.890 C 271.850 103.891,271.571 103.920,271.963 103.956 M114.404 105.167 L 114.417 106.417 115.376 106.430 L 116.335 106.444 115.425 106.381 L 114.514 106.317 114.453 105.117 L 114.391 103.917 114.404 105.167 M156.199 105.200 L 156.167 106.483 155.208 106.544 L 154.250 106.604 155.214 106.635 C 156.354 106.672,156.372 106.647,156.291 105.067 L 156.232 103.917 156.199 105.200 M166.033 105.200 L 166.000 106.484 164.958 106.543 L 163.917 106.602 164.964 106.635 C 166.197 106.672,166.206 106.661,166.124 105.067 L 166.065 103.917 166.033 105.200 M179.199 105.117 L 179.167 106.317 178.208 106.377 L 177.250 106.437 178.214 106.468 C 179.348 106.506,179.374 106.469,179.291 104.982 L 179.231 103.917 179.199 105.117 M326.237 107.500 C 326.237 109.471,326.262 110.277,326.291 109.292 C 326.321 108.306,326.321 106.694,326.291 105.708 C 326.262 104.723,326.237 105.529,326.237 107.500 M343.739 105.291 L 343.750 106.583 344.917 106.597 L 346.083 106.610 344.965 106.548 L 343.847 106.485 343.787 105.242 L 343.727 103.999 343.739 105.291 M83.167 106.428 C 83.727 106.553,84.963 106.575,84.891 106.458 C 84.848 106.390,84.387 106.342,83.865 106.353 C 83.343 106.363,83.029 106.397,83.167 106.428 M90.276 106.458 C 90.233 106.527,90.548 106.561,90.974 106.534 C 92.191 106.455,92.339 106.374,91.302 106.353 C 90.780 106.342,90.318 106.390,90.276 106.458 M122.292 106.454 C 122.590 106.491,123.077 106.491,123.375 106.454 C 123.673 106.417,123.429 106.387,122.833 106.387 C 122.237 106.387,121.994 106.417,122.292 106.454 M170.461 106.454 C 170.761 106.491,171.211 106.490,171.461 106.452 C 171.712 106.414,171.467 106.384,170.917 106.385 C 170.367 106.386,170.162 106.417,170.461 106.454 M206.292 106.454 C 206.590 106.491,207.077 106.491,207.375 106.454 C 207.673 106.417,207.429 106.387,206.833 106.387 C 206.237 106.387,205.994 106.417,206.292 106.454 M213.625 106.454 C 213.923 106.491,214.410 106.491,214.708 106.454 C 215.006 106.417,214.762 106.387,214.167 106.387 C 213.571 106.387,213.327 106.417,213.625 106.454 M279.833 106.428 C 280.393 106.553,281.630 106.575,281.558 106.458 C 281.515 106.390,281.054 106.342,280.532 106.353 C 280.010 106.363,279.696 106.397,279.833 106.428 M286.942 106.458 C 286.900 106.527,287.214 106.561,287.641 106.535 C 288.963 106.452,289.129 106.380,288.052 106.356 C 287.484 106.344,286.985 106.390,286.942 106.458 M330.458 106.454 C 330.756 106.491,331.244 106.491,331.542 106.454 C 331.840 106.417,331.596 106.387,331.000 106.387 C 330.404 106.387,330.160 106.417,330.458 106.454 M337.792 106.454 C 338.090 106.491,338.577 106.491,338.875 106.454 C 339.173 106.417,338.929 106.387,338.333 106.387 C 337.737 106.387,337.494 106.417,337.792 106.454 M363.667 106.428 C 364.227 106.553,365.463 106.575,365.391 106.458 C 365.348 106.390,364.887 106.342,364.365 106.353 C 363.843 106.363,363.529 106.397,363.667 106.428 M370.776 106.458 C 370.733 106.527,371.048 106.561,371.474 106.535 C 372.797 106.452,372.962 106.380,371.885 106.356 C 371.317 106.344,370.818 106.390,370.776 106.458 M25.125 106.621 C 25.423 106.658,25.910 106.658,26.208 106.621 C 26.506 106.584,26.262 106.553,25.667 106.553 C 25.071 106.553,24.827 106.584,25.125 106.621 M30.292 106.618 C 30.498 106.657,30.835 106.657,31.042 106.618 C 31.248 106.578,31.079 106.545,30.667 106.545 C 30.254 106.545,30.085 106.578,30.292 106.618 M42.547 106.623 C 42.985 106.657,43.660 106.657,44.047 106.622 C 44.434 106.587,44.075 106.559,43.250 106.559 C 42.425 106.560,42.109 106.588,42.547 106.623 M48.880 106.623 C 49.318 106.657,49.993 106.657,50.380 106.622 C 50.767 106.587,50.408 106.559,49.583 106.559 C 48.758 106.560,48.442 106.588,48.880 106.623 M60.788 106.620 C 61.084 106.657,61.609 106.658,61.955 106.622 C 62.300 106.586,62.058 106.555,61.417 106.555 C 60.775 106.554,60.492 106.583,60.788 106.620 M66.125 106.618 C 66.331 106.657,66.669 106.657,66.875 106.618 C 67.081 106.578,66.912 106.545,66.500 106.545 C 66.087 106.545,65.919 106.578,66.125 106.618 M99.547 106.623 C 99.985 106.657,100.660 106.657,101.047 106.622 C 101.434 106.587,101.075 106.559,100.250 106.559 C 99.425 106.560,99.109 106.588,99.547 106.623 M106.537 106.620 L 107.990 106.680 108.045 108.881 L 108.099 111.083 108.091 108.833 L 108.083 106.583 106.583 106.572 L 105.083 106.561 106.537 106.620 M135.790 106.619 L 136.829 106.682 136.876 112.883 L 136.923 119.083 136.920 112.833 L 136.917 106.583 135.833 106.569 L 134.750 106.555 135.790 106.619 M140.458 106.618 C 140.665 106.657,141.002 106.657,141.208 106.618 C 141.415 106.578,141.246 106.545,140.833 106.545 C 140.421 106.545,140.252 106.578,140.458 106.618 M149.458 106.621 C 149.756 106.658,150.244 106.658,150.542 106.621 C 150.840 106.584,150.596 106.553,150.000 106.553 C 149.404 106.553,149.160 106.584,149.458 106.621 M159.295 106.621 C 159.594 106.658,160.044 106.657,160.295 106.619 C 160.545 106.581,160.300 106.551,159.750 106.552 C 159.200 106.553,158.995 106.584,159.295 106.621 M183.963 106.622 C 184.355 106.657,184.955 106.657,185.296 106.621 C 185.637 106.585,185.317 106.557,184.583 106.557 C 183.850 106.558,183.571 106.587,183.963 106.622 M195.042 106.621 C 195.385 106.657,195.948 106.657,196.292 106.621 C 196.635 106.585,196.354 106.556,195.667 106.556 C 194.979 106.556,194.698 106.585,195.042 106.621 M200.208 106.621 C 200.552 106.657,201.115 106.657,201.458 106.621 C 201.802 106.585,201.521 106.556,200.833 106.556 C 200.146 106.556,199.865 106.585,200.208 106.621 M226.375 106.621 C 226.719 106.657,227.281 106.657,227.625 106.621 C 227.969 106.585,227.688 106.556,227.000 106.556 C 226.313 106.556,226.031 106.585,226.375 106.621 M237.455 106.620 C 237.750 106.657,238.275 106.658,238.621 106.622 C 238.967 106.586,238.725 106.555,238.083 106.555 C 237.442 106.554,237.159 106.583,237.455 106.620 M242.542 106.621 C 242.885 106.657,243.448 106.657,243.792 106.621 C 244.135 106.585,243.854 106.556,243.167 106.556 C 242.479 106.556,242.198 106.585,242.542 106.621 M245.128 106.621 C 245.428 106.658,245.878 106.657,246.128 106.619 C 246.378 106.581,246.133 106.551,245.583 106.552 C 245.033 106.553,244.828 106.584,245.128 106.621 M250.295 106.621 C 250.594 106.658,251.044 106.657,251.295 106.619 C 251.545 106.581,251.300 106.551,250.750 106.552 C 250.200 106.553,249.995 106.584,250.295 106.621 M254.795 106.621 C 255.094 106.658,255.544 106.657,255.795 106.619 C 256.045 106.581,255.800 106.551,255.250 106.552 C 254.700 106.553,254.495 106.584,254.795 106.621 M259.958 106.621 C 260.256 106.658,260.744 106.658,261.042 106.621 C 261.340 106.584,261.096 106.553,260.500 106.553 C 259.904 106.553,259.660 106.584,259.958 106.621 M293.708 106.621 C 294.052 106.657,294.615 106.657,294.958 106.621 C 295.302 106.585,295.021 106.556,294.333 106.556 C 293.646 106.556,293.365 106.585,293.708 106.621 M304.788 106.620 C 305.084 106.657,305.609 106.658,305.955 106.622 C 306.300 106.586,306.058 106.555,305.417 106.555 C 304.775 106.554,304.492 106.583,304.788 106.620 M309.788 106.620 C 310.084 106.657,310.609 106.658,310.955 106.622 C 311.300 106.586,311.058 106.555,310.417 106.555 C 309.775 106.554,309.492 106.583,309.788 106.620 M315.213 106.623 C 315.652 106.657,316.327 106.657,316.713 106.622 C 317.100 106.587,316.742 106.559,315.917 106.559 C 315.092 106.560,314.775 106.588,315.213 106.623 M321.380 106.623 C 321.818 106.657,322.493 106.657,322.880 106.622 C 323.267 106.587,322.908 106.559,322.083 106.559 C 321.258 106.560,320.942 106.588,321.380 106.623 M349.792 106.621 C 350.090 106.658,350.577 106.658,350.875 106.621 C 351.173 106.584,350.929 106.553,350.333 106.553 C 349.738 106.553,349.494 106.584,349.792 106.621 M44.833 112.950 C 44.787 116.452,44.807 119.260,44.877 119.190 C 44.947 119.120,44.984 116.255,44.960 112.823 L 44.916 106.583 44.833 112.950 M295.576 113.000 C 295.576 116.438,295.598 117.844,295.625 116.125 C 295.652 114.406,295.652 111.594,295.625 109.875 C 295.598 108.156,295.576 109.563,295.576 113.000 M77.705 112.667 C 77.705 112.987,77.740 113.119,77.782 112.958 C 77.823 112.798,77.823 112.535,77.782 112.375 C 77.740 112.215,77.705 112.346,77.705 112.667 M264.883 116.000 C 264.883 116.504,264.915 116.710,264.953 116.458 C 264.991 116.206,264.991 115.794,264.953 115.542 C 264.915 115.290,264.883 115.496,264.883 116.000 M67.294 119.285 C 67.501 119.324,67.801 119.323,67.960 119.281 C 68.120 119.239,67.950 119.207,67.583 119.209 C 67.217 119.211,67.086 119.245,67.294 119.285 M141.127 119.285 C 141.334 119.324,141.634 119.323,141.794 119.281 C 141.953 119.239,141.783 119.207,141.417 119.209 C 141.050 119.211,140.920 119.245,141.127 119.285 M358.708 119.282 C 358.869 119.323,359.131 119.323,359.292 119.282 C 359.452 119.240,359.321 119.205,359.000 119.205 C 358.679 119.205,358.548 119.240,358.708 119.282 M208.390 120.583 C 208.391 121.317,208.420 121.596,208.456 121.204 C 208.491 120.812,208.490 120.212,208.454 119.871 C 208.419 119.529,208.390 119.850,208.390 120.583 M315.224 120.583 C 315.224 121.317,315.254 121.596,315.289 121.204 C 315.324 120.812,315.324 120.212,315.288 119.871 C 315.252 119.529,315.223 119.850,315.224 120.583 M264.872 121.333 C 264.872 121.654,264.906 121.785,264.948 121.625 C 264.990 121.465,264.990 121.202,264.948 121.042 C 264.906 120.881,264.872 121.013,264.872 121.333 " stroke="none" fill="#3c3c3c" fill-rule="evenodd"></path><path id="path6" d="M269.972 66.159 C 259.714 68.040,255.766 80.039,263.000 87.348 C 270.916 95.345,284.359 89.843,284.359 78.605 C 284.359 70.924,277.298 64.816,269.972 66.159 " stroke="none" fill="#b2fa43" fill-rule="evenodd"></path><path id="path7" d="M90.875 15.115 C 91.035 15.157,91.298 15.157,91.458 15.115 C 91.619 15.073,91.487 15.039,91.167 15.039 C 90.846 15.039,90.715 15.073,90.875 15.115 M230.208 15.115 C 230.369 15.157,230.631 15.157,230.792 15.115 C 230.952 15.073,230.821 15.039,230.500 15.039 C 230.179 15.039,230.048 15.073,230.208 15.115 M261.742 26.833 C 261.742 30.363,261.764 31.806,261.791 30.042 C 261.818 28.277,261.818 25.390,261.791 23.625 C 261.764 21.860,261.742 23.304,261.742 26.833 M23.375 24.083 C 23.377 24.450,23.411 24.580,23.451 24.373 C 23.491 24.166,23.490 23.866,23.448 23.706 C 23.406 23.547,23.374 23.717,23.375 24.083 M354.539 26.667 C 354.539 26.988,354.573 27.119,354.615 26.958 C 354.657 26.798,354.657 26.535,354.615 26.375 C 354.573 26.215,354.539 26.346,354.539 26.667 M74.958 30.624 C 75.623 30.655,76.710 30.655,77.375 30.624 C 78.040 30.592,77.496 30.566,76.167 30.566 C 74.837 30.566,74.294 30.592,74.958 30.624 M192.781 30.625 C 194.539 30.652,197.464 30.652,199.281 30.625 C 201.097 30.598,199.658 30.576,196.083 30.576 C 192.508 30.576,191.022 30.598,192.781 30.625 M354.730 39.250 C 354.731 40.350,354.758 40.778,354.790 40.202 C 354.823 39.625,354.823 38.725,354.790 38.202 C 354.757 37.678,354.730 38.150,354.730 39.250 M162.542 40.083 C 162.544 40.450,162.578 40.580,162.618 40.373 C 162.658 40.166,162.656 39.866,162.615 39.706 C 162.573 39.547,162.540 39.717,162.542 40.083 M30.548 41.123 C 31.078 41.157,31.903 41.156,32.381 41.123 C 32.859 41.089,32.425 41.062,31.417 41.062 C 30.408 41.063,30.017 41.090,30.548 41.123 M170.887 49.333 C 170.887 49.929,170.917 50.173,170.954 49.875 C 170.991 49.577,170.991 49.090,170.954 48.792 C 170.917 48.494,170.887 48.737,170.887 49.333 M354.888 50.417 C 354.889 51.058,354.919 51.300,354.955 50.955 C 354.991 50.609,354.990 50.084,354.954 49.788 C 354.917 49.492,354.887 49.775,354.888 50.417 M43.400 54.333 C 43.400 55.663,43.425 56.206,43.457 55.542 C 43.489 54.877,43.489 53.790,43.457 53.125 C 43.425 52.460,43.400 53.004,43.400 54.333 M354.879 52.667 C 354.879 53.079,354.911 53.248,354.951 53.042 C 354.991 52.835,354.991 52.498,354.951 52.292 C 354.911 52.085,354.879 52.254,354.879 52.667 M202.294 56.785 C 202.501 56.824,202.801 56.823,202.960 56.781 C 203.120 56.739,202.950 56.707,202.583 56.709 C 202.217 56.711,202.086 56.745,202.294 56.785 M186.042 57.123 C 186.477 57.157,187.190 57.157,187.625 57.123 C 188.060 57.088,187.704 57.060,186.833 57.060 C 185.963 57.060,185.606 57.088,186.042 57.123 M281.548 57.750 C 281.549 58.208,281.581 58.376,281.620 58.123 C 281.658 57.869,281.657 57.494,281.617 57.289 C 281.578 57.084,281.546 57.292,281.548 57.750 M43.229 65.250 C 43.229 66.258,43.257 66.649,43.290 66.119 C 43.323 65.588,43.323 64.763,43.289 64.286 C 43.256 63.808,43.229 64.242,43.229 65.250 M255.205 67.833 C 255.205 68.154,255.240 68.285,255.282 68.125 C 255.323 67.965,255.323 67.702,255.282 67.542 C 255.240 67.381,255.205 67.512,255.205 67.833 M64.542 75.455 C 64.885 75.491,65.448 75.491,65.792 75.455 C 66.135 75.419,65.854 75.389,65.167 75.389 C 64.479 75.389,64.198 75.419,64.542 75.455 M79.460 75.451 C 79.668 75.491,79.968 75.490,80.127 75.448 C 80.286 75.406,80.117 75.374,79.750 75.375 C 79.383 75.377,79.253 75.411,79.460 75.451 M178.127 75.451 C 178.334 75.491,178.634 75.490,178.794 75.448 C 178.953 75.406,178.783 75.374,178.417 75.375 C 178.050 75.377,177.920 75.411,178.127 75.451 M211.542 75.448 C 211.702 75.490,211.965 75.490,212.125 75.448 C 212.285 75.406,212.154 75.372,211.833 75.372 C 211.512 75.372,211.381 75.406,211.542 75.448 M280.740 87.542 L 280.250 88.083 280.792 87.594 C 281.297 87.138,281.410 87.000,281.281 87.000 C 281.252 87.000,281.009 87.244,280.740 87.542 M271.542 91.282 C 271.702 91.323,271.965 91.323,272.125 91.282 C 272.285 91.240,272.154 91.205,271.833 91.205 C 271.512 91.205,271.381 91.240,271.542 91.282 M92.223 105.167 C 92.223 105.854,92.252 106.135,92.288 105.792 C 92.324 105.448,92.324 104.885,92.288 104.542 C 92.252 104.198,92.223 104.479,92.223 105.167 M169.889 105.167 C 169.889 105.854,169.919 106.135,169.955 105.792 C 169.991 105.448,169.991 104.885,169.955 104.542 C 169.919 104.198,169.889 104.479,169.889 105.167 M236.890 105.250 C 236.891 105.983,236.920 106.263,236.956 105.871 C 236.991 105.479,236.990 104.879,236.954 104.537 C 236.919 104.196,236.890 104.517,236.890 105.250 M304.224 105.250 C 304.224 105.983,304.254 106.263,304.289 105.871 C 304.324 105.479,304.324 104.879,304.288 104.537 C 304.252 104.196,304.223 104.517,304.224 105.250 M31.627 106.618 C 31.834 106.658,32.134 106.656,32.294 106.615 C 32.453 106.573,32.283 106.540,31.917 106.542 C 31.550 106.544,31.420 106.578,31.627 106.618 M47.909 106.709 C 47.865 106.824,47.849 109.693,47.873 113.084 L 47.917 119.250 48.000 112.875 C 48.046 109.369,48.062 106.500,48.036 106.500 C 48.011 106.500,47.953 106.594,47.909 106.709 M67.460 106.618 C 67.668 106.658,67.968 106.656,68.127 106.615 C 68.286 106.573,68.117 106.540,67.750 106.542 C 67.383 106.544,67.253 106.578,67.460 106.618 M249.575 106.711 C 249.531 106.827,249.515 108.983,249.539 111.502 L 249.584 116.083 249.667 111.292 C 249.713 108.656,249.729 106.500,249.703 106.500 C 249.677 106.500,249.620 106.595,249.575 106.711 M311.666 108.799 L 311.749 111.083 311.796 108.930 C 311.822 107.746,311.785 106.718,311.714 106.646 C 311.642 106.574,311.621 107.543,311.666 108.799 M185.909 112.917 C 185.909 116.400,185.931 117.849,185.958 116.136 C 185.985 114.423,185.985 111.573,185.958 109.803 C 185.931 108.032,185.909 109.433,185.909 112.917 M246.574 111.417 C 246.574 114.075,246.597 115.139,246.625 113.781 C 246.653 112.424,246.653 110.249,246.625 108.948 C 246.596 107.647,246.573 108.758,246.574 111.417 M188.408 113.500 C 188.408 116.662,188.431 117.956,188.458 116.375 C 188.485 114.794,188.485 112.206,188.458 110.625 C 188.431 109.044,188.408 110.337,188.408 113.500 M96.890 120.583 C 96.891 121.317,96.920 121.596,96.956 121.204 C 96.991 120.812,96.990 120.212,96.954 119.871 C 96.919 119.529,96.890 119.850,96.890 120.583 M172.390 120.583 C 172.391 121.317,172.420 121.596,172.456 121.204 C 172.491 120.812,172.490 120.212,172.454 119.871 C 172.419 119.529,172.390 119.850,172.390 120.583 M274.890 120.583 C 274.891 121.317,274.920 121.596,274.956 121.204 C 274.991 120.812,274.990 120.212,274.954 119.871 C 274.919 119.529,274.890 119.850,274.890 120.583 M322.724 120.583 C 322.724 121.317,322.754 121.596,322.789 121.204 C 322.824 120.812,322.824 120.212,322.788 119.871 C 322.752 119.529,322.723 119.850,322.724 120.583 " stroke="none" fill="#2b2c2a" fill-rule="evenodd"></path></g></svg>