<svg width="48" height="49" viewBox="0 0 48 49" fill="none" xmlns="http://www.w3.org/2000/svg">
<g clip-path="url(#clip0_19956_60)">
<path d="M31.8841 29.5697H46.99C47.2258 29.5697 47.41 29.7981 47.3584 30.0266C44.7204 41.2049 34.2863 49.3548 22.1131 48.4263C10.36 47.5273 0.876404 37.9774 0.0584735 26.2169C-0.914201 12.1795 10.1758 0.5 23.9995 0.5C35.3548 0.5 44.8604 8.37719 47.3584 18.9734C47.41 19.2092 47.2332 19.4303 46.99 19.4303H31.8841C31.7662 19.4303 31.6556 19.3714 31.582 19.2682C29.8429 16.7554 26.8807 15.1343 23.5574 15.2891C18.8414 15.5101 14.9581 19.4303 14.7886 24.1463C14.597 29.3855 18.7972 33.7109 23.9995 33.7109C27.146 33.7109 29.924 32.1266 31.582 29.7244C31.6483 29.6286 31.7588 29.5623 31.8841 29.5623V29.5697Z" fill="#4376FB"/>
<path d="M48 24.5C48 24.1684 47.9927 23.8368 47.9779 23.5053C47.9706 23.2842 47.7863 23.1147 47.5653 23.1147H29.6224C29.4603 23.1147 29.3203 23.0042 29.2761 22.8494C28.4802 20.2998 25.8938 18.5387 22.9832 19.0545C20.7873 19.4451 18.9967 21.1915 18.5693 23.38C17.8766 26.9243 20.5736 30.0266 23.9927 30.0266C26.4759 30.0266 28.5687 28.3907 29.2687 26.1433C29.3203 25.9885 29.4529 25.878 29.615 25.878H47.5579C47.779 25.878 47.9632 25.7085 47.9706 25.4874C47.9853 25.1559 47.9927 24.8243 47.9927 24.4927L48 24.5Z" fill="#FFBF25"/>
</g>
<defs>
<clipPath id="clip0_19956_60">
<rect width="48" height="48" fill="white" transform="translate(0 0.5)"/>
</clipPath>
</defs>
</svg>
