<svg width="184" height="49" viewBox="0 0 184 49" fill="none" xmlns="http://www.w3.org/2000/svg">
<g clip-path="url(#clip0_19956_59)">
<path d="M31.8841 29.5697H46.99C47.2258 29.5697 47.41 29.7981 47.3584 30.0266C44.7204 41.2049 34.2863 49.3548 22.1131 48.4263C10.36 47.5273 0.876404 37.9774 0.0584735 26.2169C-0.914201 12.1795 10.1758 0.5 23.9995 0.5C35.3548 0.5 44.8604 8.37719 47.3584 18.9734C47.41 19.2092 47.2332 19.4303 46.99 19.4303H31.8841C31.7662 19.4303 31.6556 19.3714 31.582 19.2682C29.8429 16.7554 26.8807 15.1343 23.5574 15.2891C18.8414 15.5101 14.9581 19.4303 14.7886 24.1463C14.597 29.3855 18.7972 33.7109 23.9995 33.7109C27.146 33.7109 29.924 32.1266 31.582 29.7244C31.6483 29.6286 31.7588 29.5623 31.8841 29.5623V29.5697Z" fill="#4376FB"/>
<path d="M47.9999 24.5C47.9999 24.1684 47.9925 23.8368 47.9778 23.5053C47.9704 23.2842 47.7862 23.1147 47.5652 23.1147H29.6223C29.4602 23.1147 29.3201 23.0042 29.2759 22.8494C28.4801 20.2998 25.8937 18.5387 22.983 19.0545C20.7871 19.4451 18.9965 21.1915 18.5692 23.38C17.8765 26.9243 20.5735 30.0266 23.9925 30.0266C26.4758 30.0266 28.5685 28.3907 29.2686 26.1433C29.3201 25.9885 29.4528 25.878 29.6149 25.878H47.5578C47.7789 25.878 47.9631 25.7085 47.9704 25.4874C47.9852 25.1559 47.9925 24.8243 47.9925 24.4927L47.9999 24.5Z" fill="#FFBF25"/>
</g>
<path d="M67.968 25.356H73.568L80.576 35.5H74.24L67.968 25.356ZM62.368 13.1H67.776V35.5H62.368V13.1ZM65.76 17.676V13.1H70.528C72.448 13.1 74.048 13.4093 75.328 14.028C76.608 14.6467 77.5787 15.5107 78.24 16.62C78.9013 17.708 79.232 18.9773 79.232 20.428C79.232 21.8573 78.9013 23.1267 78.24 24.236C77.5787 25.324 76.608 26.1773 75.328 26.796C74.048 27.4147 72.448 27.724 70.528 27.724H65.76V23.532H70.144C70.8693 23.532 71.488 23.4253 72 23.212C72.5333 22.9773 72.9387 22.6467 73.216 22.22C73.4933 21.772 73.632 21.2387 73.632 20.62C73.632 20.0013 73.4933 19.4787 73.216 19.052C72.9387 18.604 72.5333 18.2627 72 18.028C71.488 17.7933 70.8693 17.676 70.144 17.676H65.76ZM90.0948 35.82C88.3881 35.82 86.9054 35.5107 85.6468 34.892C84.4094 34.252 83.4494 33.356 82.7668 32.204C82.0841 31.052 81.7428 29.6973 81.7428 28.14C81.7428 26.5613 82.0734 25.196 82.7348 24.044C83.3961 22.892 84.3454 22.0067 85.5828 21.388C86.8414 20.7693 88.3241 20.46 90.0308 20.46C91.7374 20.46 93.1774 20.7587 94.3508 21.356C95.5241 21.932 96.4201 22.7747 97.0388 23.884C97.6574 24.9933 97.9668 26.3373 97.9668 27.916C97.9668 28.1507 97.9668 28.3853 97.9668 28.62C97.9668 28.8333 97.9454 29.0147 97.9028 29.164H84.4628V26.476H93.5508L92.3988 27.948C92.5054 27.7987 92.5908 27.6173 92.6548 27.404C92.7401 27.1693 92.7828 26.9773 92.7828 26.828C92.7828 26.188 92.6654 25.6333 92.4308 25.164C92.1961 24.6947 91.8654 24.332 91.4388 24.076C91.0121 23.82 90.5108 23.692 89.9348 23.692C89.2094 23.692 88.6014 23.852 88.1108 24.172C87.6201 24.492 87.2468 24.9827 86.9908 25.644C86.7561 26.284 86.6281 27.0947 86.6068 28.076C86.6068 28.972 86.7348 29.74 86.9908 30.38C87.2468 31.02 87.6308 31.5107 88.1428 31.852C88.6548 32.172 89.2841 32.332 90.0308 32.332C90.8841 32.332 91.6094 32.172 92.2068 31.852C92.8254 31.532 93.3161 31.052 93.6788 30.412L97.9988 31.468C97.2308 32.9187 96.1854 34.0067 94.8628 34.732C93.5614 35.4573 91.9721 35.82 90.0948 35.82ZM98.4977 20.78H103.65L107.042 28.94L110.402 20.78H115.554L107.042 37.228L98.4977 20.78ZM119.451 31.18L119.835 27.052H130.939L131.291 31.18H119.451ZM125.307 21.324L122.171 28.556L122.427 29.74L119.643 35.5H113.53L125.307 11.692L137.115 35.5H130.971L128.283 29.964L128.475 28.588L125.307 21.324ZM143.413 29.74C143.413 30.5933 143.573 31.2653 143.893 31.756C144.213 32.2253 144.767 32.46 145.557 32.46C146.09 32.46 146.538 32.3533 146.901 32.14C147.285 31.9267 147.583 31.6173 147.797 31.212C148.01 30.8067 148.117 30.316 148.117 29.74V20.78H152.949V35.5H148.117V33.292C147.669 34.0813 147.082 34.7107 146.357 35.18C145.631 35.628 144.725 35.852 143.637 35.852C141.802 35.852 140.458 35.3613 139.605 34.38C138.773 33.3773 138.357 32.0013 138.357 30.252V20.78H143.413V29.74ZM155.035 20.78H164.891V24.78H155.035V20.78ZM157.627 15.66H162.267V35.5H157.627V15.66ZM166.087 28.14C166.087 26.5827 166.449 25.228 167.174 24.076C167.9 22.924 168.903 22.028 170.183 21.388C171.463 20.748 172.903 20.428 174.503 20.428C176.103 20.428 177.532 20.748 178.791 21.388C180.071 22.028 181.073 22.924 181.799 24.076C182.545 25.228 182.919 26.5827 182.919 28.14C182.919 29.676 182.545 31.02 181.799 32.172C181.073 33.324 180.071 34.22 178.791 34.86C177.532 35.5 176.103 35.82 174.503 35.82C172.903 35.82 171.463 35.5 170.183 34.86C168.903 34.22 167.9 33.324 167.174 32.172C166.449 31.02 166.087 29.676 166.087 28.14ZM171.047 28.14C171.047 28.908 171.207 29.5693 171.527 30.124C171.847 30.6573 172.263 31.0733 172.775 31.372C173.287 31.6707 173.863 31.82 174.503 31.82C175.121 31.82 175.687 31.6707 176.199 31.372C176.732 31.0733 177.148 30.6573 177.447 30.124C177.767 29.5693 177.927 28.908 177.927 28.14C177.927 27.372 177.767 26.7107 177.447 26.156C177.148 25.6013 176.732 25.1747 176.199 24.876C175.687 24.5773 175.121 24.428 174.503 24.428C173.863 24.428 173.287 24.5773 172.775 24.876C172.263 25.1747 171.847 25.6013 171.527 26.156C171.207 26.7107 171.047 27.372 171.047 28.14Z" fill="white"/>
<defs>
<clipPath id="clip0_19956_59">
<rect width="48" height="48" fill="white" transform="translate(0 0.5)"/>
</clipPath>
</defs>
</svg>
